STARTFONT 2.1
COMMENT
COMMENT Converted from OpenType font "Montserrat-Medium.ttf" by "otf2bdf 3.0".
COMMENT
FONT -FreeType-Montserrat Medium-Medium-R-Normal--82-820-72-72-P-451-ISO10646-1
SIZE 82 72 72
FONTBOUNDINGBOX 149 108 -16 -22
STARTPROPERTIES 19
FOUNDRY "FreeType"
FAMILY_NAME "Montserrat Medium"
WEIGHT_NAME "Medium"
SLANT "R"
SETWIDTH_NAME "Normal"
ADD_STYLE_NAME ""
PIXEL_SIZE 82
POINT_SIZE 820
RESOLUTION_X 72
RESOLUTION_Y 72
SPACING "P"
AVERAGE_WIDTH 451
CHARSET_REGISTRY "ISO10646"
CHARSET_ENCODING "1"
FONT_ASCENT 79
FONT_DESCENT 20
COPYRIGHT "Copyright 2011 The Montserrat Project Authors (https://github.com/JulietaUla/Montserrat)"
_OTF_FONTFILE "Montserrat-Medium.ttf"
_OTF_PSNAME "Montserrat-Medium"
ENDPROPERTIES
CHARS 969
STARTCHAR 0000
ENCODING 0
SWIDTH 0 0
DWIDTH 0 0
BBX 0 0 0 0
BITMAP
ENDCHAR
STARTCHAR 000D
ENCODING 13
SWIDTH 268 0
DWIDTH 22 0
BBX 0 0 0 0
BITMAP
ENDCHAR
STARTCHAR 0020
ENCODING 32
SWIDTH 268 0
DWIDTH 22 0
BBX 0 0 0 0
BITMAP
ENDCHAR
STARTCHAR 0021
ENCODING 33
SWIDTH 268 0
DWIDTH 22 0
BBX 10 57 6 0
BITMAP
FFC0
FFC0
FFC0
7FC0
7F80
7F80
7F80
7F80
7F80
7F80
7F80
7F80
7F80
7F80
7F80
7F80
7F80
7F80
7F80
7F80
7F80
7F80
7F80
7F80
7F80
7F80
7F80
7F80
7F80
3F00
3F00
3F00
3F00
3F00
3F00
3F00
3F00
3F00
3F00
0000
0000
0000
0000
0000
0000
0000
0000
1E00
7F80
FFC0
FFC0
FFC0
FFC0
FFC0
FFC0
7F80
3F00
ENDCHAR
STARTCHAR 0022
ENCODING 34
SWIDTH 390 0
DWIDTH 32 0
BBX 22 22 5 35
BITMAP
FE01FC
FE01FC
FE01FC
FE01FC
FE01FC
FE01FC
FE01FC
FE01FC
FE01FC
FE01FC
FE01FC
FE01FC
FE01FC
FE01FC
7E00FC
7E00FC
7E00FC
7E00FC
7E00FC
7E00FC
7E00FC
7E00FC
ENDCHAR
STARTCHAR 0023
ENCODING 35
SWIDTH 707 0
DWIDTH 58 0
BBX 53 57 2 0
BITMAP
00007E0003F000
00007C0003F000
0000FC0003F000
0000FC0003E000
0000FC0007E000
0000FC0007E000
0000FC0007E000
0000FC0007E000
0000FC0007E000
0000F80007E000
0001F80007E000
0001F80007C000
0001F8000FC000
0001F8000FC000
1FFFFFFFFFFFF8
1FFFFFFFFFFFF8
1FFFFFFFFFFFF8
1FFFFFFFFFFFF8
1FFFFFFFFFFFF8
1FFFFFFFFFFFF8
0003F0000F8000
0003F0001F8000
0003F0001F8000
0003F0001F8000
0003F0001F8000
0003E0001F8000
0007E0001F8000
0007E0001F8000
0007E0001F0000
0007E0003F0000
0007E0003F0000
0007E0003F0000
0007E0003F0000
0007C0003F0000
0007C0003F0000
000FC0003F0000
FFFFFFFFFFFFE0
FFFFFFFFFFFFE0
FFFFFFFFFFFFE0
FFFFFFFFFFFFE0
FFFFFFFFFFFFE0
FFFFFFFFFFFFE0
000F80007E0000
001F80007E0000
001F80007C0000
001F8000FC0000
001F8000FC0000
001F8000FC0000
001F8000FC0000
001F0000FC0000
001F0000FC0000
003F0000FC0000
003F0000F80000
003F0001F80000
003F0001F80000
003F0001F80000
003F0001F80000
ENDCHAR
STARTCHAR 0024
ENCODING 36
SWIDTH 621 0
DWIDTH 51 0
BBX 45 77 3 -10
BITMAP
00000FC00000
00000FC00000
00000FC00000
00000FC00000
00000FC00000
00000FC00000
00000FC00000
00000FC00000
00000FC00000
00007FFC0000
0007FFFFC000
001FFFFFF800
007FFFFFFF00
01FFFFFFFF80
03FFFFFFFFC0
07FFFFFFFFC0
07FFCFC7FF80
0FFE0FC07F80
1FF80FC00F00
1FF00FC00300
3FE00FC00100
3FE00FC00000
3FC00FC00000
3FC00FC00000
3FC00FC00000
3FC00FC00000
3FC00FC00000
3FC00FC00000
3FE00FC00000
3FE00FC00000
3FF00FC00000
1FFC0FC00000
1FFF0FC00000
0FFFEFC00000
07FFFFC00000
03FFFFE00000
01FFFFFE0000
007FFFFFC000
001FFFFFF000
0007FFFFFC00
0000FFFFFE00
00000FFFFF80
00000FFFFFC0
00000FDFFFC0
00000FC3FFE0
00000FC0FFE0
00000FC03FF0
00000FC01FF0
00000FC00FF0
00000FC00FF0
00000FC00FF8
00000FC007F8
00000FC00FF8
00000FC00FF0
10000FC00FF0
18000FC00FF0
3E000FC01FF0
3F800FC03FE0
7FE00FC07FE0
7FFC0FC1FFC0
FFFFFFFFFF80
3FFFFFFFFF80
1FFFFFFFFE00
07FFFFFFFC00
01FFFFFFF800
007FFFFFE000
0007FFFF0000
00001FC00000
00000FC00000
00000FC00000
00000FC00000
00000FC00000
00000FC00000
00000FC00000
00000FC00000
00000FC00000
00000FC00000
ENDCHAR
STARTCHAR 0025
ENCODING 37
SWIDTH 841 0
DWIDTH 69 0
BBX 63 58 3 0
BITMAP
003F800000000000
01FFE0000001FC00
03FFF8000001F800
07FFFC000003F000
0FFFFE000007F000
1FC07F000007E000
3F803F00000FC000
3F001F80001FC000
7E000F80001F8000
7C000FC0003F0000
7C0007C0007F0000
FC0007C0007E0000
FC0007C000FC0000
F80007E001FC0000
F80007E003F80000
F80007E003F00000
F80007E007E00000
F80007E00FE00000
FC0007E00FC00000
FC0007C01F800000
7C0007C03F800000
7C0007C03F000000
7E000FC07E000000
7E000F80FE000000
3F001F80FC000000
1F803F01F8000000
1FE0FF03F8000000
0FFFFE03F001F800
07FFFC07E00FFF00
03FFF00FE03FFF80
00FFC00FC07FFFC0
0000001F80FFFFE0
0000003F81FE07F0
0000003F01F803F8
0000007E03F001F8
000000FC03E000FC
000001FC07E0007C
000001F807C0007C
000003F007C0007E
000007F007C0007E
000007E007C0003E
00000FC00FC0003E
00001FC00FC0003E
00001F800FC0003E
00003F000FC0003E
00007F0007C0003E
00007E0007C0007E
0000FC0007C0007E
0001FC0007E0007C
0001F80007E000FC
0003F00003F000FC
0007F00003F001F8
0007E00001F803F8
000FC00000FE0FF0
001FC00000FFFFE0
001F8000007FFFC0
003F0000001FFF80
007E00000007FE00
ENDCHAR
STARTCHAR 0026
ENCODING 38
SWIDTH 682 0
DWIDTH 56 0
BBX 51 59 4 -1
BITMAP
00003FC0000000
0001FFFC000000
0007FFFF000000
001FFFFF800000
003FFFFFC00000
007FFFFFE00000
00FFC03FE00000
00FF800FF00000
01FF0007F00000
01FE0007F00000
01FC0003F00000
01FC0003F00000
01FC0003F80000
01FC0003F00000
01FC0007F00000
01FC0007F00000
01FE000FF00000
00FE001FE00000
00FF003FE00000
00FF807FC00000
007FC1FF800000
003FE3FF000000
003FFFFE000000
001FFFFC000000
000FFFF0000000
0007FFE0000000
0007FF80000000
001FFF80000000
003FFFC0000000
00FFFFE0000000
01FFFFF0000000
03FF1FF8003000
07FE0FFC003E00
0FF807FE007F00
1FF003FF007F00
3FE001FF807F00
7FC000FFC0FE00
7F80007FE0FE00
7F00003FF0FE00
FF00001FF9FC00
FF00000FFDFC00
FE000007FFFC00
FE000003FFF800
FE000001FFF800
FF000000FFF000
FF0000007FF000
FF0000003FF000
FF8000007FF800
7FC00000FFFC00
7FE00001FFFE00
3FF00007FFFF00
3FFE007FFFFF80
1FFFFFFFFCFFC0
0FFFFFFFF07FE0
07FFFFFFE03FC0
01FFFFFF801F80
007FFFFE000F80
001FFFF0000700
00003E00000200
ENDCHAR
STARTCHAR 0027
ENCODING 39
SWIDTH 207 0
DWIDTH 17 0
BBX 7 22 5 35
BITMAP
FE
FE
FE
FE
FE
FE
FE
FE
FE
FE
FE
FE
FE
FE
7E
7E
7E
7E
7E
7E
7E
7E
ENDCHAR
STARTCHAR 0028
ENCODING 40
SWIDTH 341 0
DWIDTH 28 0
BBX 17 77 8 -16
BITMAP
007F80
007F00
00FF00
00FE00
01FE00
01FC00
03FC00
03F800
07F800
07F800
0FF000
0FF000
0FE000
1FE000
1FE000
1FE000
1FC000
3FC000
3FC000
3FC000
3F8000
7F8000
7F8000
7F8000
7F8000
7F0000
7F0000
FF0000
FF0000
FF0000
FF0000
FF0000
FF0000
FF0000
FF0000
FF0000
FF0000
FF0000
FF0000
FF0000
FF0000
FF0000
FF0000
FF0000
FF0000
FF0000
FF0000
FF0000
FF0000
FF0000
7F0000
7F0000
7F8000
7F8000
7F8000
7F8000
3F8000
3F8000
3FC000
3FC000
1FC000
1FC000
1FE000
1FE000
0FE000
0FF000
0FF000
07F800
07F800
03F800
03FC00
01FC00
01FE00
00FE00
00FF00
007F00
007F80
ENDCHAR
STARTCHAR 0029
ENCODING 41
SWIDTH 341 0
DWIDTH 28 0
BBX 17 77 3 -16
BITMAP
FE0000
FF0000
7F0000
7F8000
3FC000
3FC000
1FE000
1FE000
0FE000
0FF000
0FF000
07F800
07F800
03F800
03FC00
03FC00
03FC00
01FC00
01FE00
01FE00
01FE00
00FE00
00FF00
00FF00
00FF00
00FF00
00FF00
007F00
007F00
007F00
007F80
007F80
007F80
007F80
007F80
007F80
007F80
007F80
007F80
007F80
007F80
007F80
007F80
007F80
007F80
007F80
007F80
007F80
007F00
007F00
00FF00
00FF00
00FF00
00FF00
00FF00
00FE00
01FE00
01FE00
01FE00
01FC00
03FC00
03FC00
03FC00
03F800
07F800
07F800
07F000
0FF000
0FE000
1FE000
1FE000
3FC000
3FC000
7F8000
7F8000
FF0000
FE0000
ENDCHAR
STARTCHAR 002A
ENCODING 42
SWIDTH 402 0
DWIDTH 33 0
BBX 29 31 2 30
BITMAP
000F8000
000F8000
000F8000
000F8000
000F8000
200F8020
700F8060
7C0F81F0
FE0F87F0
FF8F8FF8
FFEFBFF0
3FFFFFE0
0FFFFF80
03FFFE00
00FFF800
007FF000
01FFF800
03FFFE00
0FFFFF80
3FFFFFE0
FFEFBFF8
FF8F8FF8
FE0F83F0
780F81F0
300F8060
000F8000
000F8000
000F8000
000F8000
000F8000
000F8000
ENDCHAR
STARTCHAR 002B
ENCODING 43
SWIDTH 585 0
DWIDTH 48 0
BBX 36 36 6 11
BITMAP
0003F80000
0003F80000
0003F80000
0003F80000
0003F80000
0003F80000
0003F80000
0003F80000
0003F80000
0003F80000
0003F80000
0003F80000
0003F80000
0003F80000
0003F80000
FFFFFFFFF0
FFFFFFFFF0
FFFFFFFFF0
FFFFFFFFF0
FFFFFFFFF0
FFFFFFFFF0
FFFFFFFFF0
0003F80000
0003F80000
0003F80000
0003F80000
0003F80000
0003F80000
0003F80000
0003F80000
0003F80000
0003F80000
0003F80000
0003F80000
0003F80000
0003F80000
ENDCHAR
STARTCHAR 002C
ENCODING 44
SWIDTH 231 0
DWIDTH 19 0
BBX 11 23 4 -12
BITMAP
0E00
3F80
7FC0
FFC0
FFE0
FFE0
FFE0
FFE0
7FC0
7FC0
3FC0
1F80
1F80
1F80
3F00
3F00
3F00
3E00
7E00
7E00
7C00
7C00
FC00
ENDCHAR
STARTCHAR 002D
ENCODING 45
SWIDTH 378 0
DWIDTH 31 0
BBX 22 7 5 19
BITMAP
FFFFFC
FFFFFC
FFFFFC
FFFFFC
FFFFFC
FFFFFC
FFFFFC
ENDCHAR
STARTCHAR 002E
ENCODING 46
SWIDTH 231 0
DWIDTH 19 0
BBX 11 11 4 0
BITMAP
0E00
3F80
7FC0
FFC0
FFE0
FFE0
FFE0
FFE0
FFC0
7FC0
3F00
ENDCHAR
STARTCHAR 002F
ENCODING 47
SWIDTH 353 0
DWIDTH 29 0
BBX 34 77 -2 -8
BITMAP
0000001FC0
0000003F80
0000003F80
0000003F80
0000007F00
0000007F00
000000FF00
000000FE00
000000FE00
000001FE00
000001FC00
000001FC00
000003FC00
000003F800
000003F800
000007F000
000007F000
000007F000
00000FE000
00000FE000
00000FE000
00001FC000
00001FC000
00001FC000
00003F8000
00003F8000
00007F8000
00007F0000
00007F0000
0000FF0000
0000FE0000
0000FE0000
0001FE0000
0001FC0000
0001FC0000
0003F80000
0003F80000
0003F80000
0007F00000
0007F00000
0007F00000
000FE00000
000FE00000
001FE00000
001FC00000
001FC00000
003FC00000
003F800000
003F800000
007F800000
007F000000
007F000000
00FF000000
00FE000000
00FE000000
01FC000000
01FC000000
01FC000000
03F8000000
03F8000000
03F8000000
07F0000000
07F0000000
0FF0000000
0FE0000000
0FE0000000
1FE0000000
1FC0000000
1FC0000000
3FC0000000
3F80000000
3F80000000
7F80000000
7F00000000
7F00000000
FE00000000
FE00000000
ENDCHAR
STARTCHAR 0030
ENCODING 48
SWIDTH 670 0
DWIDTH 55 0
BBX 47 59 4 -1
BITMAP
00003FF00000
0001FFFF0000
0007FFFFC000
001FFFFFF000
003FFFFFF800
007FFFFFFC00
00FFFFFFFE00
01FFF83FFF00
03FFC007FF80
07FF0001FF80
07FC0000FFC0
0FF800007FE0
1FF800003FE0
1FF000001FF0
3FE000001FF0
3FE000000FF8
3FC000000FF8
7FC0000007F8
7FC0000007F8
7F80000007FC
7F80000003FC
7F80000003FC
FF80000003FC
FF00000003FC
FF00000003FE
FF00000003FE
FF00000003FE
FF00000001FE
FF00000001FE
FF00000001FE
FF00000001FE
FF00000003FE
FF00000003FE
FF00000003FE
FF00000003FC
FF80000003FC
FF80000003FC
7F80000003FC
7F80000003FC
7F80000007FC
7FC0000007F8
3FC0000007F8
3FC000000FF8
3FE000000FF0
1FE000001FF0
1FF000001FF0
0FF800003FE0
0FFC00007FE0
07FE0000FFC0
07FF0003FF80
03FFC00FFF80
01FFFFFFFF00
00FFFFFFFE00
007FFFFFFC00
003FFFFFF000
000FFFFFE000
0003FFFF8000
0000FFFE0000
000007C00000
ENDCHAR
STARTCHAR 0031
ENCODING 49
SWIDTH 365 0
DWIDTH 30 0
BBX 21 57 1 0
BITMAP
FFFFF8
FFFFF8
FFFFF8
FFFFF8
FFFFF8
FFFFF8
FFFFF8
0007F8
0007F8
0007F8
0007F8
0007F8
0007F8
0007F8
0007F8
0007F8
0007F8
0007F8
0007F8
0007F8
0007F8
0007F8
0007F8
0007F8
0007F8
0007F8
0007F8
0007F8
0007F8
0007F8
0007F8
0007F8
0007F8
0007F8
0007F8
0007F8
0007F8
0007F8
0007F8
0007F8
0007F8
0007F8
0007F8
0007F8
0007F8
0007F8
0007F8
0007F8
0007F8
0007F8
0007F8
0007F8
0007F8
0007F8
0007F8
0007F8
0007F8
ENDCHAR
STARTCHAR 0032
ENCODING 50
SWIDTH 573 0
DWIDTH 47 0
BBX 43 58 1 0
BITMAP
0001FFE00000
001FFFFE0000
00FFFFFF8000
03FFFFFFC000
07FFFFFFF000
1FFFFFFFF800
3FFFFFFFFC00
7FFF80FFFC00
FFF8001FFE00
7FE00007FF00
3F800003FF00
1F000001FF00
06000000FF00
00000000FF80
00000000FF80
000000007F80
000000007F80
000000007F80
00000000FF80
00000000FF80
00000000FF00
00000000FF00
00000001FF00
00000001FE00
00000003FE00
00000007FC00
00000007FC00
0000000FF800
0000001FF000
0000003FF000
0000007FE000
000000FFC000
000001FF8000
000003FF0000
000007FE0000
00000FFC0000
00001FF80000
00007FF00000
0000FFE00000
0001FFC00000
0003FF800000
0007FF000000
000FFE000000
001FFC000000
003FF0000000
007FE0000000
00FFC0000000
01FF80000000
03FF00000000
07FE00000000
0FFC00000000
1FFFFFFFFFE0
3FFFFFFFFFE0
3FFFFFFFFFE0
3FFFFFFFFFE0
3FFFFFFFFFE0
3FFFFFFFFFE0
3FFFFFFFFFE0
ENDCHAR
STARTCHAR 0033
ENCODING 51
SWIDTH 573 0
DWIDTH 47 0
BBX 43 58 0 -1
BITMAP
1FFFFFFFFF80
1FFFFFFFFF80
1FFFFFFFFF80
1FFFFFFFFF80
1FFFFFFFFF80
1FFFFFFFFF80
1FFFFFFFFF00
00000003FE00
00000007FC00
0000000FF800
0000000FF800
0000001FF000
0000003FE000
0000007FC000
000000FF8000
000000FF8000
000001FF0000
000003FE0000
000007FC0000
00000FF80000
00001FF00000
00001FF00000
00003FE00000
00007FC00000
0000FFFE0000
0000FFFFC000
0000FFFFF000
0000FFFFF800
0000FFFFFC00
0000FFFFFE00
0000007FFF00
00000007FF80
00000001FF80
00000000FFC0
000000007FC0
000000003FE0
000000003FE0
000000001FE0
000000001FE0
000000001FE0
000000001FE0
000000001FE0
000000001FE0
000000003FE0
080000003FE0
1C0000007FC0
1E0000007FC0
3F800000FFC0
3FE00003FF80
7FFC000FFF80
FFFFFFFFFF00
7FFFFFFFFE00
1FFFFFFFFC00
0FFFFFFFF800
03FFFFFFE000
007FFFFF8000
000FFFFE0000
00001F800000
ENDCHAR
STARTCHAR 0034
ENCODING 52
SWIDTH 670 0
DWIDTH 55 0
BBX 51 57 3 0
BITMAP
00000007FC0000
0000000FF80000
0000001FF00000
0000003FE00000
0000003FE00000
0000007FC00000
000000FF800000
000001FF000000
000003FE000000
000003FE000000
000007FC000000
00000FF8000000
00001FF0000000
00001FF0000000
00003FE0000000
00007FC0000000
0000FF80000000
0001FF00000000
0001FF00000000
0003FE00000000
0007FC00000000
000FF800000000
000FF800000000
001FF000FF0000
003FE000FF0000
007FC000FF0000
00FF8000FF0000
00FF8000FF0000
01FF0000FF0000
03FE0000FF0000
07FC0000FF0000
07FC0000FF0000
0FF80000FF0000
1FF00000FF0000
3FE00000FF0000
7FE00000FF0000
7FFFFFFFFFFFE0
FFFFFFFFFFFFE0
FFFFFFFFFFFFE0
FFFFFFFFFFFFE0
FFFFFFFFFFFFE0
FFFFFFFFFFFFE0
FFFFFFFFFFFFE0
00000000FF0000
00000000FF0000
00000000FF0000
00000000FF0000
00000000FF0000
00000000FF0000
00000000FF0000
00000000FF0000
00000000FF0000
00000000FF0000
00000000FF0000
00000000FF0000
00000000FF0000
00000000FF0000
ENDCHAR
STARTCHAR 0035
ENCODING 53
SWIDTH 573 0
DWIDTH 47 0
BBX 43 58 1 -1
BITMAP
00FFFFFFFF00
01FFFFFFFF00
01FFFFFFFF00
01FFFFFFFF00
01FFFFFFFF00
01FFFFFFFF00
01FFFFFFFF00
01FC00000000
01FC00000000
01FC00000000
03FC00000000
03FC00000000
03FC00000000
03FC00000000
03FC00000000
03FC00000000
03FC00000000
03F800000000
03F800000000
03F800000000
07F800000000
07F800000000
07FFF0000000
07FFFFF80000
07FFFFFF8000
07FFFFFFE000
07FFFFFFF800
07FFFFFFFC00
07FFFFFFFE00
07FFFFFFFF00
0000001FFF80
00000003FF80
00000001FFC0
000000007FC0
000000007FC0
000000003FE0
000000003FE0
000000001FE0
000000001FE0
000000001FE0
000000001FE0
000000001FE0
000000001FE0
000000003FE0
080000003FE0
1C0000007FC0
1E0000007FC0
3F800000FF80
3FE00003FF80
7FFC000FFF00
FFFFFFFFFF00
7FFFFFFFFE00
1FFFFFFFFC00
0FFFFFFFF800
03FFFFFFE000
007FFFFF8000
000FFFFC0000
00001F800000
ENDCHAR
STARTCHAR 0036
ENCODING 54
SWIDTH 621 0
DWIDTH 51 0
BBX 44 59 4 -1
BITMAP
000007FF8000
00007FFFF800
0001FFFFFF00
0007FFFFFF80
001FFFFFFF80
003FFFFFFF00
007FFFFFFF00
00FFFC007E00
01FFE0000E00
03FF80000200
07FF00000000
07FC00000000
0FF800000000
1FF000000000
1FF000000000
3FE000000000
3FE000000000
3FC000000000
7FC000000000
7F8000000000
7F8000000000
7F8000000000
7F8000000000
FF000FF80000
FF00FFFF8000
FF03FFFFE000
FF0FFFFFF800
FF1FFFFFFC00
FF3FFFFFFF00
FF7FFFFFFF00
FFFFC007FF80
FFFF0001FFC0
FFFC00007FC0
FFF800003FE0
FFF000003FE0
FFF000001FF0
FFE000000FF0
FFE000000FF0
7FC000000FF0
7FC000000FF0
7FC000000FF0
7FC000000FF0
3FC000000FF0
3FC000000FF0
3FE000000FF0
1FE000001FF0
1FF000001FE0
0FF000003FE0
0FF800007FE0
07FE0000FFC0
03FF0001FF80
03FFE00FFF80
01FFFFFFFF00
007FFFFFFE00
003FFFFFFC00
001FFFFFF000
0007FFFFC000
0000FFFF0000
000007E00000
ENDCHAR
STARTCHAR 0037
ENCODING 55
SWIDTH 597 0
DWIDTH 49 0
BBX 44 57 2 0
BITMAP
FFFFFFFFFFF0
FFFFFFFFFFF0
FFFFFFFFFFF0
FFFFFFFFFFF0
FFFFFFFFFFF0
FFFFFFFFFFF0
FFFFFFFFFFE0
FF0000003FE0
FF0000003FC0
FF0000007FC0
FF0000007F80
FF000000FF80
FF000000FF00
FF000001FF00
FF000001FF00
FF000001FE00
FF000003FE00
00000003FC00
00000007FC00
00000007F800
0000000FF800
0000000FF000
0000001FF000
0000001FF000
0000001FE000
0000003FE000
0000003FC000
0000007FC000
0000007F8000
000000FF8000
000000FF0000
000001FF0000
000001FF0000
000003FE0000
000003FE0000
000003FC0000
000007FC0000
000007F80000
00000FF80000
00000FF00000
00001FF00000
00001FF00000
00003FE00000
00003FE00000
00007FC00000
00007FC00000
00007F800000
0000FF800000
0000FF000000
0001FF000000
0001FE000000
0003FE000000
0003FE000000
0007FC000000
0007FC000000
0007F8000000
000FF8000000
ENDCHAR
STARTCHAR 0038
ENCODING 56
SWIDTH 646 0
DWIDTH 53 0
BBX 45 59 4 -1
BITMAP
0000FFF80000
000FFFFF0000
003FFFFFE000
00FFFFFFF000
01FFFFFFFC00
03FFFFFFFE00
07FFFFFFFF00
0FFF000FFF80
1FFC0001FF80
1FF80000FFC0
3FF000007FC0
3FE000003FE0
3FC000003FE0
3FC000001FE0
3FC000001FE0
3FC000001FE0
3FC000001FE0
3FC000001FE0
3FC000001FE0
3FE000003FE0
3FE000003FC0
1FF000007FC0
1FF80000FF80
0FFE0003FF80
07FF801FFF00
03FFFFFFFE00
01FFFFFFFC00
007FFFFFF000
00FFFFFFF800
03FFFFFFFC00
07FFFFFFFF00
0FFFE03FFF80
1FFE0003FFC0
3FF00000FFE0
7FE000003FE0
7FC000001FF0
FF8000000FF0
FF8000000FF8
FF00000007F8
FF00000007F8
FF00000007F8
FF00000007F8
FF00000007F8
FF00000007F8
FF00000007F8
FF8000000FF8
FF8000000FF8
7FC000001FF0
7FE000003FF0
3FF000007FE0
3FFC0001FFE0
1FFF800FFFC0
0FFFFFFFFF80
07FFFFFFFF00
03FFFFFFFE00
00FFFFFFF800
003FFFFFE000
0007FFFF0000
00001FC00000
ENDCHAR
STARTCHAR 0039
ENCODING 57
SWIDTH 621 0
DWIDTH 51 0
BBX 45 59 2 -1
BITMAP
0001FFC00000
000FFFFC0000
003FFFFF0000
00FFFFFFC000
01FFFFFFE000
07FFFFFFF800
0FFFFFFFFC00
0FFF001FFC00
1FF80007FE00
3FF00001FF00
3FE00000FF80
7FC000007F80
7F8000007FC0
7F8000003FC0
7F8000003FC0
FF0000003FE0
FF0000003FE0
FF0000001FE0
FF0000001FF0
FF0000003FF0
FF8000003FF0
7F8000003FF0
7F8000007FF0
7FC000007FF0
7FC00000FFF0
3FE00001FFF8
3FF80003FFF8
1FFC000FFFF8
0FFFC0FFFFF8
0FFFFFFFEFF8
03FFFFFFCFF8
01FFFFFF8FF8
00FFFFFF0FF0
003FFFFC0FF0
0007FFE00FF0
000000000FF0
000000000FF0
000000000FF0
000000001FF0
000000001FE0
000000001FE0
000000003FE0
000000003FC0
000000007FC0
000000007F80
00000000FF80
00000001FF00
00000003FF00
00000007FE00
0200001FFC00
03C0007FFC00
07FE1FFFF800
07FFFFFFF000
0FFFFFFFC000
0FFFFFFF8000
1FFFFFFE0000
03FFFFF80000
00FFFFC00000
0003F8000000
ENDCHAR
STARTCHAR 003A
ENCODING 58
SWIDTH 231 0
DWIDTH 19 0
BBX 11 44 4 0
BITMAP
0E00
3F80
7FC0
FFC0
FFE0
FFE0
FFE0
FFE0
FFC0
7FC0
3F00
0000
0000
0000
0000
0000
0000
0000
0000
0000
0000
0000
0000
0000
0000
0000
0000
0000
0000
0000
0000
0000
0000
0E00
3F80
7FC0
FFC0
FFE0
FFE0
FFE0
FFE0
FFC0
7FC0
3F00
ENDCHAR
STARTCHAR 003B
ENCODING 59
SWIDTH 231 0
DWIDTH 19 0
BBX 11 56 4 -12
BITMAP
0E00
3F80
7FC0
FFC0
FFE0
FFE0
FFE0
FFE0
FFC0
7FC0
3F00
0000
0000
0000
0000
0000
0000
0000
0000
0000
0000
0000
0000
0000
0000
0000
0000
0000
0000
0000
0000
0000
0000
0E00
3F80
7FC0
FFC0
FFE0
FFE0
FFE0
FFE0
7FC0
7FC0
3FC0
1F80
1F80
1F80
3F00
3F00
3F00
3E00
7E00
7E00
7C00
7C00
FC00
ENDCHAR
STARTCHAR 003C
ENCODING 60
SWIDTH 585 0
DWIDTH 48 0
BBX 36 36 6 11
BITMAP
0000000010
0000000070
00000001F0
0000000FF0
0000003FF0
000001FFF0
00000FFFF0
00003FFFE0
0001FFFF80
0007FFFC00
003FFFE000
00FFFF8000
07FFFC0000
1FFFF00000
FFFF800000
FFFC000000
FFF0000000
FF80000000
FF00000000
FFC0000000
FFF8000000
FFFE000000
7FFFC00000
0FFFF80000
03FFFE0000
007FFFC000
001FFFF000
0003FFFE00
0000FFFFC0
00001FFFF0
000007FFF0
000000FFF0
0000001FF0
00000007F0
00000000F0
0000000030
ENDCHAR
STARTCHAR 003D
ENCODING 61
SWIDTH 585 0
DWIDTH 48 0
BBX 36 26 6 16
BITMAP
FFFFFFFFF0
FFFFFFFFF0
FFFFFFFFF0
FFFFFFFFF0
FFFFFFFFF0
FFFFFFFFF0
FFFFFFFFF0
0000000000
0000000000
0000000000
0000000000
0000000000
0000000000
0000000000
0000000000
0000000000
0000000000
0000000000
0000000000
0000000000
FFFFFFFFF0
FFFFFFFFF0
FFFFFFFFF0
FFFFFFFFF0
FFFFFFFFF0
FFFFFFFFF0
ENDCHAR
STARTCHAR 003E
ENCODING 62
SWIDTH 585 0
DWIDTH 48 0
BBX 36 35 6 12
BITMAP
E000000000
F800000000
FF00000000
FFC0000000
FFF8000000
FFFE000000
7FFFC00000
1FFFF00000
03FFFE0000
00FFFF8000
001FFFF000
0003FFFC00
0000FFFF80
00001FFFF0
000007FFF0
000000FFF0
0000001FF0
0000000FF0
0000003FF0
000001FFF0
00000FFFF0
00003FFFE0
0001FFFF00
0007FFF800
003FFFE000
01FFFF0000
07FFFC0000
3FFFE00000
FFFF800000
FFFC000000
FFF0000000
FF80000000
FE00000000
F000000000
C000000000
ENDCHAR
STARTCHAR 003F
ENCODING 63
SWIDTH 573 0
DWIDTH 47 0
BBX 40 58 1 0
BITMAP
0001FFE000
001FFFFE00
00FFFFFF80
03FFFFFFE0
07FFFFFFF0
1FFFFFFFF8
3FFFFFFFFC
7FFE007FFC
FFF0000FFE
FFC00007FE
3F800003FF
1E000001FF
0C000001FF
00000000FF
00000000FF
00000000FF
00000000FF
00000000FF
00000000FF
00000001FF
00000001FE
00000003FE
00000007FC
0000000FFC
0000001FF8
0000003FF0
0000007FE0
000000FFC0
000001FF80
000003FF00
000007FE00
00000FFC00
00000FF800
00001FF000
00001FE000
00003FE000
00003FC000
00003FC000
00003FC000
00003FC000
0000000000
0000000000
0000000000
0000000000
0000000000
0000000000
0000000000
0000000000
00000F0000
00003FC000
00007FC000
00007FE000
00007FE000
00007FE000
00007FE000
00007FE000
00003FC000
00001F8000
ENDCHAR
STARTCHAR 0040
ENCODING 64
SWIDTH 1036 0
DWIDTH 85 0
BBX 77 75 4 -17
BITMAP
00000000FFF800000000
0000001FFFFFC0000000
000000FFFFFFFC000000
000007FFFFFFFF000000
00001FFFFFFFFFC00000
00007FFFF8FFFFF00000
0000FFFC0000FFFC0000
0003FFC000000FFE0000
0007FF00000003FF0000
000FFC00000000FFC000
001FF0000000003FE000
003FC0000000001FF000
007F800000000007F000
00FF000000000003F800
01FE000000000001FC00
03FC000000000000FE00
03F80000000000007E00
07F00003FFE00FE07F00
0FE0000FFFFC0FE03F80
0FE0003FFFFF0FE01F80
1FC0007FFFFF8FE01FC0
1FC001FFFFFFCFE00FC0
1F8003FFFFFFEFE00FC0
3F8007FF801FFFE007E0
3F0007FE0007FFE007E0
3F000FF80001FFE003E0
7E001FF00000FFE003F0
7E001FE000007FE003F0
7E003FC000007FE003F0
7E003FC000003FE001F0
FE003F8000001FE001F0
FC007F8000001FE001F8
FC007F8000001FE001F8
FC007F0000000FE001F8
FC007F0000000FE001F8
FC007F0000000FE001F8
FC007F0000000FE001F8
FC007F0000000FE001F8
FC007F0000000FE001F8
FC007F0000000FE001F8
FC007F0000000FE001F8
FC007F0000000FE001F8
FC007F8000001FE001F0
FC007F8000001FE001F0
7E003F8000001FE003F0
7E003FC000003FE003F0
7E003FE000007FE003F0
7E001FE000007FE003E0
7F001FF00000FFE007E0
3F000FFC0003FFE00FE0
3F0007FE0007FFF00FC0
3F8003FFC03FF7F83FC0
1F8003FFFFFFE7FFFF80
1FC001FFFFFFC7FFFF00
0FC0007FFFFF83FFFE00
0FE0003FFFFF01FFFC00
07F0000FFFFC00FFF800
07F00003FFE0007FE000
03F80000000000000000
01FC0000000000000000
01FE0000000000000000
00FF0000000000000000
007F8000000000000000
003FE000000000000000
001FF000000000000000
000FFC00000002000000
0007FF0000000C000000
0001FFE000007E000000
0000FFFE0007FE000000
00003FFFFFFFFF000000
00000FFFFFFFFF000000
000003FFFFFFFC000000
0000007FFFFFF0000000
0000000FFFFF00000000
00000000070000000000
ENDCHAR
STARTCHAR 0041
ENCODING 65
SWIDTH 731 0
DWIDTH 60 0
BBX 60 57 0 0
BITMAP
0000007FC0000000
0000007FE0000000
0000007FE0000000
000000FFF0000000
000000FFF0000000
000001FFF8000000
000001FFF8000000
000003FFFC000000
000003FFFC000000
000007F9FE000000
000007F9FE000000
00000FF0FE000000
00000FF0FF000000
00000FE0FF000000
00001FE07F800000
00001FE07F800000
00003FC03FC00000
00003FC03FC00000
00007F801FE00000
00007F801FE00000
0000FF001FF00000
0000FF000FF00000
0000FF000FF00000
0001FE0007F80000
0001FE0007F80000
0003FC0003FC0000
0003FC0003FC0000
0007F80001FE0000
0007F80001FE0000
000FF00001FF0000
000FF00000FF0000
001FF00000FF8000
001FE000007F8000
001FE000007F8000
003FC000003FC000
003FC000003FC000
007FFFFFFFFFE000
007FFFFFFFFFE000
00FFFFFFFFFFF000
00FFFFFFFFFFF000
01FFFFFFFFFFF800
01FFFFFFFFFFF800
03FFFFFFFFFFFC00
03FC00000003FC00
03FC00000003FC00
07F800000003FE00
07F800000001FE00
0FF800000001FF00
0FF000000000FF00
1FF000000000FF80
1FE0000000007F80
3FE0000000007FC0
3FC0000000003FC0
7FC0000000003FE0
7F80000000003FE0
7F80000000001FE0
FF80000000001FF0
ENDCHAR
STARTCHAR 0042
ENCODING 66
SWIDTH 756 0
DWIDTH 62 0
BBX 49 57 9 0
BITMAP
FFFFFFFFC00000
FFFFFFFFF80000
FFFFFFFFFE0000
FFFFFFFFFF0000
FFFFFFFFFFC000
FFFFFFFFFFE000
FF00000FFFE000
FF000000FFF000
FF0000003FF800
FF0000001FF800
FF0000000FF800
FF00000007FC00
FF00000007FC00
FF00000003FC00
FF00000003FC00
FF00000003FC00
FF00000003FC00
FF00000003FC00
FF00000007F800
FF00000007F800
FF0000000FF800
FF0000001FF000
FF0000003FF000
FF000000FFE000
FF00001FFFC000
FFFFFFFFFF8000
FFFFFFFFFF0000
FFFFFFFFFE0000
FFFFFFFFFF8000
FFFFFFFFFFE000
FFFFFFFFFFF000
FF000003FFF800
FF0000001FFC00
FF00000007FE00
FF00000003FE00
FF00000001FF00
FF00000000FF00
FF00000000FF80
FF00000000FF80
FF000000007F80
FF000000007F80
FF000000007F80
FF000000007F80
FF00000000FF80
FF00000000FF80
FF00000000FF00
FF00000001FF00
FF00000003FF00
FF0000000FFE00
FF0000003FFE00
FFFFFFFFFFFC00
FFFFFFFFFFF800
FFFFFFFFFFF000
FFFFFFFFFFE000
FFFFFFFFFF8000
FFFFFFFFFC0000
FFFFFFFFC00000
ENDCHAR
STARTCHAR 0043
ENCODING 67
SWIDTH 719 0
DWIDTH 59 0
BBX 52 59 4 -1
BITMAP
000000FFF80000
00000FFFFF8000
00007FFFFFE000
0001FFFFFFF800
0003FFFFFFFE00
000FFFFFFFFF00
001FFFFFFFFFC0
007FFFF03FFFE0
00FFFE0003FFF0
01FFF000007FF0
01FFC000003FE0
03FF8000000F80
07FF0000000700
0FFE0000000200
0FFC0000000000
1FF80000000000
1FF00000000000
3FE00000000000
3FE00000000000
7FC00000000000
7FC00000000000
7F800000000000
7F800000000000
FF800000000000
FF800000000000
FF000000000000
FF000000000000
FF000000000000
FF000000000000
FF000000000000
FF000000000000
FF000000000000
FF000000000000
FF000000000000
FF800000000000
7F800000000000
7F800000000000
7FC00000000000
7FC00000000000
3FC00000000000
3FE00000000000
3FF00000000000
1FF00000000000
1FF80000000000
0FFC0000000200
07FE0000000300
07FF0000000780
03FF8000001FC0
01FFE000003FE0
00FFF80000FFF0
007FFF0007FFE0
003FFFFFFFFFC0
001FFFFFFFFF80
000FFFFFFFFF00
0003FFFFFFFC00
0000FFFFFFF800
00003FFFFFC000
000007FFFE0000
0000001FC00000
ENDCHAR
STARTCHAR 0044
ENCODING 68
SWIDTH 829 0
DWIDTH 68 0
BBX 55 57 9 0
BITMAP
FFFFFFFF000000
FFFFFFFFF00000
FFFFFFFFFC0000
FFFFFFFFFF8000
FFFFFFFFFFC000
FFFFFFFFFFF000
FFFFFFFFFFF800
FF000003FFFC00
FF0000003FFE00
FF0000000FFF00
FF00000007FF80
FF00000001FFC0
FF00000000FFC0
FF000000007FE0
FF000000003FF0
FF000000001FF0
FF000000001FF8
FF000000000FF8
FF0000000007F8
FF0000000007FC
FF0000000007FC
FF0000000003FC
FF0000000003FC
FF0000000003FC
FF0000000003FE
FF0000000003FE
FF0000000001FE
FF0000000001FE
FF0000000001FE
FF0000000001FE
FF0000000003FE
FF0000000003FE
FF0000000003FE
FF0000000003FC
FF0000000003FC
FF0000000007FC
FF0000000007FC
FF0000000007F8
FF000000000FF8
FF000000000FF8
FF000000001FF0
FF000000003FF0
FF000000003FE0
FF000000007FE0
FF00000000FFC0
FF00000003FF80
FF00000007FF80
FF0000001FFF00
FF000000FFFE00
FF00000FFFFC00
FFFFFFFFFFF800
FFFFFFFFFFE000
FFFFFFFFFFC000
FFFFFFFFFF0000
FFFFFFFFFC0000
FFFFFFFFE00000
FFFFFFFC000000
ENDCHAR
STARTCHAR 0045
ENCODING 69
SWIDTH 670 0
DWIDTH 55 0
BBX 41 57 9 0
BITMAP
FFFFFFFFFF00
FFFFFFFFFF00
FFFFFFFFFF00
FFFFFFFFFF00
FFFFFFFFFF00
FFFFFFFFFF00
FFFFFFFFFF00
FF0000000000
FF0000000000
FF0000000000
FF0000000000
FF0000000000
FF0000000000
FF0000000000
FF0000000000
FF0000000000
FF0000000000
FF0000000000
FF0000000000
FF0000000000
FF0000000000
FF0000000000
FF0000000000
FF0000000000
FFFFFFFFF800
FFFFFFFFF800
FFFFFFFFF800
FFFFFFFFF800
FFFFFFFFF800
FFFFFFFFF800
FFFFFFFFF800
FF0000000000
FF0000000000
FF0000000000
FF0000000000
FF0000000000
FF0000000000
FF0000000000
FF0000000000
FF0000000000
FF0000000000
FF0000000000
FF0000000000
FF0000000000
FF0000000000
FF0000000000
FF0000000000
FF0000000000
FF0000000000
FF0000000000
FFFFFFFFFF80
FFFFFFFFFF80
FFFFFFFFFF80
FFFFFFFFFF80
FFFFFFFFFF80
FFFFFFFFFF80
FFFFFFFFFF80
ENDCHAR
STARTCHAR 0046
ENCODING 70
SWIDTH 634 0
DWIDTH 52 0
BBX 40 57 9 0
BITMAP
FFFFFFFFFF
FFFFFFFFFF
FFFFFFFFFF
FFFFFFFFFF
FFFFFFFFFF
FFFFFFFFFF
FFFFFFFFFF
FF00000000
FF00000000
FF00000000
FF00000000
FF00000000
FF00000000
FF00000000
FF00000000
FF00000000
FF00000000
FF00000000
FF00000000
FF00000000
FF00000000
FF00000000
FF00000000
FF00000000
FF00000000
FF00000000
FF00000000
FFFFFFFFF8
FFFFFFFFF8
FFFFFFFFF8
FFFFFFFFF8
FFFFFFFFF8
FFFFFFFFF8
FFFFFFFFF8
FF00000000
FF00000000
FF00000000
FF00000000
FF00000000
FF00000000
FF00000000
FF00000000
FF00000000
FF00000000
FF00000000
FF00000000
FF00000000
FF00000000
FF00000000
FF00000000
FF00000000
FF00000000
FF00000000
FF00000000
FF00000000
FF00000000
FF00000000
ENDCHAR
STARTCHAR 0047
ENCODING 71
SWIDTH 768 0
DWIDTH 63 0
BBX 53 59 4 -1
BITMAP
000000FFF80000
00000FFFFF8000
00007FFFFFF000
0001FFFFFFFC00
0003FFFFFFFF00
000FFFFFFFFF80
001FFFFFFFFFC0
003FFFF03FFFE0
00FFFE0001FFF8
01FFF000007FF0
01FFE000001FE0
03FF80000007C0
07FF0000000380
0FFE0000000100
0FFC0000000000
1FF80000000000
1FF00000000000
3FE00000000000
3FE00000000000
7FC00000000000
7FC00000000000
7F800000000000
7F800000000000
FF800000000000
FF800000000000
FF000000000000
FF000000000000
FF000000000000
FF000000000000
FF000000000FF0
FF000000000FF0
FF000000000FF0
FF000000000FF0
FF000000000FF0
FF800000000FF0
7F800000000FF0
7F800000000FF0
7FC00000000FF0
7FC00000000FF0
3FC00000000FF0
3FE00000000FF0
3FF00000000FF0
1FF00000000FF0
1FF80000000FF0
0FFC0000000FF0
07FE0000000FF0
07FF0000000FF0
03FFC000000FF0
01FFE000001FF0
00FFF800007FF0
007FFF0003FFF0
003FFFFFFFFFF0
001FFFFFFFFFE0
000FFFFFFFFF80
0003FFFFFFFF00
0000FFFFFFFC00
00003FFFFFE000
000007FFFF0000
0000001F800000
ENDCHAR
STARTCHAR 0048
ENCODING 72
SWIDTH 817 0
DWIDTH 67 0
BBX 49 57 9 0
BITMAP
FF000000007F80
FF000000007F80
FF000000007F80
FF000000007F80
FF000000007F80
FF000000007F80
FF000000007F80
FF000000007F80
FF000000007F80
FF000000007F80
FF000000007F80
FF000000007F80
FF000000007F80
FF000000007F80
FF000000007F80
FF000000007F80
FF000000007F80
FF000000007F80
FF000000007F80
FF000000007F80
FF000000007F80
FF000000007F80
FF000000007F80
FF000000007F80
FFFFFFFFFFFF80
FFFFFFFFFFFF80
FFFFFFFFFFFF80
FFFFFFFFFFFF80
FFFFFFFFFFFF80
FFFFFFFFFFFF80
FFFFFFFFFFFF80
FF000000007F80
FF000000007F80
FF000000007F80
FF000000007F80
FF000000007F80
FF000000007F80
FF000000007F80
FF000000007F80
FF000000007F80
FF000000007F80
FF000000007F80
FF000000007F80
FF000000007F80
FF000000007F80
FF000000007F80
FF000000007F80
FF000000007F80
FF000000007F80
FF000000007F80
FF000000007F80
FF000000007F80
FF000000007F80
FF000000007F80
FF000000007F80
FF000000007F80
FF000000007F80
ENDCHAR
STARTCHAR 0049
ENCODING 73
SWIDTH 304 0
DWIDTH 25 0
BBX 8 57 9 0
BITMAP
FF
FF
FF
FF
FF
FF
FF
FF
FF
FF
FF
FF
FF
FF
FF
FF
FF
FF
FF
FF
FF
FF
FF
FF
FF
FF
FF
FF
FF
FF
FF
FF
FF
FF
FF
FF
FF
FF
FF
FF
FF
FF
FF
FF
FF
FF
FF
FF
FF
FF
FF
FF
FF
FF
FF
FF
FF
ENDCHAR
STARTCHAR 004A
ENCODING 74
SWIDTH 512 0
DWIDTH 42 0
BBX 35 58 -1 -1
BITMAP
03FFFFFFE0
03FFFFFFE0
03FFFFFFE0
03FFFFFFE0
03FFFFFFE0
03FFFFFFE0
03FFFFFFE0
0000001FE0
0000001FE0
0000001FE0
0000001FE0
0000001FE0
0000001FE0
0000001FE0
0000001FE0
0000001FE0
0000001FE0
0000001FE0
0000001FE0
0000001FE0
0000001FE0
0000001FE0
0000001FE0
0000001FE0
0000001FE0
0000001FE0
0000001FE0
0000001FE0
0000001FE0
0000001FE0
0000001FE0
0000001FE0
0000001FE0
0000001FE0
0000001FE0
0000001FE0
0000001FE0
0000001FE0
0000001FE0
0000001FE0
0000001FE0
0000001FE0
0000001FE0
0000003FE0
0C00003FC0
0C00003FC0
1E00007FC0
3F00007FC0
7FC000FF80
FFF003FF80
7FFF3FFF00
3FFFFFFF00
1FFFFFFE00
0FFFFFFC00
03FFFFF800
01FFFFE000
003FFF8000
0003E00000
ENDCHAR
STARTCHAR 004B
ENCODING 75
SWIDTH 719 0
DWIDTH 59 0
BBX 50 57 9 0
BITMAP
FF00000003FF00
FF00000007FE00
FF0000000FFC00
FF0000001FF800
FF0000003FF000
FF0000007FE000
FF000000FFC000
FF000001FF8000
FF000003FF0000
FF000007FE0000
FF00000FFC0000
FF00001FF80000
FF00003FF00000
FF00007FE00000
FF0000FFC00000
FF0000FF800000
FF0001FF000000
FF0003FE000000
FF0007FC000000
FF000FF8000000
FF001FF8000000
FF003FF0000000
FF007FE0000000
FF00FFC0000000
FF01FF80000000
FF03FF00000000
FF07FF80000000
FF0FFF80000000
FF1FFFC0000000
FF3FFFE0000000
FF7FFFF0000000
FFFFFFF8000000
FFFF9FFC000000
FFFF0FFC000000
FFFE07FE000000
FFFC03FF000000
FFF801FF800000
FFF000FFC00000
FFE000FFE00000
FFC0007FE00000
FF80003FF00000
FF00001FF80000
FF00000FFC0000
FF000007FE0000
FF000003FF0000
FF000003FF0000
FF000001FF8000
FF000000FFC000
FF0000007FE000
FF0000003FF000
FF0000001FF000
FF0000000FF800
FF0000000FFC00
FF00000007FE00
FF00000003FF00
FF00000001FF80
FF00000000FFC0
ENDCHAR
STARTCHAR 004C
ENCODING 76
SWIDTH 597 0
DWIDTH 49 0
BBX 39 57 9 0
BITMAP
FF00000000
FF00000000
FF00000000
FF00000000
FF00000000
FF00000000
FF00000000
FF00000000
FF00000000
FF00000000
FF00000000
FF00000000
FF00000000
FF00000000
FF00000000
FF00000000
FF00000000
FF00000000
FF00000000
FF00000000
FF00000000
FF00000000
FF00000000
FF00000000
FF00000000
FF00000000
FF00000000
FF00000000
FF00000000
FF00000000
FF00000000
FF00000000
FF00000000
FF00000000
FF00000000
FF00000000
FF00000000
FF00000000
FF00000000
FF00000000
FF00000000
FF00000000
FF00000000
FF00000000
FF00000000
FF00000000
FF00000000
FF00000000
FF00000000
FF00000000
FFFFFFFFFE
FFFFFFFFFE
FFFFFFFFFE
FFFFFFFFFE
FFFFFFFFFE
FFFFFFFFFE
FFFFFFFFFE
ENDCHAR
STARTCHAR 004D
ENCODING 77
SWIDTH 951 0
DWIDTH 78 0
BBX 61 57 9 0
BITMAP
FE000000000007F8
FE000000000007F8
FF00000000000FF8
FF80000000000FF8
FF80000000001FF8
FFC0000000003FF8
FFC0000000003FF8
FFE0000000007FF8
FFF0000000007FF8
FFF000000000FFF8
FFF800000001FFF8
FFF800000001FFF8
FFFC00000003FFF8
FFFE00000003FFF8
FFFE00000007FFF8
FEFF00000007FFF8
FEFF0000000FF7F8
FE7F8000001FE7F8
FE7FC000001FE7F8
FE3FC000003FC7F8
FE1FE000003FC7F8
FE1FE000007F87F8
FE0FF00000FF07F8
FE0FF80000FF07F8
FE07F80001FE07F8
FE03FC0001FE07F8
FE03FC0003FC07F8
FE01FE0003F807F8
FE01FE0007F807F8
FE00FF000FF007F8
FE007F800FF007F8
FE007F801FE007F8
FE003FC01FC007F8
FE003FC03FC007F8
FE001FE07F8007F8
FE000FF07F8007F8
FE000FF0FF0007F8
FE0007F8FE0007F8
FE0007F9FE0007F8
FE0003FFFC0007F8
FE0001FFFC0007F8
FE0001FFF80007F8
FE0000FFF00007F8
FE0000FFF00007F8
FE00007FE00007F8
FE00003FE00007F8
FE00003FC00007F8
FE00001FC00007F8
FE00001F800007F8
FE00000F000007F8
FE000000000007F8
FE000000000007F8
FE000000000007F8
FE000000000007F8
FE000000000007F8
FE000000000007F8
FE000000000007F8
ENDCHAR
STARTCHAR 004E
ENCODING 78
SWIDTH 817 0
DWIDTH 67 0
BBX 49 57 9 0
BITMAP
FE000000007F80
FF000000007F80
FF800000007F80
FF800000007F80
FFC00000007F80
FFE00000007F80
FFF00000007F80
FFF80000007F80
FFFC0000007F80
FFFC0000007F80
FFFE0000007F80
FFFF0000007F80
FFFF8000007F80
FFFFC000007F80
FFFFC000007F80
FF7FE000007F80
FF3FF000007F80
FF3FF800007F80
FF1FFC00007F80
FF0FFC00007F80
FF07FE00007F80
FF03FF00007F80
FF03FF80007F80
FF01FFC0007F80
FF00FFC0007F80
FF007FE0007F80
FF003FF0007F80
FF003FF8007F80
FF001FFC007F80
FF000FFC007F80
FF0007FE007F80
FF0003FF007F80
FF0001FF807F80
FF0001FFC07F80
FF0000FFC07F80
FF00007FE07F80
FF00003FF07F80
FF00001FF87F80
FF00001FFC7F80
FF00000FFC7F80
FF000007FE7F80
FF000003FF7F80
FF000001FFFF80
FF000001FFFF80
FF000000FFFF80
FF0000007FFF80
FF0000003FFF80
FF0000001FFF80
FF0000001FFF80
FF0000000FFF80
FF00000007FF80
FF00000003FF80
FF00000001FF80
FF00000001FF80
FF00000000FF80
FF000000007F80
FF000000003F80
ENDCHAR
STARTCHAR 004F
ENCODING 79
SWIDTH 841 0
DWIDTH 69 0
BBX 61 59 4 -1
BITMAP
000000FFF8000000
00000FFFFF800000
00007FFFFFE00000
0001FFFFFFFC0000
0003FFFFFFFE0000
000FFFFFFFFF8000
001FFFFFFFFFC000
003FFFF07FFFE000
00FFFE0003FFF800
01FFF000007FF800
01FFC000001FFC00
03FF8000000FFE00
07FF00000007FF00
0FFE00000003FF80
0FFC00000001FF80
1FF800000000FFC0
1FF0000000007FC0
3FE0000000007FE0
3FE0000000003FE0
7FC0000000001FE0
7FC0000000001FF0
7F80000000001FF0
7F80000000000FF0
FF80000000000FF0
FF80000000000FF8
FF00000000000FF8
FF000000000007F8
FF000000000007F8
FF000000000007F8
FF000000000007F8
FF000000000007F8
FF000000000007F8
FF000000000007F8
FF00000000000FF8
FF80000000000FF8
7F80000000000FF0
7F80000000000FF0
7FC0000000001FF0
7FC0000000001FF0
3FC0000000003FE0
3FE0000000003FE0
3FF0000000007FC0
1FF0000000007FC0
1FF800000000FFC0
0FFC00000001FF80
07FE00000003FF00
07FF00000007FF00
03FF8000001FFE00
01FFE000003FFC00
00FFF80000FFF800
007FFF0007FFF000
003FFFFFFFFFE000
001FFFFFFFFFC000
0007FFFFFFFF0000
0003FFFFFFFE0000
0000FFFFFFF80000
00003FFFFFE00000
000007FFFF000000
0000001FC0000000
ENDCHAR
STARTCHAR 0050
ENCODING 80
SWIDTH 719 0
DWIDTH 59 0
BBX 46 57 9 0
BITMAP
FFFFFFFC0000
FFFFFFFFC000
FFFFFFFFF000
FFFFFFFFFC00
FFFFFFFFFE00
FFFFFFFFFF00
FFFFFFFFFF80
FF00000FFFC0
FF000001FFE0
FF0000007FE0
FF0000003FF0
FF0000001FF0
FF0000000FF8
FF0000000FF8
FF00000007F8
FF00000007FC
FF00000007FC
FF00000003FC
FF00000003FC
FF00000003FC
FF00000003FC
FF00000003FC
FF00000007FC
FF00000007FC
FF00000007F8
FF0000000FF8
FF0000000FF8
FF0000001FF8
FF0000003FF0
FF0000007FF0
FF000000FFE0
FF000007FFC0
FFFFFFFFFF80
FFFFFFFFFF00
FFFFFFFFFE00
FFFFFFFFFC00
FFFFFFFFF000
FFFFFFFFC000
FFFFFFFE0000
FFFFFF800000
FF0000000000
FF0000000000
FF0000000000
FF0000000000
FF0000000000
FF0000000000
FF0000000000
FF0000000000
FF0000000000
FF0000000000
FF0000000000
FF0000000000
FF0000000000
FF0000000000
FF0000000000
FF0000000000
FF0000000000
ENDCHAR
STARTCHAR 0051
ENCODING 81
SWIDTH 841 0
DWIDTH 69 0
BBX 64 70 4 -12
BITMAP
000000FFF8000000
00000FFFFF800000
00007FFFFFE00000
0001FFFFFFFC0000
0003FFFFFFFE0000
000FFFFFFFFF8000
001FFFFFFFFFC000
003FFFF07FFFE000
00FFFE0003FFF800
01FFF000007FF800
01FFC000001FFC00
03FF8000000FFE00
07FF00000007FF00
0FFE00000003FF80
0FFC00000001FF80
1FF800000000FFC0
1FF0000000007FC0
3FE0000000007FE0
3FE0000000003FE0
7FC0000000001FE0
7FC0000000001FF0
7F80000000001FF0
7F80000000000FF0
FF80000000000FF0
FF80000000000FF8
FF00000000000FF8
FF000000000007F8
FF000000000007F8
FF000000000007F8
FF000000000007F8
FF000000000007F8
FF000000000007F8
FF000000000007F8
FF00000000000FF8
FF80000000000FF8
7F80000000000FF0
7F80000000000FF0
7FC0000000001FF0
7FC0000000001FF0
3FC0000000003FE0
3FE0000000003FE0
3FF0000000007FC0
1FF0000000007FC0
1FF800000000FFC0
0FFC00000001FF80
07FE00000003FF00
07FF00000007FF00
03FF8000001FFE00
01FFE000003FFC00
00FFF80000FFF800
007FFF0007FFF000
003FFFFFFFFFE000
001FFFFFFFFFC000
0007FFFFFFFF0000
0003FFFFFFFE0000
0000FFFFFFF80000
00003FFFFFE00000
000007FFFF000000
0000001FFE000000
00000007FF000018
00000003FF800038
00000001FFE0007C
00000000FFF801FE
000000003FFFFFFF
000000001FFFFFFE
000000000FFFFFFC
0000000003FFFFF0
0000000001FFFFE0
00000000007FFF80
000000000007FC00
ENDCHAR
STARTCHAR 0052
ENCODING 82
SWIDTH 731 0
DWIDTH 60 0
BBX 47 57 9 0
BITMAP
FFFFFFFC0000
FFFFFFFFC000
FFFFFFFFF000
FFFFFFFFFC00
FFFFFFFFFE00
FFFFFFFFFF00
FFFFFFFFFF80
FF00000FFFC0
FF000001FFE0
FF0000007FE0
FF0000003FF0
FF0000001FF0
FF0000000FF8
FF0000000FF8
FF00000007F8
FF00000007FC
FF00000007FC
FF00000003FC
FF00000003FC
FF00000003FC
FF00000003FC
FF00000003FC
FF00000007FC
FF00000007FC
FF00000007F8
FF0000000FF8
FF0000000FF8
FF0000001FF8
FF0000003FF0
FF0000007FF0
FF000000FFE0
FF000007FFC0
FF0001FFFF80
FFFFFFFFFF00
FFFFFFFFFE00
FFFFFFFFFC00
FFFFFFFFF000
FFFFFFFFC000
FFFFFFFFC000
FFFFFE3FE000
FF00003FE000
FF00001FF000
FF00000FF800
FF000007F800
FF000007FC00
FF000003FE00
FF000001FE00
FF000001FF00
FF000000FF80
FF0000007FC0
FF0000007FC0
FF0000003FE0
FF0000001FF0
FF0000000FF0
FF0000000FF8
FF00000007FC
FF00000003FE
ENDCHAR
STARTCHAR 0053
ENCODING 83
SWIDTH 621 0
DWIDTH 51 0
BBX 45 59 3 -1
BITMAP
00007FFC0000
0007FFFFC000
001FFFFFF800
007FFFFFFF00
01FFFFFFFF80
03FFFFFFFFC0
07FFFFFFFFC0
07FFC007FF80
0FFE00007F80
1FF800000F00
1FF000000300
3FE000000100
3FE000000000
3FC000000000
3FC000000000
3FC000000000
3FC000000000
3FC000000000
3FC000000000
3FE000000000
3FE000000000
3FF000000000
1FFC00000000
1FFF00000000
0FFFE0000000
07FFFE000000
03FFFFE00000
01FFFFFE0000
007FFFFFC000
001FFFFFF000
0007FFFFFC00
0000FFFFFE00
00000FFFFF80
000000FFFFC0
0000001FFFC0
00000003FFE0
00000000FFE0
000000003FF0
000000001FF0
000000000FF0
000000000FF0
000000000FF8
0000000007F8
000000000FF8
000000000FF0
100000000FF0
180000000FF0
3E0000001FF0
3F8000003FE0
7FE000007FE0
7FFC0001FFC0
FFFFF07FFF80
3FFFFFFFFF80
1FFFFFFFFE00
07FFFFFFFC00
01FFFFFFF800
007FFFFFE000
0007FFFF0000
00001FC00000
ENDCHAR
STARTCHAR 0054
ENCODING 84
SWIDTH 585 0
DWIDTH 48 0
BBX 48 57 0 0
BITMAP
FFFFFFFFFFFF
FFFFFFFFFFFF
FFFFFFFFFFFF
FFFFFFFFFFFF
FFFFFFFFFFFF
FFFFFFFFFFFF
FFFFFFFFFFFF
00000FF00000
00000FF00000
00000FF00000
00000FF00000
00000FF00000
00000FF00000
00000FF00000
00000FF00000
00000FF00000
00000FF00000
00000FF00000
00000FF00000
00000FF00000
00000FF00000
00000FF00000
00000FF00000
00000FF00000
00000FF00000
00000FF00000
00000FF00000
00000FF00000
00000FF00000
00000FF00000
00000FF00000
00000FF00000
00000FF00000
00000FF00000
00000FF00000
00000FF00000
00000FF00000
00000FF00000
00000FF00000
00000FF00000
00000FF00000
00000FF00000
00000FF00000
00000FF00000
00000FF00000
00000FF00000
00000FF00000
00000FF00000
00000FF00000
00000FF00000
00000FF00000
00000FF00000
00000FF00000
00000FF00000
00000FF00000
00000FF00000
00000FF00000
ENDCHAR
STARTCHAR 0055
ENCODING 85
SWIDTH 792 0
DWIDTH 65 0
BBX 49 58 8 -1
BITMAP
FF000000007F80
FF000000007F80
FF000000007F80
FF000000007F80
FF000000007F80
FF000000007F80
FF000000007F80
FF000000007F80
FF000000007F80
FF000000007F80
FF000000007F80
FF000000007F80
FF000000007F80
FF000000007F80
FF000000007F80
FF000000007F80
FF000000007F80
FF000000007F80
FF000000007F80
FF000000007F80
FF000000007F80
FF000000007F80
FF000000007F80
FF000000007F80
FF000000007F80
FF000000007F80
FF000000007F80
FF000000007F80
FF000000007F80
FF000000007F80
FF000000007F80
FF000000007F80
FF000000007F80
FF000000007F80
FF000000007F80
FF000000007F80
FF80000000FF00
FF80000000FF00
7F80000000FF00
7F80000000FF00
7F80000000FF00
7FC0000001FF00
7FC0000001FE00
3FE0000003FE00
3FE0000003FE00
1FF0000007FC00
1FF800000FFC00
0FFC00001FF800
0FFF00007FF000
07FFC001FFF000
03FFFFFFFFE000
01FFFFFFFFC000
00FFFFFFFF8000
007FFFFFFE0000
001FFFFFFC0000
0007FFFFF00000
0000FFFF800000
000003E0000000
ENDCHAR
STARTCHAR 0056
ENCODING 86
SWIDTH 707 0
DWIDTH 58 0
BBX 58 57 0 0
BITMAP
FF80000000003FC0
7FC0000000007FC0
7FC0000000007F80
3FC0000000007F80
3FE000000000FF00
1FE000000000FF00
1FF000000001FE00
1FF000000001FE00
0FF800000003FE00
0FF800000003FC00
07FC00000007FC00
07FC00000007F800
03FC00000007F800
03FE0000000FF000
03FE0000000FF000
01FF0000001FF000
01FF0000001FE000
00FF8000003FE000
00FF8000003FC000
007F8000007FC000
007FC000007F8000
003FC000007F8000
003FE00000FF0000
003FE00000FF0000
001FF00001FF0000
001FF00001FE0000
000FF80003FE0000
000FF80003FC0000
0007F80007FC0000
0007FC0007F80000
0003FC0007F80000
0003FE000FF80000
0003FE000FF00000
0001FF001FF00000
0001FF001FE00000
0000FF003FE00000
0000FF803FC00000
00007F803FC00000
00007FC07F800000
00007FC07F800000
00003FE0FF800000
00003FE0FF000000
00001FF1FF000000
00001FF1FE000000
00000FF3FE000000
00000FFBFC000000
000007FBFC000000
000007FFF8000000
000007FFF8000000
000003FFF8000000
000003FFF0000000
000001FFF0000000
000001FFE0000000
000000FFE0000000
000000FFC0000000
0000007FC0000000
0000007FC0000000
ENDCHAR
STARTCHAR 0057
ENCODING 87
SWIDTH 1121 0
DWIDTH 92 0
BBX 87 57 3 0
BITMAP
FF00000001FF00000001FE
FF80000001FF00000003FC
7F80000001FF00000003FC
7F80000003FF80000003F8
7FC0000003FF80000007F8
3FC0000003FF80000007F8
3FC0000007FFC0000007F0
3FE0000007FFC000000FF0
1FE0000007FFC000000FF0
1FE000000FFFE000000FE0
1FF000000FFFE000001FE0
0FF000000FFFE000001FE0
0FF000001FEFF000001FC0
0FF800001FCFF000003FC0
07F800001FCFF000003FC0
07F800003FC7F800003F80
07FC00003F87F800007F80
03FC00003F87F800007F80
03FC00007F83FC00007F00
03FE00007F03FC0000FF00
01FE0000FF03FC0000FF00
01FE0000FF01FE0000FE00
01FF0000FE01FE0001FE00
00FF0001FE00FE0001FE00
00FF0001FE00FF0001FC00
00FF8001FC00FF0003FC00
007F8003FC007F0003FC00
007F8003FC007F8007F800
007FC003F8007F8007F800
003FC007F8003F8007F800
003FC007F8003FC00FF000
003FE007F0003FC00FF000
001FE00FF0001FC00FF000
001FE00FF0001FE01FE000
001FF00FE0001FE01FE000
000FF01FE0000FE01FE000
000FF01FE0000FF03FC000
000FF81FC0000FF03FC000
0007F83FC00007F03FC000
0007F83FC00007F87F8000
0007FC3F800007F87F8000
0003FC7F800003F87F8000
0003FC7F800003FCFF0000
0003FE7F000003FCFF0000
0001FEFF000001FCFF0000
0001FEFF000001FFFE0000
0001FFFE000001FFFE0000
0000FFFE000000FFFE0000
0000FFFE000000FFFC0000
0000FFFC000000FFFC0000
00007FFC0000007FFC0000
00007FF80000007FF80000
00007FF80000007FF80000
00003FF80000003FF80000
00003FF00000003FF00000
00003FF00000003FF00000
00001FF00000001FF00000
ENDCHAR
STARTCHAR 0058
ENCODING 88
SWIDTH 670 0
DWIDTH 55 0
BBX 53 57 1 0
BITMAP
7FE00000003FF0
1FF00000007FC0
1FF80000007FC0
0FFC000000FF80
07FC000001FF00
03FE000003FE00
03FF000003FE00
01FF000007FC00
00FF80000FF800
007FC0000FF000
007FE0001FF000
003FE0003FE000
001FF0007FC000
001FF8007FC000
000FFC00FF8000
0007FC01FF0000
0003FE03FE0000
0003FF03FE0000
0001FF87FC0000
0000FF8FF80000
00007FCFF00000
00007FFFF00000
00003FFFE00000
00001FFFC00000
00001FFF800000
00000FFF800000
000007FF000000
000003FF000000
000007FF000000
00000FFF800000
00001FFFC00000
00001FFFC00000
00003FFFE00000
00007FDFF00000
00007FDFF80000
0000FF8FF80000
0001FF07FC0000
0003FF03FE0000
0003FE03FF0000
0007FC01FF0000
000FF800FF8000
001FF800FFC000
001FF0007FE000
003FE0003FE000
007FC0001FF000
00FFC0001FF800
00FF80000FF800
01FF000007FC00
03FF000003FE00
03FE000003FF00
07FC000001FF00
0FF8000000FF80
1FF8000000FFC0
1FF00000007FE0
3FE00000003FE0
7FE00000001FF0
FFC00000001FF8
ENDCHAR
STARTCHAR 0059
ENCODING 89
SWIDTH 646 0
DWIDTH 53 0
BBX 53 57 0 0
BITMAP
FF8000000007F8
7FC00000000FF0
7FC00000001FF0
3FE00000001FE0
1FE00000003FC0
1FF00000003FC0
0FF80000007F80
0FF8000000FF80
07FC000000FF00
03FC000001FE00
03FE000001FE00
01FF000003FC00
00FF000007FC00
00FF800007F800
007F80000FF000
007FC0000FF000
003FE0001FE000
001FE0003FE000
001FF0003FC000
000FF8007F8000
000FF8007F8000
0007FC00FF0000
0003FC01FE0000
0003FE01FE0000
0001FF03FC0000
0001FF07FC0000
0000FF87F80000
00007F8FF00000
00007FCFF00000
00003FFFE00000
00001FFFE00000
00001FFFC00000
00000FFF800000
00000FFF800000
000007FF000000
000003FF000000
000003FE000000
000003FE000000
000003FE000000
000003FE000000
000003FE000000
000003FE000000
000003FE000000
000003FE000000
000003FE000000
000003FE000000
000003FE000000
000003FE000000
000003FE000000
000003FE000000
000003FE000000
000003FE000000
000003FE000000
000003FE000000
000003FE000000
000003FE000000
000003FE000000
ENDCHAR
STARTCHAR 005A
ENCODING 90
SWIDTH 658 0
DWIDTH 54 0
BBX 48 57 4 0
BITMAP
FFFFFFFFFFFC
FFFFFFFFFFFC
FFFFFFFFFFFC
FFFFFFFFFFFC
FFFFFFFFFFFC
FFFFFFFFFFFC
FFFFFFFFFFF8
000000001FF8
000000003FF0
000000007FE0
000000007FC0
00000000FF80
00000001FF80
00000003FF00
00000007FE00
0000000FFC00
0000000FF800
0000001FF800
0000003FF000
0000007FE000
000000FFC000
000000FF8000
000001FF8000
000003FF0000
000007FE0000
00000FFC0000
00000FF80000
00001FF80000
00003FF00000
00007FE00000
0000FFC00000
0000FF800000
0001FF000000
0003FF000000
0007FE000000
000FFC000000
000FF8000000
001FF0000000
003FF0000000
007FE0000000
00FFC0000000
00FF80000000
01FF00000000
03FF00000000
07FE00000000
0FFC00000000
1FF800000000
1FF000000000
3FF000000000
7FE000000000
FFFFFFFFFFFF
FFFFFFFFFFFF
FFFFFFFFFFFF
FFFFFFFFFFFF
FFFFFFFFFFFF
FFFFFFFFFFFF
FFFFFFFFFFFF
ENDCHAR
STARTCHAR 005B
ENCODING 91
SWIDTH 329 0
DWIDTH 27 0
BBX 17 77 9 -16
BITMAP
FFFF80
FFFF80
FFFF80
FFFF80
FFFF80
FFFF80
FFFF80
FE0000
FE0000
FE0000
FE0000
FE0000
FE0000
FE0000
FE0000
FE0000
FE0000
FE0000
FE0000
FE0000
FE0000
FE0000
FE0000
FE0000
FE0000
FE0000
FE0000
FE0000
FE0000
FE0000
FE0000
FE0000
FE0000
FE0000
FE0000
FE0000
FE0000
FE0000
FE0000
FE0000
FE0000
FE0000
FE0000
FE0000
FE0000
FE0000
FE0000
FE0000
FE0000
FE0000
FE0000
FE0000
FE0000
FE0000
FE0000
FE0000
FE0000
FE0000
FE0000
FE0000
FE0000
FE0000
FE0000
FE0000
FE0000
FE0000
FE0000
FE0000
FE0000
FE0000
FFFF80
FFFF80
FFFF80
FFFF80
FFFF80
FFFF80
FFFF80
ENDCHAR
STARTCHAR 005C
ENCODING 92
SWIDTH 353 0
DWIDTH 29 0
BBX 34 77 -3 -8
BITMAP
FE00000000
FF00000000
7F00000000
7F00000000
7F80000000
3F80000000
3F80000000
1FC0000000
1FC0000000
1FC0000000
0FE0000000
0FE0000000
0FE0000000
07F0000000
07F0000000
07F0000000
03F8000000
03F8000000
03FC000000
01FC000000
01FC000000
01FE000000
00FE000000
00FE000000
00FF000000
007F000000
007F000000
003F800000
003F800000
003F800000
001FC00000
001FC00000
001FC00000
000FE00000
000FE00000
000FE00000
0007F00000
0007F00000
0007F80000
0003F80000
0003F80000
0003FC0000
0001FC0000
0001FC0000
0001FE0000
0000FE0000
0000FE0000
00007F0000
00007F0000
00007F0000
00003F8000
00003F8000
00003F8000
00001FC000
00001FC000
00001FC000
00000FE000
00000FE000
00000FF000
000007F000
000007F000
000007F800
000003F800
000003F800
000003FC00
000001FC00
000001FC00
000000FE00
000000FE00
000000FE00
0000007F00
0000007F00
0000007F00
0000003F80
0000003F80
0000003F80
0000001FC0
ENDCHAR
STARTCHAR 005D
ENCODING 93
SWIDTH 329 0
DWIDTH 27 0
BBX 17 77 2 -16
BITMAP
FFFF80
FFFF80
FFFF80
FFFF80
FFFF80
FFFF80
FFFF80
007F80
007F80
007F80
007F80
007F80
007F80
007F80
007F80
007F80
007F80
007F80
007F80
007F80
007F80
007F80
007F80
007F80
007F80
007F80
007F80
007F80
007F80
007F80
007F80
007F80
007F80
007F80
007F80
007F80
007F80
007F80
007F80
007F80
007F80
007F80
007F80
007F80
007F80
007F80
007F80
007F80
007F80
007F80
007F80
007F80
007F80
007F80
007F80
007F80
007F80
007F80
007F80
007F80
007F80
007F80
007F80
007F80
007F80
007F80
007F80
007F80
007F80
007F80
FFFF80
FFFF80
FFFF80
FFFF80
FFFF80
FFFF80
FFFF80
ENDCHAR
STARTCHAR 005E
ENCODING 94
SWIDTH 585 0
DWIDTH 48 0
BBX 36 34 6 12
BITMAP
0001F80000
0003FC0000
0003FC0000
0007FE0000
0007FE0000
000FFE0000
000FFF0000
000FFF0000
001F9F8000
001F9F8000
003F1FC000
003F0FC000
007F0FC000
007E07E000
007E07E000
00FC03F000
00FC03F000
01F803F800
01F801F800
03F801F800
03F000FC00
03F000FC00
07E000FE00
07E0007E00
0FE0007E00
0FC0003F00
1FC0003F00
1F80003F80
1F80001F80
3F00001FC0
3F00000FC0
7F00000FC0
7E000007E0
FE000007F0
ENDCHAR
STARTCHAR 005F
ENCODING 95
SWIDTH 500 0
DWIDTH 41 0
BBX 41 5 0 -5
BITMAP
FFFFFFFFFF80
FFFFFFFFFF80
FFFFFFFFFF80
FFFFFFFFFF80
FFFFFFFFFF80
ENDCHAR
STARTCHAR 0060
ENCODING 96
SWIDTH 597 0
DWIDTH 49 0
BBX 21 10 10 50
BITMAP
FFE000
3FF000
1FF800
07FC00
03FE00
01FF00
007F80
003FC0
001FE0
000FF8
ENDCHAR
STARTCHAR 0061
ENCODING 97
SWIDTH 597 0
DWIDTH 49 0
BBX 38 44 4 0
BITMAP
0003FF0000
003FFFF000
01FFFFFC00
07FFFFFF00
1FFFFFFF80
7FFFFFFFC0
3FFFFFFFE0
3FF801FFE0
1FC0007FF0
1F00001FF0
0C00000FF8
08000007F8
00000007F8
00000007FC
00000003FC
00000003FC
00000003FC
00000003FC
00000003FC
001FFFFFFC
00FFFFFFFC
03FFFFFFFC
0FFFFFFFFC
1FFFFFFFFC
3FFFFFFFFC
3FF00003FC
7FC00003FC
7F800003FC
FF800003FC
FF000003FC
FF000003FC
FF000003FC
FF000007FC
FF00000FFC
FF80000FFC
7F80001FFC
7FC0007FFC
3FF001FFFC
3FFFFFFFFC
1FFFFFFFFC
0FFFFFFBFC
07FFFFE3FC
01FFFFC3FC
007FFE03FC
ENDCHAR
STARTCHAR 0062
ENCODING 98
SWIDTH 682 0
DWIDTH 56 0
BBX 45 61 7 0
BITMAP
FF0000000000
FF0000000000
FF0000000000
FF0000000000
FF0000000000
FF0000000000
FF0000000000
FF0000000000
FF0000000000
FF0000000000
FF0000000000
FF0000000000
FF0000000000
FF0000000000
FF0000000000
FF0000000000
FF0000000000
FF000FF00000
FF00FFFF0000
FF03FFFFC000
FF0FFFFFF000
FF1FFFFFF800
FF3FFFFFFC00
FF7FFFFFFE00
FFFFE01FFF00
FFFF0003FF80
FFFE0001FFC0
FFF800007FC0
FFF000003FE0
FFE000003FF0
FFE000001FF0
FFC000000FF0
FFC000000FF8
FF80000007F8
FF80000007F8
FF80000007F8
FF00000007F8
FF00000007F8
FF00000003F8
FF00000003F8
FF00000007F8
FF00000007F8
FF00000007F8
FF80000007F8
FF80000007F8
FF8000000FF8
FFC000000FF0
FFC000001FF0
FFE000001FF0
FFF000003FE0
FFF800007FE0
FFFC0000FFC0
FFFE0001FFC0
FFFF8007FF80
FFFFFCFFFF00
FF7FFFFFFE00
FF3FFFFFFC00
FF1FFFFFF800
FF07FFFFE000
FF03FFFF8000
FF007FFE0000
ENDCHAR
STARTCHAR 0063
ENCODING 99
SWIDTH 573 0
DWIDTH 47 0
BBX 41 44 3 0
BITMAP
00001FF00000
0001FFFF0000
000FFFFFC000
001FFFFFF000
007FFFFFF800
00FFFFFFFC00
01FFFFFFFE00
03FFE01FFF00
07FF0003FF80
0FFE0000FF80
0FF800007E00
1FF000003C00
3FF000001000
3FE000000000
3FC000000000
7FC000000000
7F8000000000
7F8000000000
7F8000000000
7F8000000000
FF0000000000
FF0000000000
FF0000000000
FF0000000000
7F0000000000
7F8000000000
7F8000000000
7F8000000000
7F8000000000
7FC000000000
3FC000000000
3FE000001000
1FF000003800
1FF800007E00
0FFC0000FF00
07FE0001FF80
07FF8007FF00
03FFFCFFFF00
01FFFFFFFE00
00FFFFFFFC00
003FFFFFF000
001FFFFFE000
0007FFFF8000
0000FFFC0000
ENDCHAR
STARTCHAR 0064
ENCODING 100
SWIDTH 682 0
DWIDTH 56 0
BBX 45 61 3 0
BITMAP
0000000003F8
0000000003F8
0000000003F8
0000000003F8
0000000003F8
0000000003F8
0000000003F8
0000000003F8
0000000003F8
0000000003F8
0000000003F8
0000000003F8
0000000003F8
0000000003F8
0000000003F8
0000000003F8
0000000003F8
00003FC003F8
0003FFFC03F8
000FFFFF03F8
003FFFFFC3F8
007FFFFFE3F8
01FFFFFFF3F8
03FFFFFFFBF8
03FFE01FFFF8
07FF0003FFF8
0FFE0001FFF8
1FF800007FF8
1FF000003FF8
3FF000001FF8
3FE000001FF8
3FC000000FF8
7FC000000FF8
7F80000007F8
7F80000007F8
7F80000007F8
7F80000007F8
FF00000003F8
FF00000003F8
FF00000003F8
FF00000003F8
7F80000003F8
7F80000007F8
7F80000007F8
7F80000007F8
7F80000007F8
7FC000000FF8
3FC000000FF8
3FE000001FF8
1FF000003FF8
1FF800007FF8
0FFC0000FFF8
0FFE0001FFF8
07FF8007FFF8
03FFFCFFFFF8
01FFFFFFFBF8
00FFFFFFF3F8
007FFFFFE3F8
001FFFFF83F8
0007FFFF03F8
0001FFF803F8
ENDCHAR
STARTCHAR 0065
ENCODING 101
SWIDTH 609 0
DWIDTH 50 0
BBX 44 44 3 0
BITMAP
00003FE00000
0003FFFC0000
000FFFFF8000
003FFFFFC000
007FFFFFF000
00FFFFFFF800
03FFFFFFFC00
03FFC01FFE00
07FE0007FF00
0FFC0001FF00
1FF00000FF80
1FF000007F80
3FE000003FC0
3FC000003FC0
3FC000001FE0
7F8000001FE0
7F8000000FE0
7F8000000FE0
7F0000000FE0
7FFFFFFFFFF0
FFFFFFFFFFF0
FFFFFFFFFFF0
FFFFFFFFFFF0
FFFFFFFFFFF0
7FFFFFFFFFF0
7F0000000000
7F8000000000
7F8000000000
7F8000000000
7FC000000000
3FC000000000
3FE000000000
1FF000000800
1FF800001C00
0FFC00003C00
0FFE00007E00
07FF8001FF00
03FFFE7FFF80
01FFFFFFFF00
00FFFFFFFE00
003FFFFFFC00
001FFFFFF000
0007FFFFC000
0000FFFE0000
ENDCHAR
STARTCHAR 0066
ENCODING 102
SWIDTH 353 0
DWIDTH 29 0
BBX 31 61 1 0
BITMAP
0000FFF0
0003FFFC
000FFFFE
001FFFFC
003FFFFC
003FFFFC
007FF078
007FC018
00FF8000
00FF0000
00FF0000
00FF0000
00FE0000
00FE0000
00FE0000
00FE0000
00FE0000
00FE0000
FFFFFFF0
FFFFFFF0
FFFFFFF0
FFFFFFF0
FFFFFFF0
FFFFFFF0
00FE0000
00FE0000
00FE0000
00FE0000
00FE0000
00FE0000
00FE0000
00FE0000
00FE0000
00FE0000
00FE0000
00FE0000
00FE0000
00FE0000
00FE0000
00FE0000
00FE0000
00FE0000
00FE0000
00FE0000
00FE0000
00FE0000
00FE0000
00FE0000
00FE0000
00FE0000
00FE0000
00FE0000
00FE0000
00FE0000
00FE0000
00FE0000
00FE0000
00FE0000
00FE0000
00FE0000
00FE0000
ENDCHAR
STARTCHAR 0067
ENCODING 103
SWIDTH 695 0
DWIDTH 57 0
BBX 46 60 3 -16
BITMAP
00003FE00000
0003FFFE01FC
000FFFFF81FC
003FFFFFE1FC
00FFFFFFF1FC
01FFFFFFF9FC
03FFFFFFFDFC
07FFE00FFFFC
0FFF0001FFFC
0FFC0000FFFC
1FF800003FFC
1FF000001FFC
3FE000000FFC
3FC000000FFC
7FC0000007FC
7F80000007FC
7F80000003FC
7F80000003FC
7F80000003FC
FF00000003FC
FF00000003FC
FF00000003FC
FF00000003FC
7F80000003FC
7F80000003FC
7F80000003FC
7F80000007FC
7FC0000007FC
3FC000000FFC
3FE000000FFC
3FF000001FFC
1FF800003FFC
0FFC00007FFC
0FFF0001FFFC
07FFC007FFFC
03FFFFFFFFFC
01FFFFFFFBFC
00FFFFFFF3FC
007FFFFFE3FC
001FFFFF83FC
0007FFFE03FC
0000FFF003FC
0000000003FC
0000000003FC
0000000007FC
0000000007F8
0000000007F8
000000000FF8
020000000FF0
078000001FF0
07C000003FF0
0FF80000FFE0
0FFF0003FFC0
1FFFFFFFFFC0
1FFFFFFFFF80
07FFFFFFFF00
03FFFFFFFC00
00FFFFFFF800
001FFFFFE000
0001FFFF0000
ENDCHAR
STARTCHAR 0068
ENCODING 104
SWIDTH 682 0
DWIDTH 56 0
BBX 42 61 7 0
BITMAP
FF0000000000
FF0000000000
FF0000000000
FF0000000000
FF0000000000
FF0000000000
FF0000000000
FF0000000000
FF0000000000
FF0000000000
FF0000000000
FF0000000000
FF0000000000
FF0000000000
FF0000000000
FF0000000000
FF0000000000
FF001FF00000
FF00FFFE0000
FF07FFFFC000
FF0FFFFFE000
FF3FFFFFF000
FF7FFFFFF800
FFFFFFFFFC00
FFFFE07FFE00
FFFF000FFE00
FFFC0003FF00
FFF00001FF00
FFE00000FF80
FFE00000FF80
FFC000007F80
FFC000007F80
FF8000007F80
FF8000003FC0
FF8000003FC0
FF8000003FC0
FF0000003FC0
FF0000003FC0
FF0000003FC0
FF0000003FC0
FF0000003FC0
FF0000003FC0
FF0000003FC0
FF0000003FC0
FF0000003FC0
FF0000003FC0
FF0000003FC0
FF0000003FC0
FF0000003FC0
FF0000003FC0
FF0000003FC0
FF0000003FC0
FF0000003FC0
FF0000003FC0
FF0000003FC0
FF0000003FC0
FF0000003FC0
FF0000003FC0
FF0000003FC0
FF0000003FC0
FF0000003FC0
ENDCHAR
STARTCHAR 0069
ENCODING 105
SWIDTH 280 0
DWIDTH 23 0
BBX 11 62 6 0
BITMAP
1F00
3FC0
7FC0
FFE0
FFE0
FFE0
FFE0
7FC0
3FC0
1F00
0000
0000
0000
0000
0000
0000
0000
0000
0000
7F80
7F80
7F80
7F80
7F80
7F80
7F80
7F80
7F80
7F80
7F80
7F80
7F80
7F80
7F80
7F80
7F80
7F80
7F80
7F80
7F80
7F80
7F80
7F80
7F80
7F80
7F80
7F80
7F80
7F80
7F80
7F80
7F80
7F80
7F80
7F80
7F80
7F80
7F80
7F80
7F80
7F80
7F80
ENDCHAR
STARTCHAR 006A
ENCODING 106
SWIDTH 280 0
DWIDTH 23 0
BBX 25 78 -8 -16
BITMAP
00007C00
0000FF00
0001FF00
0003FF80
0003FF80
0003FF80
0003FF80
0001FF00
0000FF00
00007C00
00000000
00000000
00000000
00000000
00000000
00000000
00000000
00000000
00000000
0000FF00
0000FF00
0000FF00
0000FF00
0000FF00
0000FF00
0000FF00
0000FF00
0000FF00
0000FF00
0000FF00
0000FF00
0000FF00
0000FF00
0000FF00
0000FF00
0000FF00
0000FF00
0000FF00
0000FF00
0000FF00
0000FF00
0000FF00
0000FF00
0000FF00
0000FF00
0000FF00
0000FF00
0000FF00
0000FF00
0000FF00
0000FF00
0000FF00
0000FF00
0000FF00
0000FF00
0000FF00
0000FF00
0000FF00
0000FF00
0000FF00
0000FF00
0000FF00
0000FF00
0000FF00
0000FF00
0000FF00
0000FF00
0001FE00
0001FE00
0003FE00
1007FE00
3E1FFC00
3FFFFC00
7FFFF800
7FFFF000
FFFFE000
3FFFC000
0FFF0000
ENDCHAR
STARTCHAR 006B
ENCODING 107
SWIDTH 621 0
DWIDTH 51 0
BBX 43 61 7 0
BITMAP
FF0000000000
FF0000000000
FF0000000000
FF0000000000
FF0000000000
FF0000000000
FF0000000000
FF0000000000
FF0000000000
FF0000000000
FF0000000000
FF0000000000
FF0000000000
FF0000000000
FF0000000000
FF0000000000
FF0000000000
FF0000000040
FF000001FF80
FF000003FF00
FF000007FE00
FF00000FFC00
FF00001FF800
FF00003FF000
FF0000FFC000
FF0001FF8000
FF0003FF0000
FF0007FE0000
FF000FFC0000
FF001FF80000
FF003FF00000
FF007FE00000
FF00FFC00000
FF01FF800000
FF07FF000000
FF0FFE000000
FF1FFF000000
FF3FFF800000
FF7FFFC00000
FFFFFFC00000
FFFFFFE00000
FFFFBFF00000
FFFE1FF80000
FFFC0FFC0000
FFF80FFC0000
FFF007FE0000
FFE003FF0000
FFC001FF8000
FF8000FF8000
FF0000FFC000
FF00007FE000
FF00003FF000
FF00001FF800
FF00000FF800
FF00000FFC00
FF000007FE00
FF000003FF00
FF000001FF80
FF000000FF80
FF000000FFC0
FF0000007FE0
ENDCHAR
STARTCHAR 006C
ENCODING 108
SWIDTH 280 0
DWIDTH 23 0
BBX 8 61 7 0
BITMAP
FF
FF
FF
FF
FF
FF
FF
FF
FF
FF
FF
FF
FF
FF
FF
FF
FF
FF
FF
FF
FF
FF
FF
FF
FF
FF
FF
FF
FF
FF
FF
FF
FF
FF
FF
FF
FF
FF
FF
FF
FF
FF
FF
FF
FF
FF
FF
FF
FF
FF
FF
FF
FF
FF
FF
FF
FF
FF
FF
FF
FF
ENDCHAR
STARTCHAR 006D
ENCODING 109
SWIDTH 1060 0
DWIDTH 87 0
BBX 73 44 7 0
BITMAP
00001FE000001FE00000
FF01FFFC0001FFFE0000
FF07FFFF8007FFFF8000
FF0FFFFFC01FFFFFC000
FF3FFFFFE07FFFFFE000
FF7FFFFFF0FFFFFFF000
FFFFFFFFF9FFFFFFF800
FFFFE0FFFFFFE0FFFC00
FFFE001FFFFE001FFC00
FFFC0007FFFC0007FE00
FFF00003FFF00003FE00
FFE00001FFE00001FF00
FFE00001FFE00001FF00
FFC00000FFC00000FF00
FFC00000FFC00000FF00
FF800000FF800000FF00
FF800000FF800000FF80
FF800000FF8000007F80
FF8000007F8000007F80
FF0000007F8000007F80
FF0000007F8000007F80
FF0000007F0000007F80
FF0000007F0000007F80
FF0000007F0000007F80
FF0000007F0000007F80
FF0000007F0000007F80
FF0000007F0000007F80
FF0000007F0000007F80
FF0000007F0000007F80
FF0000007F0000007F80
FF0000007F0000007F80
FF0000007F0000007F80
FF0000007F0000007F80
FF0000007F0000007F80
FF0000007F0000007F80
FF0000007F0000007F80
FF0000007F0000007F80
FF0000007F0000007F80
FF0000007F0000007F80
FF0000007F0000007F80
FF0000007F0000007F80
FF0000007F0000007F80
FF0000007F0000007F80
FF0000007F0000007F80
ENDCHAR
STARTCHAR 006E
ENCODING 110
SWIDTH 682 0
DWIDTH 56 0
BBX 42 44 7 0
BITMAP
00001FF00000
FF00FFFE0000
FF07FFFFC000
FF0FFFFFE000
FF3FFFFFF000
FF7FFFFFF800
FFFFFFFFFC00
FFFFE07FFE00
FFFF000FFE00
FFFC0003FF00
FFF00001FF00
FFE00000FF80
FFE00000FF80
FFC000007F80
FFC000007F80
FF8000007F80
FF8000003FC0
FF8000003FC0
FF8000003FC0
FF0000003FC0
FF0000003FC0
FF0000003FC0
FF0000003FC0
FF0000003FC0
FF0000003FC0
FF0000003FC0
FF0000003FC0
FF0000003FC0
FF0000003FC0
FF0000003FC0
FF0000003FC0
FF0000003FC0
FF0000003FC0
FF0000003FC0
FF0000003FC0
FF0000003FC0
FF0000003FC0
FF0000003FC0
FF0000003FC0
FF0000003FC0
FF0000003FC0
FF0000003FC0
FF0000003FC0
FF0000003FC0
ENDCHAR
STARTCHAR 006F
ENCODING 111
SWIDTH 634 0
DWIDTH 52 0
BBX 46 44 3 0
BITMAP
00001FE00000
0001FFFE0000
000FFFFFC000
003FFFFFF000
007FFFFFF800
00FFFFFFFC00
01FFFFFFFE00
03FFE01FFF00
07FF0003FF80
0FFE0001FFC0
0FF800007FE0
1FF000003FE0
3FF000001FF0
3FE000001FF0
3FC000000FF0
7FC000000FF8
7F80000007F8
7F80000007F8
7F80000007F8
7F80000007F8
FF00000003FC
FF00000003FC
FF00000003FC
FF00000003FC
7F80000003FC
7F80000007F8
7F80000007F8
7F80000007F8
7F80000007F8
7FC000000FF8
3FC000000FF0
3FE000001FF0
1FF000003FE0
1FF800007FE0
0FFC0000FFC0
07FE0001FFC0
07FF8007FF80
03FFFCFFFF00
01FFFFFFFE00
00FFFFFFFC00
003FFFFFF000
001FFFFFE000
0007FFFF8000
0000FFFC0000
ENDCHAR
STARTCHAR 0070
ENCODING 112
SWIDTH 682 0
DWIDTH 56 0
BBX 45 60 7 -16
BITMAP
00000FF00000
FF00FFFF0000
FF03FFFFC000
FF0FFFFFF000
FF1FFFFFF800
FF3FFFFFFC00
FF7FFFFFFE00
FFFFE01FFF00
FFFF0003FF80
FFFE0001FFC0
FFF800007FC0
FFF000003FE0
FFE000003FF0
FFE000001FF0
FFC000000FF0
FFC000000FF8
FF80000007F8
FF80000007F8
FF80000007F8
FF00000007F8
FF00000007F8
FF00000003F8
FF00000003F8
FF00000007F8
FF00000007F8
FF00000007F8
FF80000007F8
FF80000007F8
FF8000000FF8
FFC000000FF0
FFC000001FF0
FFE000001FF0
FFF000003FE0
FFF800007FE0
FFFC0000FFC0
FFFE0001FFC0
FFFF8007FF80
FFFFFCFFFF00
FF7FFFFFFE00
FF3FFFFFFC00
FF1FFFFFF800
FF07FFFFE000
FF01FFFF8000
FF007FFE0000
FF0000000000
FF0000000000
FF0000000000
FF0000000000
FF0000000000
FF0000000000
FF0000000000
FF0000000000
FF0000000000
FF0000000000
FF0000000000
FF0000000000
FF0000000000
FF0000000000
FF0000000000
FF0000000000
ENDCHAR
STARTCHAR 0071
ENCODING 113
SWIDTH 682 0
DWIDTH 56 0
BBX 45 60 3 -16
BITMAP
00003FC00000
0003FFFC03F8
000FFFFF03F8
003FFFFFC3F8
007FFFFFE3F8
01FFFFFFF3F8
03FFFFFFFBF8
03FFE01FFFF8
07FF0003FFF8
0FFE0001FFF8
1FF800007FF8
1FF000003FF8
3FF000001FF8
3FE000001FF8
3FC000000FF8
7FC000000FF8
7F80000007F8
7F80000007F8
7F80000007F8
7F80000007F8
FF00000003F8
FF00000003F8
FF00000003F8
FF00000003F8
7F80000003F8
7F80000007F8
7F80000007F8
7F80000007F8
7F80000007F8
7FC000000FF8
3FC000000FF8
3FE000001FF8
1FF000003FF8
1FF800007FF8
0FFC0000FFF8
0FFE0001FFF8
07FF8007FFF8
03FFFCFFFFF8
01FFFFFFFBF8
00FFFFFFF3F8
007FFFFFE3F8
001FFFFF83F8
0007FFFE03F8
0001FFF803F8
0000000003F8
0000000003F8
0000000003F8
0000000003F8
0000000003F8
0000000003F8
0000000003F8
0000000003F8
0000000003F8
0000000003F8
0000000003F8
0000000003F8
0000000003F8
0000000003F8
0000000003F8
0000000003F8
ENDCHAR
STARTCHAR 0072
ENCODING 114
SWIDTH 414 0
DWIDTH 34 0
BBX 24 44 7 0
BITMAP
00001F
FF00FF
FF07FF
FF0FFF
FF1FFF
FF3FFF
FF7FFF
FFFFFF
FFFF80
FFFE00
FFF800
FFF000
FFE000
FFC000
FFC000
FF8000
FF8000
FF8000
FF8000
FF0000
FF0000
FF0000
FF0000
FF0000
FF0000
FF0000
FF0000
FF0000
FF0000
FF0000
FF0000
FF0000
FF0000
FF0000
FF0000
FF0000
FF0000
FF0000
FF0000
FF0000
FF0000
FF0000
FF0000
FF0000
ENDCHAR
STARTCHAR 0073
ENCODING 115
SWIDTH 500 0
DWIDTH 41 0
BBX 37 44 2 0
BITMAP
0001FF0000
001FFFF800
00FFFFFF00
03FFFFFFC0
07FFFFFFE0
0FFFFFFFE0
1FFFFFFFC0
1FFC007F80
3FF0000780
3FE0000100
3FC0000000
7F80000000
7F80000000
7F80000000
7F80000000
7FC0000000
3FE0000000
3FF8000000
3FFF000000
1FFFFC0000
0FFFFFC000
07FFFFF800
03FFFFFF00
00FFFFFF80
001FFFFFC0
0000FFFFE0
000003FFF0
0000007FF0
0000001FF0
0000000FF8
00000007F8
00000007F8
00000007F8
10000007F8
1800000FF0
3F00001FF0
7FE0003FF0
7FFF07FFE0
FFFFFFFFC0
FFFFFFFF80
3FFFFFFF00
0FFFFFFE00
03FFFFF800
007FFFC000
ENDCHAR
STARTCHAR 0074
ENCODING 116
SWIDTH 414 0
DWIDTH 34 0
BBX 31 53 1 0
BITMAP
00FE0000
00FE0000
00FE0000
00FE0000
00FE0000
00FE0000
00FE0000
00FE0000
00FE0000
00FE0000
FFFFFFF0
FFFFFFF0
FFFFFFF0
FFFFFFF0
FFFFFFF0
FFFFFFF0
00FE0000
00FE0000
00FE0000
00FE0000
00FE0000
00FE0000
00FE0000
00FE0000
00FE0000
00FE0000
00FE0000
00FE0000
00FE0000
00FE0000
00FE0000
00FE0000
00FE0000
00FE0000
00FE0000
00FE0000
00FE0000
00FE0000
00FE0000
00FE0000
00FF0000
00FF0000
00FF0000
00FF0000
00FF8000
00FFC018
007FF078
007FFFFC
003FFFFC
001FFFFC
000FFFFE
0007FFF8
0001FFE0
ENDCHAR
STARTCHAR 0075
ENCODING 117
SWIDTH 682 0
DWIDTH 56 0
BBX 41 43 7 0
BITMAP
FF0000007F80
FF0000007F80
FF0000007F80
FF0000007F80
FF0000007F80
FF0000007F80
FF0000007F80
FF0000007F80
FF0000007F80
FF0000007F80
FF0000007F80
FF0000007F80
FF0000007F80
FF0000007F80
FF0000007F80
FF0000007F80
FF0000007F80
FF0000007F80
FF0000007F80
FF0000007F80
FF0000007F80
FF0000007F80
FF0000007F80
FF0000007F80
FF0000007F80
FF0000007F80
FF0000007F80
FF000000FF80
FF000000FF80
FF800000FF80
7F800001FF80
7FC00003FF80
7FC00003FF80
3FE00007FF80
3FF0001FFF80
1FFC007FFF80
1FFFFFFFFF80
0FFFFFFFBF80
07FFFFFF3F80
03FFFFFE3F80
01FFFFF83F80
007FFFF03F80
000FFF803F80
ENDCHAR
STARTCHAR 0076
ENCODING 118
SWIDTH 560 0
DWIDTH 46 0
BBX 46 43 0 0
BITMAP
FF00000003FC
7F80000007F8
7F80000007F8
3FC000000FF0
3FC000000FF0
3FE000000FE0
1FE000001FE0
1FE000001FC0
0FF000003FC0
0FF000003FC0
07F800007F80
07F800007F80
03FC00007F00
03FC0000FF00
03FC0000FE00
01FE0001FE00
01FE0001FE00
00FF0003FC00
00FF0003FC00
007F8007F800
007F8007F800
007F8007F000
003FC00FF000
003FC00FE000
001FE01FE000
001FE01FE000
000FF03FC000
000FF03FC000
0007F03F8000
0007F87F8000
0007F87F0000
0003FCFF0000
0003FCFF0000
0001FFFE0000
0001FFFE0000
0000FFFC0000
0000FFFC0000
0000FFF80000
00007FF80000
00007FF00000
00003FF00000
00003FF00000
00001FE00000
ENDCHAR
STARTCHAR 0077
ENCODING 119
SWIDTH 902 0
DWIDTH 74 0
BBX 73 43 0 0
BITMAP
FF0000007F8000003F80
7F8000007F8000007F80
3F8000007F8000007F00
3F800000FFC000007F00
3FC00000FFC00000FE00
1FC00001FFE00000FE00
1FC00001FFE00000FE00
1FE00001FFE00001FC00
0FE00003FFF00001FC00
0FF00003FFF00003FC00
07F00003FFF00003F800
07F00007F7F80003F800
07F80007F3F80007F000
03F8000FF3FC0007F000
03F8000FE1FC0007F000
03FC000FE1FC000FE000
01FC001FC1FE000FE000
01FC001FC0FE001FE000
00FE001FC0FE001FC000
00FE003F80FF001FC000
00FF003F807F003F8000
007F007F807F003F8000
007F007F003F803F8000
007F807F003F807F0000
003F80FE003FC07F0000
003F80FE001FC0FF0000
001FC1FE001FC0FE0000
001FC1FC000FE0FE0000
001FE1FC000FE1FC0000
000FE3F8000FE1FC0000
000FE3F80007F1FC0000
000FF3F80007F3F80000
0007F7F00007FBF80000
0007F7F00003FBF80000
0007FFE00003FFF00000
0003FFE00001FFF00000
0003FFE00001FFE00000
0001FFC00001FFE00000
0001FFC00000FFE00000
0001FFC00000FFC00000
0000FF8000007FC00000
0000FF8000007FC00000
0000FF0000007F800000
ENDCHAR
STARTCHAR 0078
ENCODING 120
SWIDTH 548 0
DWIDTH 45 0
BBX 43 43 1 0
BITMAP
7FC000007FC0
3FE00000FF80
1FF00001FF00
0FF80001FE00
07FC0003FC00
03FC0007FC00
03FE000FF800
01FF000FF000
00FF801FE000
007F803FE000
007FC07FC000
003FE0FF8000
001FF0FF0000
000FF1FE0000
000FFBFE0000
0007FFFC0000
0003FFF80000
0001FFF00000
0000FFF00000
0000FFE00000
00007FC00000
00007FC00000
0000FFE00000
0001FFF00000
0003FFF80000
0003FFFC0000
0007FBFC0000
000FFBFE0000
001FF1FF0000
001FE0FF8000
003FC07F8000
007FC03FC000
00FF803FE000
01FF001FF000
01FE000FF800
03FE0007F800
07FC0007FC00
0FF80003FE00
0FF00001FF00
1FF00000FF00
3FE00000FF80
7FC000007FC0
FF8000003FE0
ENDCHAR
STARTCHAR 0079
ENCODING 121
SWIDTH 560 0
DWIDTH 46 0
BBX 48 59 -2 -16
BITMAP
3FC0000000FF
1FE0000001FE
1FE0000001FE
0FF0000003FC
0FF0000003FC
0FF8000003F8
07F8000007F8
07FC000007F0
03FC00000FF0
03FC00000FF0
01FE00001FE0
01FE00001FE0
00FF00001FC0
00FF00003FC0
00FF80003F80
007F80007F80
007F80007F00
003FC000FF00
003FC000FF00
001FE000FE00
001FE001FE00
000FF001FC00
000FF003FC00
000FF003F800
0007F807F800
0007F807F000
0003FC07F000
0003FC0FF000
0001FE0FE000
0001FE1FE000
0000FF1FC000
0000FF3FC000
0000FF3F8000
00007FBF8000
00007FFF8000
00003FFF0000
00003FFF0000
00001FFE0000
00001FFE0000
00000FFC0000
00000FFC0000
00000FF80000
000007F80000
000007F80000
00000FF00000
00000FF00000
00001FE00000
00001FE00000
00003FC00000
10003FC00000
18007F800000
3C00FF800000
3FC7FF000000
7FFFFE000000
7FFFFE000000
FFFFFC000000
3FFFF8000000
1FFFE0000000
03FF80000000
ENDCHAR
STARTCHAR 007A
ENCODING 122
SWIDTH 524 0
DWIDTH 43 0
BBX 37 43 3 0
BITMAP
7FFFFFFFF0
7FFFFFFFF0
7FFFFFFFF0
7FFFFFFFF0
7FFFFFFFF0
7FFFFFFFE0
0000003FE0
0000007FC0
000000FF80
000001FF00
000003FE00
000003FE00
000007FC00
00000FF800
00001FF000
00003FE000
00003FE000
00007FC000
0000FF8000
0001FF0000
0003FE0000
0007FC0000
0007FC0000
000FF80000
001FF00000
003FE00000
007FC00000
007FC00000
00FF800000
01FF000000
03FE000000
07FC000000
07FC000000
0FF8000000
1FF0000000
3FE0000000
7FC0000000
7FFFFFFFF8
FFFFFFFFF8
FFFFFFFFF8
FFFFFFFFF8
FFFFFFFFF8
FFFFFFFFF8
ENDCHAR
STARTCHAR 007B
ENCODING 123
SWIDTH 353 0
DWIDTH 29 0
BBX 22 77 5 -16
BITMAP
0001FC
000FFC
003FFC
007FFC
00FFFC
00FFFC
01FFFC
01FF80
01FE00
03FE00
03FC00
03FC00
03FC00
03FC00
03FC00
03FC00
03FC00
03FC00
03FC00
03FC00
03FC00
03FC00
03FC00
03FC00
03FC00
03FC00
03FC00
03FC00
03FC00
03FC00
03FC00
03FC00
03FC00
03FC00
07FC00
FFF800
FFF800
FFF000
FFC000
FFF000
FFF800
FFF800
07FC00
03FC00
03FC00
03FC00
03FC00
03FC00
03FC00
03FC00
03FC00
03FC00
03FC00
03FC00
03FC00
03FC00
03FC00
03FC00
03FC00
03FC00
03FC00
03FC00
03FC00
03FC00
03FC00
03FC00
03FC00
03FE00
01FE00
01FF00
01FFFC
00FFFC
00FFFC
007FFC
003FFC
000FFC
0001FC
ENDCHAR
STARTCHAR 007C
ENCODING 124
SWIDTH 304 0
DWIDTH 25 0
BBX 7 77 9 -16
BITMAP
FE
FE
FE
FE
FE
FE
FE
FE
FE
FE
FE
FE
FE
FE
FE
FE
FE
FE
FE
FE
FE
FE
FE
FE
FE
FE
FE
FE
FE
FE
FE
FE
FE
FE
FE
FE
FE
FE
FE
FE
FE
FE
FE
FE
FE
FE
FE
FE
FE
FE
FE
FE
FE
FE
FE
FE
FE
FE
FE
FE
FE
FE
FE
FE
FE
FE
FE
FE
FE
FE
FE
FE
FE
FE
FE
FE
FE
ENDCHAR
STARTCHAR 007D
ENCODING 125
SWIDTH 353 0
DWIDTH 29 0
BBX 22 77 2 -16
BITMAP
FE0000
FFC000
FFF000
FFF800
FFFC00
FFFC00
FFFE00
07FE00
03FE00
01FE00
01FF00
00FF00
00FF00
00FF00
00FF00
00FF00
00FF00
00FF00
00FF00
00FF00
00FF00
00FF00
00FF00
00FF00
00FF00
00FF00
00FF00
00FF00
00FF00
00FF00
00FF00
00FF00
00FF00
00FF00
00FF80
00FFFC
007FFC
003FFC
000FFC
003FFC
007FFC
00FFFC
00FF80
00FF00
00FF00
00FF00
00FF00
00FF00
00FF00
00FF00
00FF00
00FF00
00FF00
00FF00
00FF00
00FF00
00FF00
00FF00
00FF00
00FF00
00FF00
00FF00
00FF00
00FF00
00FF00
00FF00
01FF00
01FE00
03FE00
07FE00
FFFE00
FFFC00
FFFC00
FFF800
FFF000
FFC000
FE0000
ENDCHAR
STARTCHAR 007E
ENCODING 126
SWIDTH 585 0
DWIDTH 48 0
BBX 38 14 5 22
BITMAP
00F8000000
03FF00007C
0FFF80007C
1FFFE000FC
3FFFF000FC
3FFFF800F8
7F8FFE01F8
7E03FF03F8
FC00FFFFF0
FC007FFFF0
F8003FFFE0
F8000FFFC0
F80007FF80
F80001FE00
ENDCHAR
STARTCHAR 00A0
ENCODING 160
SWIDTH 268 0
DWIDTH 22 0
BBX 0 0 0 0
BITMAP
ENDCHAR
STARTCHAR 00A1
ENCODING 161
SWIDTH 268 0
DWIDTH 22 0
BBX 10 57 6 -13
BITMAP
1E00
7F80
7F80
FFC0
FFC0
FFC0
FFC0
FFC0
7F80
3F00
0C00
0000
0000
0000
0000
0000
0000
0000
0000
3F00
3F00
3F00
3F00
3F00
3F00
3F00
3F00
3F00
7F80
7F80
7F80
7F80
7F80
7F80
7F80
7F80
7F80
7F80
7F80
7F80
7F80
7F80
7F80
7F80
7F80
7F80
7F80
7F80
7F80
7F80
7F80
7F80
7F80
FFC0
FFC0
FFC0
FFC0
ENDCHAR
STARTCHAR 00A2
ENCODING 162
SWIDTH 573 0
DWIDTH 47 0
BBX 41 63 3 -10
BITMAP
00000F800000
00000F800000
00000F800000
00000F800000
00000F800000
00000F800000
00000F800000
00000F800000
00000F800000
00001FF00000
0001FFFF0000
000FFFFFC000
001FFFFFF000
007FFFFFF800
00FFFFFFFC00
01FFFFFFFE00
03FFEF9FFF00
07FF0F83FF80
0FFE0F80FF80
0FF80F807E00
1FF00F803C00
3FF00F801000
3FE00F800000
3FC00F800000
7FC00F800000
7F800F800000
7F800F800000
7F800F800000
7F800F800000
FF000F800000
FF000F800000
FF000F800000
FF000F800000
7F000F800000
7F800F800000
7F800F800000
7F800F800000
7F800F800000
7FC00F800000
3FC00F800000
3FE00F801000
1FF00F803800
1FF80F807E00
0FFC0F80FF00
07FE0F81FF80
07FF8F87FF00
03FFFFFFFF00
01FFFFFFFE00
00FFFFFFFC00
003FFFFFF000
001FFFFFE000
0007FFFF8000
0000FFFC0000
00000F800000
00000F800000
00000F800000
00000F800000
00000F800000
00000F800000
00000F800000
00000F800000
00000F800000
00000F800000
ENDCHAR
STARTCHAR 00A3
ENCODING 163
SWIDTH 646 0
DWIDTH 53 0
BBX 50 58 2 0
BITMAP
0000001FFF0000
000001FFFFF000
000007FFFFFE00
00001FFFFFFF80
00007FFFFFFFC0
0000FFFFFFFF80
0001FFFFFFFF80
0003FFF807FF00
0007FF80003F00
000FFE00000700
000FFC00000200
001FF800000000
001FF000000000
001FE000000000
003FE000000000
003FC000000000
003FC000000000
003FC000000000
007FC000000000
007FC000000000
007FC000000000
007FC000000000
007FC000000000
007FC000000000
007FC000000000
007FC000000000
007FC000000000
FFFFFFFFFE0000
FFFFFFFFFE0000
FFFFFFFFFE0000
FFFFFFFFFE0000
FFFFFFFFFE0000
007FC000000000
007FC000000000
007FC000000000
007FC000000000
007FC000000000
007FC000000000
007FC000000000
007FC000000000
007FC000000000
007FC000000000
007FC000000000
007FC000000000
007FC000000000
007FC000000000
007FC000000000
007FC000000000
007FC000000000
007FC000000000
007FC000000000
FFFFFFFFFFFF80
FFFFFFFFFFFF80
FFFFFFFFFFFF80
FFFFFFFFFFFF80
FFFFFFFFFFFF80
FFFFFFFFFFFF80
FFFFFFFFFFFF80
ENDCHAR
STARTCHAR 00A4
ENCODING 164
SWIDTH 695 0
DWIDTH 57 0
BBX 52 52 3 0
BITMAP
18000000000100
3C000000000780
7E000000000FC0
7F000000001FE0
FF8003FC003FF0
FFC03FFFC07FE0
7FE0FFFFF0FFC0
3FF3FFFFFDFF80
1FFFFFFFFFFF00
0FFFFFFFFFFE00
07FFFFFFFFFC00
03FFF001FFF800
01FFC0007FF000
01FF80001FF000
01FE00000FF800
03FC000007F800
03F8000003FC00
07F8000001FC00
07F0000000FE00
0FE0000000FE00
0FE00000007E00
0FE00000007F00
0FC00000007F00
0FC00000007F00
1FC00000003F00
1FC00000003F00
1FC00000003F00
0FC00000003F00
0FC00000007F00
0FC00000007F00
0FE00000007F00
0FE0000000FE00
07F0000000FE00
07F0000001FE00
07F8000001FC00
03FC000003FC00
03FE000007F800
01FF00000FF800
00FF80003FF000
01FFE0007FF000
03FFFC03FFF800
07FFFFFFFFFC00
0FFFFFFFFFFE00
1FFFFFFFFFFF00
3FF3FFFFF8FF80
7FE0FFFFE07FC0
FFC01FFF003FE0
FF800000001FF0
7F000000000FE0
3E0000000007C0
1C000000000380
18000000000100
ENDCHAR
STARTCHAR 00A5
ENCODING 165
SWIDTH 707 0
DWIDTH 58 0
BBX 58 57 0 0
BITMAP
FF80000000007FC0
7FC0000000007F80
3FC000000000FF00
3FE000000001FF00
1FF000000003FE00
0FF800000003FC00
07F800000007F800
07FC0000000FF800
03FE0000000FF000
01FE0000001FE000
01FF0000003FE000
00FF8000007FC000
007FC000007F8000
003FC00000FF0000
003FE00001FF0000
001FF00001FE0000
000FF00003FC0000
000FF80007FC0000
0007FC000FF80000
0003FE000FF00000
0001FE001FE00000
0001FF003FE00000
0000FF803FC00000
00007F807F800000
00003FC0FF800000
00003FE1FF000000
00001FF1FE000000
00000FF3FC000000
00000FFFFC000000
000007FFF8000000
000003FFF0000000
00FFFFFFFFFFC000
00FFFFFFFFFFC000
00FFFFFFFFFFC000
00FFFFFFFFFFC000
00FFFFFFFFFFC000
0000007F80000000
0000007F80000000
0000007F80000000
0000007F80000000
0000007F80000000
0000007F80000000
0000007F80000000
00FFFFFFFFFFC000
00FFFFFFFFFFC000
00FFFFFFFFFFC000
00FFFFFFFFFFC000
0000007F80000000
0000007F80000000
0000007F80000000
0000007F80000000
0000007F80000000
0000007F80000000
0000007F80000000
0000007F80000000
0000007F80000000
0000007F80000000
ENDCHAR
STARTCHAR 00A6
ENCODING 166
SWIDTH 304 0
DWIDTH 25 0
BBX 7 77 9 -16
BITMAP
FE
FE
FE
FE
FE
FE
FE
FE
FE
FE
FE
FE
FE
FE
FE
FE
FE
FE
FE
FE
FE
FE
FE
FE
FE
FE
FE
FE
FE
00
00
00
00
00
00
00
00
00
00
00
00
00
00
00
00
00
00
00
FE
FE
FE
FE
FE
FE
FE
FE
FE
FE
FE
FE
FE
FE
FE
FE
FE
FE
FE
FE
FE
FE
FE
FE
FE
FE
FE
FE
FE
ENDCHAR
STARTCHAR 00A7
ENCODING 167
SWIDTH 500 0
DWIDTH 41 0
BBX 37 67 2 -9
BITMAP
0000FFC000
000FFFFE00
003FFFFFC0
00FFFFFFF0
01FFFFFFF8
03FFFFFFF0
07FFF3FFF0
0FFC000FE0
0FF00001E0
1FE0000040
1FC0000000
1FC0000000
1FC0000000
1FC0000000
1FC0000000
1FC0000000
1FE0000000
1FF0000000
0FFC000000
0FFF800000
07FFF00000
03FFFF0000
01FFFFE000
07FFFFFC00
0FFFFFFE00
1FF9FFFF80
1FE01FFFC0
3FC003FFC0
3F80007FE0
7F00001FE0
7F00000FF0
7F000007F0
7F000007F0
7F000007F0
7F000007F0
7F800007F0
7F800007F0
3FE0000FF0
3FF8000FE0
1FFF001FE0
0FFFF03FC0
07FFFFFFC0
03FFFFFF80
00FFFFFF00
001FFFFC00
0003FFFE00
00003FFF00
000003FF80
000000FF80
0000007FC0
0000003FC0
0000001FC0
0000001FC0
0000001FC0
0000001FC0
2000001FC0
3000001FC0
3C00003FC0
7F00007F80
7FE001FF80
7FFFFFFF00
FFFFFFFE00
3FFFFFFC00
1FFFFFF800
03FFFFE000
007FFF8000
0003E00000
ENDCHAR
STARTCHAR 00A8
ENCODING 168
SWIDTH 597 0
DWIDTH 49 0
BBX 23 9 13 51
BITMAP
180010
7E00FC
FF00FE
FF01FE
FF01FE
FF01FE
FF01FE
7E00FC
3C0038
ENDCHAR
STARTCHAR 00A9
ENCODING 169
SWIDTH 804 0
DWIDTH 66 0
BBX 58 58 4 0
BITMAP
0000003F00000000
000007FFF8000000
00003FFFFF000000
0000FFFFFFC00000
0003FF003FF00000
000FF00003FC0000
001FC00000FE0000
003F0000003F0000
007C0000001F8000
00F800000007C000
01F000000003E000
03E000000001F000
07C0000E0000F800
0F8001FFF0007800
0F0007FFFC003C00
1F001FFFFF003E00
1E003FFFFF801E00
3E007FFFFFC01F00
3C00FFC07FE00F00
3C01FF001FC00F00
7801FE0007800780
7803F80003000780
7803F80000000780
F007F00000000780
F007F00000000380
F007E000000003C0
F007E000000003C0
F00FE000000003C0
F00FE000000003C0
F00FE000000003C0
F00FE000000003C0
F007E000000003C0
F007E000000003C0
F007E000000003C0
F007F00000000780
7007F00000000780
7803F80002000780
7803FC0007000780
7801FE000FC00F00
3C01FF801FE00F00
3C00FFF9FFC01F00
3E007FFFFF801E00
1E003FFFFF003E00
1F000FFFFE003C00
0F8003FFF8007C00
078000FFE000F800
07C000000001F000
03E000000003F000
01F000000007E000
00F80000000FC000
007E0000001F8000
003F0000007F0000
001FE00001FC0000
0007F8000FF80000
0003FFF7FFE00000
0000FFFFFF800000
00001FFFFE000000
000003FFF0000000
ENDCHAR
STARTCHAR 00AA
ENCODING 170
SWIDTH 402 0
DWIDTH 33 0
BBX 25 26 3 35
BITMAP
01FFC000
0FFFF000
3FFFFC00
7FFFFE00
3F81FE00
3C007F00
10003F00
00001F80
00001F80
00001F80
00001F80
03FFFF80
0FFFFF80
3FFFFF80
7FF01F80
7E001F80
FC001F80
FC001F80
F8001F80
FC003F80
FC007F80
7E00FF80
7FFFFF80
3FFFEF80
1FFF8F80
07FE0F80
ENDCHAR
STARTCHAR 00AB
ENCODING 171
SWIDTH 500 0
DWIDTH 41 0
BBX 35 31 4 6
BITMAP
001FE01FE0
003F803F80
007F807F80
007F007F00
00FE00FE00
01FC01FC00
03FC03FC00
03F803F800
07F007F000
0FE00FE000
1FE01FE000
1FC01FC000
3F803F8000
7F807F8000
FF00FF0000
FE00FE0000
7F007F0000
7F807F8000
3FC03FC000
1FC01FC000
0FE00FE000
0FF00FF000
07F807F800
03F803F800
01FC01FC00
01FE01FE00
00FF00FF00
007F007F00
003F803F80
003FC03FC0
001FE01FE0
ENDCHAR
STARTCHAR 00AC
ENCODING 172
SWIDTH 585 0
DWIDTH 48 0
BBX 36 21 6 11
BITMAP
FFFFFFFFF0
FFFFFFFFF0
FFFFFFFFF0
FFFFFFFFF0
FFFFFFFFF0
FFFFFFFFF0
FFFFFFFFF0
00000007F0
00000007F0
00000007F0
00000007F0
00000007F0
00000007F0
00000007F0
00000007F0
00000007F0
00000007F0
00000007F0
00000007F0
00000007F0
00000007F0
ENDCHAR
STARTCHAR 00AD
ENCODING 173
SWIDTH 378 0
DWIDTH 31 0
BBX 22 7 5 19
BITMAP
FFFFFC
FFFFFC
FFFFFC
FFFFFC
FFFFFC
FFFFFC
FFFFFC
ENDCHAR
STARTCHAR 00AE
ENCODING 174
SWIDTH 804 0
DWIDTH 66 0
BBX 58 58 4 0
BITMAP
0000003F00000000
000007FFF8000000
00003FFFFF000000
0000FFFFFFC00000
0003FF003FF00000
000FF00003FC0000
001FC00000FE0000
003F0000003F0000
007C0000001F8000
00F800000007C000
01F000000003E000
03E000000001F000
07C000000000F800
0F807FFFE0007800
0F007FFFFC003C00
1F007FFFFF003E00
1E007FFFFF801E00
3E007FFFFFC01F00
3C007E001FC00F00
3C007E000FE00F00
78007E0007E00780
78007E0003E00780
78007E0003F00780
F0007E0003F00780
F0007E0003F00380
F0007E0003F003C0
F0007E0003E003C0
F0007E0007E003C0
F0007E000FE003C0
F0007E001FC003C0
F0007E01FFC003C0
F0007FFFFF8003C0
F0007FFFFF0003C0
F0007FFFFC0003C0
F0007FFFF8000780
70007E00FC000780
78007E007C000780
78007E007E000780
78007E003F000F00
3C007E001F000F00
3C007E001F801F00
3E007E000F801E00
1E007E000FC03E00
1F007E0007E03C00
0F807E0003E07C00
07807E0003F0F800
07C000000001F000
03E000000003F000
01F000000007E000
00F80000000FC000
007E0000001F8000
003F0000007F0000
001FE00001FC0000
0007F8000FF80000
0003FFF7FFE00000
0000FFFFFF800000
00001FFFFE000000
000003FFF0000000
ENDCHAR
STARTCHAR 00AF
ENCODING 175
SWIDTH 597 0
DWIDTH 49 0
BBX 27 5 11 53
BITMAP
FFFFFFE0
FFFFFFE0
FFFFFFE0
FFFFFFE0
FFFFFFE0
ENDCHAR
STARTCHAR 00B0
ENCODING 176
SWIDTH 414 0
DWIDTH 34 0
BBX 27 27 4 31
BITMAP
003F0000
01FFE000
07FFF800
0FFFFC00
1FFBFE00
3F807F00
3E001F80
7C000F80
7C0007C0
F80007C0
F80003C0
F00003E0
F00003E0
F00003E0
F00003E0
F00003E0
F80007C0
F80007C0
7C000FC0
7C000F80
3F001F80
3F807F00
1FFFFE00
0FFFFC00
07FFF800
01FFE000
001E0000
ENDCHAR
STARTCHAR 00B1
ENCODING 177
SWIDTH 585 0
DWIDTH 48 0
BBX 36 50 6 0
BITMAP
0003F80000
0003F80000
0003F80000
0003F80000
0003F80000
0003F80000
0003F80000
0003F80000
0003F80000
0003F80000
0003F80000
0003F80000
0003F80000
0003F80000
FFFFFFFFF0
FFFFFFFFF0
FFFFFFFFF0
FFFFFFFFF0
FFFFFFFFF0
FFFFFFFFF0
FFFFFFFFF0
0003F80000
0003F80000
0003F80000
0003F80000
0003F80000
0003F80000
0003F80000
0003F80000
0003F80000
0003F80000
0003F80000
0003F80000
0003F80000
0003F80000
0000000000
0000000000
0000000000
0000000000
0000000000
0000000000
0000000000
0000000000
0000000000
FFFFFFFFF0
FFFFFFFFF0
FFFFFFFFF0
FFFFFFFFF0
FFFFFFFFF0
FFFFFFFFF0
ENDCHAR
STARTCHAR 00B2
ENCODING 178
SWIDTH 426 0
DWIDTH 35 0
BBX 29 34 2 27
BITMAP
01FFF800
07FFFE00
1FFFFF00
3FFFFF80
7FFBFFC0
FF001FE0
3C000FE0
180007E0
000003F0
000003F0
000003F0
000007E0
000007E0
00000FE0
00001FC0
00001F80
00007F80
0000FF00
0001FE00
0003FC00
0007F000
000FE000
001FC000
003F8000
00FF0000
01FE0000
03FC0000
07F00000
0FE00000
1FFFFFF8
3FFFFFF8
3FFFFFF8
3FFFFFF8
3FFFFFF8
ENDCHAR
STARTCHAR 00B3
ENCODING 179
SWIDTH 426 0
DWIDTH 35 0
BBX 29 34 2 27
BITMAP
7FFFFFF0
7FFFFFF0
7FFFFFF0
7FFFFFF0
7FFFFFE0
00001FC0
00003F80
00003F00
00007E00
0000FC00
0001F800
0003F000
0007E000
000FC000
001FF800
001FFF00
001FFF80
001FFFE0
0000FFE0
000007F0
000003F8
000001F8
000001F8
000001F8
000001F8
000001F8
200001F8
380003F8
7F000FF0
7FFFFFE0
FFFFFFC0
3FFFFF80
0FFFFF00
01FFF800
ENDCHAR
STARTCHAR 00B4
ENCODING 180
SWIDTH 597 0
DWIDTH 49 0
BBX 22 10 18 50
BITMAP
001FFC
003FE0
007FC0
01FF80
03FE00
07FC00
0FF800
1FE000
3FC000
FF8000
ENDCHAR
STARTCHAR 00B5
ENCODING 181
SWIDTH 682 0
DWIDTH 56 0
BBX 41 59 7 -16
BITMAP
FF0000003F80
FF0000003F80
FF0000003F80
FF0000003F80
FF0000003F80
FF0000003F80
FF0000003F80
FF0000003F80
FF0000003F80
FF0000003F80
FF0000003F80
FF0000003F80
FF0000003F80
FF0000003F80
FF0000003F80
FF0000003F80
FF0000003F80
FF0000003F80
FF0000003F80
FF0000003F80
FF0000003F80
FF0000003F80
FF0000007F80
FF0000007F80
FF0000007F80
FF0000007F80
FF0000007F80
FF8000007F80
FF800000FF80
FF800000FF80
FFC00001FF80
FFC00001FF80
FFE00003FF80
FFF00007FF80
FFF8000FFF80
FFFE003FFF80
FFFFFFFFFF80
FFFFFFFFBF80
FFFFFFFF3F80
FF7FFFFE3F80
FF3FFFFC3F80
FF0FFFF03F80
FF03FFC03F80
FF0000000000
FF0000000000
FF0000000000
FF0000000000
FF0000000000
FF0000000000
FF0000000000
FF0000000000
FF0000000000
FF0000000000
FF0000000000
FF0000000000
FF0000000000
FF0000000000
FF0000000000
FF0000000000
ENDCHAR
STARTCHAR 00B6
ENCODING 182
SWIDTH 646 0
DWIDTH 53 0
BBX 43 69 2 -8
BITMAP
0003FFFFFFE0
007FFFFFFFE0
01FFFFFFFFE0
07FFFFFFFFE0
0FFFFFFFFFE0
1FFFFFFFFFE0
3FFFFE000FE0
7FFFFE000FE0
7FFFFE000FE0
FFFFFE000FE0
FFFFFE000FE0
FFFFFE000FE0
FFFFFE000FE0
FFFFFE000FE0
FFFFFE000FE0
FFFFFE000FE0
FFFFFE000FE0
FFFFFE000FE0
FFFFFE000FE0
FFFFFE000FE0
7FFFFE000FE0
7FFFFE000FE0
3FFFFE000FE0
3FFFFE000FE0
1FFFFE000FE0
0FFFFE000FE0
03FFFE000FE0
01FFFE000FE0
003FFE000FE0
0000FE000FE0
00007E000FE0
00007E000FE0
00007E000FE0
00007E000FE0
00007E000FE0
00007E000FE0
00007E000FE0
00007E000FE0
00007E000FE0
00007E000FE0
00007E000FE0
00007E000FE0
00007E000FE0
00007E000FE0
00007E000FE0
00007E000FE0
00007E000FE0
00007E000FE0
00007E000FE0
00007E000FE0
00007E000FE0
00007E000FE0
00007E000FE0
00007E000FE0
00007E000FE0
00007E000FE0
00007E000FE0
00007E000FE0
00007E000FE0
00007E000FE0
00007E000FE0
00007E000FE0
00007E000FE0
00007E000FE0
00007E000FE0
00007E000FE0
00007E000FE0
00007E000FE0
00007E000FE0
ENDCHAR
STARTCHAR 00B7
ENCODING 183
SWIDTH 268 0
DWIDTH 22 0
BBX 11 11 5 17
BITMAP
1F80
3FC0
7FE0
7FE0
FFE0
FFE0
FFE0
7FE0
7FE0
3FC0
1F80
ENDCHAR
STARTCHAR 00B8
ENCODING 184
SWIDTH 597 0
DWIDTH 49 0
BBX 18 19 15 -18
BITMAP
01F000
01F000
01E000
01E000
03E000
03F800
03FE00
07FF00
00FF80
001F80
000FC0
000FC0
000FC0
000FC0
303F80
7FFF80
7FFF00
FFFE00
3FF800
ENDCHAR
STARTCHAR 00B9
ENCODING 185
SWIDTH 426 0
DWIDTH 35 0
BBX 23 34 7 27
BITMAP
FFFE00
FFFE00
FFFE00
FFFE00
FFFE00
007E00
007E00
007E00
007E00
007E00
007E00
007E00
007E00
007E00
007E00
007E00
007E00
007E00
007E00
007E00
007E00
007E00
007E00
007E00
007E00
007E00
007E00
007E00
007E00
FFFFFE
FFFFFE
FFFFFE
FFFFFE
FFFFFE
ENDCHAR
STARTCHAR 00BA
ENCODING 186
SWIDTH 414 0
DWIDTH 34 0
BBX 29 26 3 35
BITMAP
007FE000
01FFFC00
07FFFE00
0FFFFF80
1FF9FFC0
3F801FC0
7F000FE0
7E0007F0
FC0003F0
FC0001F0
F80001F0
F80001F8
F80001F8
F80001F8
F80001F8
F80001F0
FC0003F0
FC0003F0
7E0007E0
7F000FE0
3FC01FC0
1FFFFFC0
0FFFFF80
07FFFE00
01FFFC00
007FE000
ENDCHAR
STARTCHAR 00BB
ENCODING 187
SWIDTH 500 0
DWIDTH 41 0
BBX 35 31 3 6
BITMAP
FF00FF0000
7F007F0000
3F803F8000
1FC01FC000
1FE01FE000
0FE00FE000
07F007F000
03F803F800
03FC03FC00
01FC01FC00
00FE00FE00
007F007F00
007F807F80
003F803F80
001FC01FC0
001FE01FE0
003FC03FC0
003F803F80
007F007F00
00FF00FF00
01FE01FE00
01FC01FC00
03F803F800
07F807F800
07F007F000
0FE00FE000
1FC01FC000
3FC03FC000
3F803F8000
7F007F0000
FE00FE0000
ENDCHAR
STARTCHAR 00BC
ENCODING 188
SWIDTH 1036 0
DWIDTH 85 0
BBX 76 57 7 0
BITMAP
FFFE000000001FC00000
FFFE000000003F800000
FFFE000000003F000000
FFFE000000007E000000
FFFE00000000FE000000
007E00000000FC000000
007E00000001F8000000
007E00000003F0000000
007E00000003F0000000
007E00000007E0000000
007E0000000FC0000000
007E0000001FC0000000
007E0000001F80000000
007E0000003F00000000
007E0000007F00000000
007E0000007E00000000
007E000000FC00000000
007E000001FC00000000
007E000001F800000000
007E000003F000000000
007E000007F000000000
007E000007E000000000
007E00000FC000000000
007E00001FC00007F000
007E00001F80000FE000
007E00003F00001FC000
007E00007E00001F8000
007E00007E00003F0000
007E0000FC00007F0000
FFFFFE01F80000FE0000
FFFFFE03F80000FC0000
FFFFFE03F00001F80000
FFFFFE07E00003F80000
FFFFFE0FE00007F00000
0000000FC00007E00000
0000001F80000FC00000
0000003F80001FC00000
0000003F00003F80F800
0000007E00003F00F800
000000FE00007E00F800
000000FC0000FE00F800
000001F80001FC00F800
000003F80001F800F800
000003F00003F000F800
000007E00007FFFFFFF0
00000FE00007FFFFFFF0
00000FC00007FFFFFFF0
00001F800007FFFFFFF0
00003F000007FFFFFFF0
00003F0000000000F800
00007E0000000000F800
0000FC0000000000F800
0001FC0000000000F800
0001F80000000000F800
0003F00000000000F800
0007F00000000000F800
000FE00000000000F800
ENDCHAR
STARTCHAR 00BD
ENCODING 189
SWIDTH 1036 0
DWIDTH 85 0
BBX 74 57 7 0
BITMAP
FFFE000000001FC00000
FFFE000000003F800000
FFFE000000003F000000
FFFE000000007E000000
FFFE00000000FE000000
007E00000000FC000000
007E00000001F8000000
007E00000003F0000000
007E00000003F0000000
007E00000007E0000000
007E0000000FC0000000
007E0000001FC0000000
007E0000001F80000000
007E0000003F00000000
007E0000007F00000000
007E0000007E00000000
007E000000FC00000000
007E000001FC00000000
007E000001F800000000
007E000003F000000000
007E000007F000000000
007E000007E000000000
007E00000FC000000000
007E00001FC00FFFC000
007E00001F803FFFF000
007E00003F00FFFFF800
007E00007E01FFFFFC00
007E00007E03FFDFFE00
007E0000FC07F800FF00
FFFFFE01F801E0007F00
FFFFFE03F800C0003F00
FFFFFE03F00000001F80
FFFFFE07E00000001F80
FFFFFE0FE00000001F80
0000000FC00000003F00
0000001F800000003F00
0000003F800000007F00
0000003F00000000FE00
0000007E00000000FC00
000000FE00000003FC00
000000FC00000007F800
000001F80000000FF000
000003F80000001FE000
000003F00000003F8000
000007E00000007F0000
00000FE0000000FE0000
00000FC0000001FC0000
00001F80000007F80000
00003F0000000FF00000
00003F0000001FE00000
00007E0000003F800000
0000FC0000007F000000
0001FC000000FFFFFFC0
0001F8000001FFFFFFC0
0003F0000001FFFFFFC0
0007F0000001FFFFFFC0
000FE0000001FFFFFFC0
ENDCHAR
STARTCHAR 00BE
ENCODING 190
SWIDTH 1036 0
DWIDTH 85 0
BBX 81 57 2 0
BITMAP
7FFFFFF0000000FE000000
7FFFFFF0000001FC000000
7FFFFFF0000001F8000000
7FFFFFF0000003F0000000
7FFFFFE0000007F0000000
00001FC0000007E0000000
00003F8000000FC0000000
00003F0000001F80000000
00007E0000001F80000000
0000FC0000003F00000000
0001F80000007E00000000
0003F0000000FE00000000
0007E0000000FC00000000
000FC0000001F800000000
001FF8000003F800000000
001FFF000003F000000000
001FFF800007E000000000
001FFFE0000FE000000000
0000FFE0000FC000000000
000007F0001F8000000000
000003F8003F8000000000
000001F8003F0000000000
000001F8007E0000000000
000001F800FE00003F8000
000001F800FC00007F0000
000001F801F80000FE0000
200001F803F00000FC0000
380003F803F00001F80000
7F000FF007E00003F80000
7FFFFFE00FC00007F00000
FFFFFFC01FC00007E00000
3FFFFF801F80000FC00000
0FFFFF003F00001FC00000
01FFF8007F00003F800000
000000007E00003F000000
00000000FC00007E000000
00000001FC0000FE000000
00000001F80001FC07C000
00000003F00001F807C000
00000007F00003F007C000
00000007E00007F007C000
0000000FC0000FE007C000
0000001FC0000FC007C000
0000001F80001F8007C000
0000003F00003FFFFFFF80
0000007F00003FFFFFFF80
0000007E00003FFFFFFF80
000000FC00003FFFFFFF80
000001F800003FFFFFFF80
000001F80000000007C000
000003F00000000007C000
000007E00000000007C000
00000FE00000000007C000
00000FC00000000007C000
00001F800000000007C000
00003F800000000007C000
00007F000000000007C000
ENDCHAR
STARTCHAR 00BF
ENCODING 191
SWIDTH 573 0
DWIDTH 47 0
BBX 40 57 6 -13
BITMAP
0000F00000
0001FC0000
0003FE0000
0007FE0000
0007FE0000
0007FF0000
0007FE0000
0007FE0000
0003FE0000
0001FC0000
0000600000
0000000000
0000000000
0000000000
0000000000
0000000000
0000000000
0000000000
0000000000
0003FC0000
0003FC0000
0003FC0000
0007FC0000
0007FC0000
000FF80000
000FF80000
001FF00000
007FE00000
00FFC00000
01FF800000
03FF000000
07FE000000
0FFC000000
1FF8000000
3FF0000000
3FE0000000
7FC0000000
7F80000000
FF80000000
FF00000000
FF00000000
FF00000000
FF00000000
FF00000000
FF00000020
FF80000078
FF800000FC
FFC00003FE
7FF00007FF
7FFC003FFE
3FFFFFFFFC
1FFFFFFFF8
0FFFFFFFF0
07FFFFFFC0
01FFFFFF00
007FFFFC00
000FFFE000
ENDCHAR
STARTCHAR 00C0
ENCODING 192
SWIDTH 731 0
DWIDTH 60 0
BBX 60 72 0 0
BITMAP
0001FFC000000000
00007FE000000000
00003FF000000000
00000FF800000000
000007FC00000000
000003FE00000000
000000FF00000000
0000007F80000000
0000003FC0000000
0000001FE0000000
0000000010000000
0000000000000000
0000000000000000
0000000000000000
0000000000000000
0000007FC0000000
0000007FE0000000
0000007FE0000000
000000FFF0000000
000000FFF0000000
000001FFF8000000
000001FFF8000000
000003FFFC000000
000003FFFC000000
000007F9FE000000
000007F9FE000000
00000FF0FE000000
00000FF0FF000000
00000FE0FF000000
00001FE07F800000
00001FE07F800000
00003FC03FC00000
00003FC03FC00000
00007F801FE00000
00007F801FE00000
0000FF001FF00000
0000FF000FF00000
0000FF000FF00000
0001FE0007F80000
0001FE0007F80000
0003FC0003FC0000
0003FC0003FC0000
0007F80001FE0000
0007F80001FE0000
000FF00001FF0000
000FF00000FF0000
001FF00000FF8000
001FE000007F8000
001FE000007F8000
003FC000003FC000
003FC000003FC000
007FFFFFFFFFE000
007FFFFFFFFFE000
00FFFFFFFFFFF000
00FFFFFFFFFFF000
01FFFFFFFFFFF800
01FFFFFFFFFFF800
03FFFFFFFFFFFC00
03FC00000003FC00
03FC00000003FC00
07F800000003FE00
07F800000001FE00
0FF800000001FF00
0FF000000000FF00
1FF000000000FF80
1FE0000000007F80
3FE0000000007FC0
3FC0000000003FC0
7FC0000000003FE0
7F80000000003FE0
7F80000000001FE0
FF80000000001FF0
ENDCHAR
STARTCHAR 00C1
ENCODING 193
SWIDTH 731 0
DWIDTH 60 0
BBX 60 72 0 0
BITMAP
000000003FF80000
000000007FC00000
00000000FF800000
00000003FF000000
00000007FC000000
0000000FF8000000
0000001FF0000000
0000003FC0000000
0000007F80000000
000000FF00000000
0000010000000000
0000000000000000
0000000000000000
0000000000000000
0000000000000000
0000007FC0000000
0000007FE0000000
0000007FE0000000
000000FFF0000000
000000FFF0000000
000001FFF8000000
000001FFF8000000
000003FFFC000000
000003FFFC000000
000007F9FE000000
000007F9FE000000
00000FF0FE000000
00000FF0FF000000
00000FE0FF000000
00001FE07F800000
00001FE07F800000
00003FC03FC00000
00003FC03FC00000
00007F801FE00000
00007F801FE00000
0000FF001FF00000
0000FF000FF00000
0000FF000FF00000
0001FE0007F80000
0001FE0007F80000
0003FC0003FC0000
0003FC0003FC0000
0007F80001FE0000
0007F80001FE0000
000FF00001FF0000
000FF00000FF0000
001FF00000FF8000
001FE000007F8000
001FE000007F8000
003FC000003FC000
003FC000003FC000
007FFFFFFFFFE000
007FFFFFFFFFE000
00FFFFFFFFFFF000
00FFFFFFFFFFF000
01FFFFFFFFFFF800
01FFFFFFFFFFF800
03FFFFFFFFFFFC00
03FC00000003FC00
03FC00000003FC00
07F800000003FE00
07F800000001FE00
0FF800000001FF00
0FF000000000FF00
1FF000000000FF80
1FE0000000007F80
3FE0000000007FC0
3FC0000000003FC0
7FC0000000003FE0
7F80000000003FE0
7F80000000001FE0
FF80000000001FF0
ENDCHAR
STARTCHAR 00C2
ENCODING 194
SWIDTH 731 0
DWIDTH 60 0
BBX 60 72 0 0
BITMAP
0000007FC0000000
000000FFE0000000
000001FFF0000000
000003FFF8000000
000007FBFC000000
00000FF1FE000000
00001FE07F000000
00003F803F800000
00007F001FE00000
0001FE000FF00000
0000000000000000
0000000000000000
0000000000000000
0000000000000000
0000000000000000
0000007FC0000000
0000007FE0000000
0000007FE0000000
000000FFF0000000
000000FFF0000000
000001FFF8000000
000001FFF8000000
000003FFFC000000
000003FFFC000000
000007F9FE000000
000007F9FE000000
00000FF0FE000000
00000FF0FF000000
00000FE0FF000000
00001FE07F800000
00001FE07F800000
00003FC03FC00000
00003FC03FC00000
00007F801FE00000
00007F801FE00000
0000FF001FF00000
0000FF000FF00000
0000FF000FF00000
0001FE0007F80000
0001FE0007F80000
0003FC0003FC0000
0003FC0003FC0000
0007F80001FE0000
0007F80001FE0000
000FF00001FF0000
000FF00000FF0000
001FF00000FF8000
001FE000007F8000
001FE000007F8000
003FC000003FC000
003FC000003FC000
007FFFFFFFFFE000
007FFFFFFFFFE000
00FFFFFFFFFFF000
00FFFFFFFFFFF000
01FFFFFFFFFFF800
01FFFFFFFFFFF800
03FFFFFFFFFFFC00
03FC00000003FC00
03FC00000003FC00
07F800000003FE00
07F800000001FE00
0FF800000001FF00
0FF000000000FF00
1FF000000000FF80
1FE0000000007F80
3FE0000000007FC0
3FC0000000003FC0
7FC0000000003FE0
7F80000000003FE0
7F80000000001FE0
FF80000000001FF0
ENDCHAR
STARTCHAR 00C3
ENCODING 195
SWIDTH 731 0
DWIDTH 60 0
BBX 60 72 0 0
BITMAP
00000FF001E00000
00001FF801E00000
00003FFC03E00000
00007FFE03E00000
00007F7F87E00000
0000FC1FFFC00000
0000F80FFFC00000
0000F807FF800000
0000F001FF000000
0000F0007C000000
0000000000000000
0000000000000000
0000000000000000
0000000000000000
0000000000000000
0000007FC0000000
0000007FE0000000
0000007FE0000000
000000FFF0000000
000000FFF0000000
000001FFF8000000
000001FFF8000000
000003FFFC000000
000003FFFC000000
000007F9FE000000
000007F9FE000000
00000FF0FE000000
00000FF0FF000000
00000FE0FF000000
00001FE07F800000
00001FE07F800000
00003FC03FC00000
00003FC03FC00000
00007F801FE00000
00007F801FE00000
0000FF001FF00000
0000FF000FF00000
0000FF000FF00000
0001FE0007F80000
0001FE0007F80000
0003FC0003FC0000
0003FC0003FC0000
0007F80001FE0000
0007F80001FE0000
000FF00001FF0000
000FF00000FF0000
001FF00000FF8000
001FE000007F8000
001FE000007F8000
003FC000003FC000
003FC000003FC000
007FFFFFFFFFE000
007FFFFFFFFFE000
00FFFFFFFFFFF000
00FFFFFFFFFFF000
01FFFFFFFFFFF800
01FFFFFFFFFFF800
03FFFFFFFFFFFC00
03FC00000003FC00
03FC00000003FC00
07F800000003FE00
07F800000001FE00
0FF800000001FF00
0FF000000000FF00
1FF000000000FF80
1FE0000000007F80
3FE0000000007FC0
3FC0000000003FC0
7FC0000000003FE0
7F80000000003FE0
7F80000000001FE0
FF80000000001FF0
ENDCHAR
STARTCHAR 00C4
ENCODING 196
SWIDTH 731 0
DWIDTH 60 0
BBX 60 72 0 0
BITMAP
0000060004000000
00001F803F000000
00003FC03F800000
00003FC07F800000
00003FC07F800000
00003FC07F800000
00003FC07F800000
00001F803F000000
00000F000E000000
0000000000000000
0000000000000000
0000000000000000
0000000000000000
0000000000000000
0000000000000000
0000007FC0000000
0000007FE0000000
0000007FE0000000
000000FFF0000000
000000FFF0000000
000001FFF8000000
000001FFF8000000
000003FFFC000000
000003FFFC000000
000007F9FE000000
000007F9FE000000
00000FF0FE000000
00000FF0FF000000
00000FE0FF000000
00001FE07F800000
00001FE07F800000
00003FC03FC00000
00003FC03FC00000
00007F801FE00000
00007F801FE00000
0000FF001FF00000
0000FF000FF00000
0000FF000FF00000
0001FE0007F80000
0001FE0007F80000
0003FC0003FC0000
0003FC0003FC0000
0007F80001FE0000
0007F80001FE0000
000FF00001FF0000
000FF00000FF0000
001FF00000FF8000
001FE000007F8000
001FE000007F8000
003FC000003FC000
003FC000003FC000
007FFFFFFFFFE000
007FFFFFFFFFE000
00FFFFFFFFFFF000
00FFFFFFFFFFF000
01FFFFFFFFFFF800
01FFFFFFFFFFF800
03FFFFFFFFFFFC00
03FC00000003FC00
03FC00000003FC00
07F800000003FE00
07F800000001FE00
0FF800000001FF00
0FF000000000FF00
1FF000000000FF80
1FE0000000007F80
3FE0000000007FC0
3FC0000000003FC0
7FC0000000003FE0
7F80000000003FE0
7F80000000001FE0
FF80000000001FF0
ENDCHAR
STARTCHAR 00C5
ENCODING 197
SWIDTH 731 0
DWIDTH 60 0
BBX 60 81 0 0
BITMAP
0000000400000000
0000007FC0000000
000000FFE0000000
000001FFF0000000
000003E0F8000000
000007C07C000000
000007803C000000
000007001C000000
000007001E000000
00000F001E000000
000007001E000000
000007801C000000
000007803C000000
000007C07C000000
000003F1F8000000
000001FFF0000000
000000FFE0000000
0000003F80000000
0000000000000000
0000000000000000
0000000000000000
0000000000000000
0000000000000000
0000000000000000
0000007FC0000000
0000007FE0000000
0000007FE0000000
000000FFF0000000
000000FFF0000000
000001FFF8000000
000001FFF8000000
000003FFFC000000
000003FFFC000000
000007F9FE000000
000007F9FE000000
00000FF0FE000000
00000FF0FF000000
00000FE0FF000000
00001FE07F800000
00001FE07F800000
00003FC03FC00000
00003FC03FC00000
00007F801FE00000
00007F801FE00000
0000FF001FF00000
0000FF000FF00000
0000FF000FF00000
0001FE0007F80000
0001FE0007F80000
0003FC0003FC0000
0003FC0003FC0000
0007F80001FE0000
0007F80001FE0000
000FF00001FF0000
000FF00000FF0000
001FF00000FF8000
001FE000007F8000
001FE000007F8000
003FC000003FC000
003FC000003FC000
007FFFFFFFFFE000
007FFFFFFFFFE000
00FFFFFFFFFFF000
00FFFFFFFFFFF000
01FFFFFFFFFFF800
01FFFFFFFFFFF800
03FFFFFFFFFFFC00
03FC00000003FC00
03FC00000003FC00
07F800000003FE00
07F800000001FE00
0FF800000001FF00
0FF000000000FF00
1FF000000000FF80
1FE0000000007F80
3FE0000000007FC0
3FC0000000003FC0
7FC0000000003FE0
7F80000000003FE0
7F80000000001FE0
FF80000000001FF0
ENDCHAR
STARTCHAR 00C6
ENCODING 198
SWIDTH 1048 0
DWIDTH 86 0
BBX 81 57 0 0
BITMAP
000000003FFFFFFFFFFF00
000000007FFFFFFFFFFF00
00000000FFFFFFFFFFFF00
00000000FFFFFFFFFFFF00
00000001FFFFFFFFFFFF00
00000001FFFFFFFFFFFF00
00000003FFFFFFFFFFFF00
00000007FCFF0000000000
00000007F8FF0000000000
0000000FF0FF0000000000
0000000FF0FF0000000000
0000001FE0FF0000000000
0000003FE0FF0000000000
0000003FC0FF0000000000
0000007F80FF0000000000
0000007F80FF0000000000
000000FF00FF0000000000
000001FF00FF0000000000
000001FE00FF0000000000
000003FC00FF0000000000
000003FC00FF0000000000
000007F800FF0000000000
00000FF800FF0000000000
00000FF000FF0000000000
00001FF000FFFFFFFFF800
00001FE000FFFFFFFFF800
00003FC000FFFFFFFFF800
00007FC000FFFFFFFFF800
00007F8000FFFFFFFFF800
0000FF8000FFFFFFFFF800
0000FF0000FFFFFFFFF800
0001FE0000FF0000000000
0003FE0000FF0000000000
0003FC0000FF0000000000
0007FC0000FF0000000000
0007F80000FF0000000000
000FFFFFFFFF0000000000
000FFFFFFFFF0000000000
001FFFFFFFFF0000000000
003FFFFFFFFF0000000000
003FFFFFFFFF0000000000
007FFFFFFFFF0000000000
007FFFFFFFFF0000000000
00FF000000FF0000000000
01FF000000FF0000000000
01FE000000FF0000000000
03FE000000FF0000000000
03FC000000FF0000000000
07F8000000FF0000000000
0FF8000000FF0000000000
0FF0000000FFFFFFFFFF80
1FF0000000FFFFFFFFFF80
1FE0000000FFFFFFFFFF80
3FC0000000FFFFFFFFFF80
7FC0000000FFFFFFFFFF80
7F80000000FFFFFFFFFF80
FF80000000FFFFFFFFFF80
ENDCHAR
STARTCHAR 00C7
ENCODING 199
SWIDTH 719 0
DWIDTH 59 0
BBX 52 76 4 -18
BITMAP
000000FFF80000
00000FFFFF8000
00007FFFFFE000
0001FFFFFFF800
0003FFFFFFFE00
000FFFFFFFFF00
001FFFFFFFFFC0
007FFFF03FFFE0
00FFFE0003FFF0
01FFF000007FF0
01FFC000003FE0
03FF8000000F80
07FF0000000700
0FFE0000000200
0FFC0000000000
1FF80000000000
1FF00000000000
3FE00000000000
3FE00000000000
7FC00000000000
7FC00000000000
7F800000000000
7F800000000000
FF800000000000
FF800000000000
FF000000000000
FF000000000000
FF000000000000
FF000000000000
FF000000000000
FF000000000000
FF000000000000
FF000000000000
FF000000000000
FF800000000000
7F800000000000
7F800000000000
7FC00000000000
7FC00000000000
3FC00000000000
3FE00000000000
3FF00000000000
1FF00000000000
1FF80000000000
0FFC0000000200
07FE0000000300
07FF0000000780
03FF8000001FC0
01FFE000003FE0
00FFF80000FFF0
007FFF0007FFE0
003FFFFFFFFFC0
001FFFFFFFFF80
000FFFFFFFFF00
0003FFFFFFFC00
0000FFFFFFF800
00003FFFFFC000
000007FFFE0000
0000003FC00000
0000003C000000
0000003C000000
0000007C000000
0000007F000000
0000007FC00000
000000FFE00000
0000001FF00000
00000003F00000
00000001F80000
00000001F80000
00000001F80000
00000001F80000
00000607F00000
00000FFFF00000
00000FFFE00000
00001FFFC00000
000007FF000000
ENDCHAR
STARTCHAR 00C8
ENCODING 200
SWIDTH 670 0
DWIDTH 55 0
BBX 41 72 9 0
BITMAP
07FF00000000
01FF80000000
00FFC0000000
003FE0000000
001FF0000000
000FF8000000
0003FC000000
0001FE000000
0000FF000000
00007F800000
000000400000
000000000000
000000000000
000000000000
000000000000
FFFFFFFFFF00
FFFFFFFFFF00
FFFFFFFFFF00
FFFFFFFFFF00
FFFFFFFFFF00
FFFFFFFFFF00
FFFFFFFFFF00
FF0000000000
FF0000000000
FF0000000000
FF0000000000
FF0000000000
FF0000000000
FF0000000000
FF0000000000
FF0000000000
FF0000000000
FF0000000000
FF0000000000
FF0000000000
FF0000000000
FF0000000000
FF0000000000
FF0000000000
FFFFFFFFF800
FFFFFFFFF800
FFFFFFFFF800
FFFFFFFFF800
FFFFFFFFF800
FFFFFFFFF800
FFFFFFFFF800
FF0000000000
FF0000000000
FF0000000000
FF0000000000
FF0000000000
FF0000000000
FF0000000000
FF0000000000
FF0000000000
FF0000000000
FF0000000000
FF0000000000
FF0000000000
FF0000000000
FF0000000000
FF0000000000
FF0000000000
FF0000000000
FF0000000000
FFFFFFFFFF80
FFFFFFFFFF80
FFFFFFFFFF80
FFFFFFFFFF80
FFFFFFFFFF80
FFFFFFFFFF80
FFFFFFFFFF80
ENDCHAR
STARTCHAR 00C9
ENCODING 201
SWIDTH 670 0
DWIDTH 55 0
BBX 41 72 9 0
BITMAP
000000FFE000
000001FF0000
000003FE0000
00000FFC0000
00001FF00000
00003FE00000
00007FC00000
0000FF000000
0001FE000000
0003FC000000
000400000000
000000000000
000000000000
000000000000
000000000000
FFFFFFFFFF00
FFFFFFFFFF00
FFFFFFFFFF00
FFFFFFFFFF00
FFFFFFFFFF00
FFFFFFFFFF00
FFFFFFFFFF00
FF0000000000
FF0000000000
FF0000000000
FF0000000000
FF0000000000
FF0000000000
FF0000000000
FF0000000000
FF0000000000
FF0000000000
FF0000000000
FF0000000000
FF0000000000
FF0000000000
FF0000000000
FF0000000000
FF0000000000
FFFFFFFFF800
FFFFFFFFF800
FFFFFFFFF800
FFFFFFFFF800
FFFFFFFFF800
FFFFFFFFF800
FFFFFFFFF800
FF0000000000
FF0000000000
FF0000000000
FF0000000000
FF0000000000
FF0000000000
FF0000000000
FF0000000000
FF0000000000
FF0000000000
FF0000000000
FF0000000000
FF0000000000
FF0000000000
FF0000000000
FF0000000000
FF0000000000
FF0000000000
FF0000000000
FFFFFFFFFF80
FFFFFFFFFF80
FFFFFFFFFF80
FFFFFFFFFF80
FFFFFFFFFF80
FFFFFFFFFF80
FFFFFFFFFF80
ENDCHAR
STARTCHAR 00CA
ENCODING 202
SWIDTH 670 0
DWIDTH 55 0
BBX 41 72 9 0
BITMAP
0001FF000000
0003FF800000
0007FFC00000
000FFFE00000
001FEFF00000
003FC7F80000
007F81FC0000
00FE00FE0000
01FC007F8000
07F8003FC000
000000000000
000000000000
000000000000
000000000000
000000000000
FFFFFFFFFF00
FFFFFFFFFF00
FFFFFFFFFF00
FFFFFFFFFF00
FFFFFFFFFF00
FFFFFFFFFF00
FFFFFFFFFF00
FF0000000000
FF0000000000
FF0000000000
FF0000000000
FF0000000000
FF0000000000
FF0000000000
FF0000000000
FF0000000000
FF0000000000
FF0000000000
FF0000000000
FF0000000000
FF0000000000
FF0000000000
FF0000000000
FF0000000000
FFFFFFFFF800
FFFFFFFFF800
FFFFFFFFF800
FFFFFFFFF800
FFFFFFFFF800
FFFFFFFFF800
FFFFFFFFF800
FF0000000000
FF0000000000
FF0000000000
FF0000000000
FF0000000000
FF0000000000
FF0000000000
FF0000000000
FF0000000000
FF0000000000
FF0000000000
FF0000000000
FF0000000000
FF0000000000
FF0000000000
FF0000000000
FF0000000000
FF0000000000
FF0000000000
FFFFFFFFFF80
FFFFFFFFFF80
FFFFFFFFFF80
FFFFFFFFFF80
FFFFFFFFFF80
FFFFFFFFFF80
FFFFFFFFFF80
ENDCHAR
STARTCHAR 00CB
ENCODING 203
SWIDTH 670 0
DWIDTH 55 0
BBX 41 72 9 0
BITMAP
001800100000
007E00FC0000
00FF00FE0000
00FF01FE0000
00FF01FE0000
00FF01FE0000
00FF01FE0000
007E00FC0000
003C00380000
000000000000
000000000000
000000000000
000000000000
000000000000
000000000000
FFFFFFFFFF00
FFFFFFFFFF00
FFFFFFFFFF00
FFFFFFFFFF00
FFFFFFFFFF00
FFFFFFFFFF00
FFFFFFFFFF00
FF0000000000
FF0000000000
FF0000000000
FF0000000000
FF0000000000
FF0000000000
FF0000000000
FF0000000000
FF0000000000
FF0000000000
FF0000000000
FF0000000000
FF0000000000
FF0000000000
FF0000000000
FF0000000000
FF0000000000
FFFFFFFFF800
FFFFFFFFF800
FFFFFFFFF800
FFFFFFFFF800
FFFFFFFFF800
FFFFFFFFF800
FFFFFFFFF800
FF0000000000
FF0000000000
FF0000000000
FF0000000000
FF0000000000
FF0000000000
FF0000000000
FF0000000000
FF0000000000
FF0000000000
FF0000000000
FF0000000000
FF0000000000
FF0000000000
FF0000000000
FF0000000000
FF0000000000
FF0000000000
FF0000000000
FFFFFFFFFF80
FFFFFFFFFF80
FFFFFFFFFF80
FFFFFFFFFF80
FFFFFFFFFF80
FFFFFFFFFF80
FFFFFFFFFF80
ENDCHAR
STARTCHAR 00CC
ENCODING 204
SWIDTH 304 0
DWIDTH 25 0
BBX 21 72 -2 0
BITMAP
FFE000
3FF000
1FF800
07FC00
03FE00
01FF00
007F80
003FC0
001FE0
000FF0
000008
000000
000000
000000
000000
001FE0
001FE0
001FE0
001FE0
001FE0
001FE0
001FE0
001FE0
001FE0
001FE0
001FE0
001FE0
001FE0
001FE0
001FE0
001FE0
001FE0
001FE0
001FE0
001FE0
001FE0
001FE0
001FE0
001FE0
001FE0
001FE0
001FE0
001FE0
001FE0
001FE0
001FE0
001FE0
001FE0
001FE0
001FE0
001FE0
001FE0
001FE0
001FE0
001FE0
001FE0
001FE0
001FE0
001FE0
001FE0
001FE0
001FE0
001FE0
001FE0
001FE0
001FE0
001FE0
001FE0
001FE0
001FE0
001FE0
001FE0
ENDCHAR
STARTCHAR 00CD
ENCODING 205
SWIDTH 304 0
DWIDTH 25 0
BBX 22 72 6 0
BITMAP
001FFC
003FE0
007FC0
01FF80
03FE00
07FC00
0FF800
1FE000
3FC000
7F8000
800000
000000
000000
000000
000000
1FE000
1FE000
1FE000
1FE000
1FE000
1FE000
1FE000
1FE000
1FE000
1FE000
1FE000
1FE000
1FE000
1FE000
1FE000
1FE000
1FE000
1FE000
1FE000
1FE000
1FE000
1FE000
1FE000
1FE000
1FE000
1FE000
1FE000
1FE000
1FE000
1FE000
1FE000
1FE000
1FE000
1FE000
1FE000
1FE000
1FE000
1FE000
1FE000
1FE000
1FE000
1FE000
1FE000
1FE000
1FE000
1FE000
1FE000
1FE000
1FE000
1FE000
1FE000
1FE000
1FE000
1FE000
1FE000
1FE000
1FE000
ENDCHAR
STARTCHAR 00CE
ENCODING 206
SWIDTH 304 0
DWIDTH 25 0
BBX 29 72 -2 0
BITMAP
003FE000
007FF000
00FFF800
01FFFC00
03FDFE00
07F8FF00
0FF03F80
1FC01FC0
3F800FF0
FF0007F8
00000000
00000000
00000000
00000000
00000000
001FE000
001FE000
001FE000
001FE000
001FE000
001FE000
001FE000
001FE000
001FE000
001FE000
001FE000
001FE000
001FE000
001FE000
001FE000
001FE000
001FE000
001FE000
001FE000
001FE000
001FE000
001FE000
001FE000
001FE000
001FE000
001FE000
001FE000
001FE000
001FE000
001FE000
001FE000
001FE000
001FE000
001FE000
001FE000
001FE000
001FE000
001FE000
001FE000
001FE000
001FE000
001FE000
001FE000
001FE000
001FE000
001FE000
001FE000
001FE000
001FE000
001FE000
001FE000
001FE000
001FE000
001FE000
001FE000
001FE000
001FE000
ENDCHAR
STARTCHAR 00CF
ENCODING 207
SWIDTH 304 0
DWIDTH 25 0
BBX 23 72 1 0
BITMAP
180010
7E00FC
FF00FE
FF01FE
FF01FE
FF01FE
FF01FE
7E00FC
3C0038
000000
000000
000000
000000
000000
000000
00FF00
00FF00
00FF00
00FF00
00FF00
00FF00
00FF00
00FF00
00FF00
00FF00
00FF00
00FF00
00FF00
00FF00
00FF00
00FF00
00FF00
00FF00
00FF00
00FF00
00FF00
00FF00
00FF00
00FF00
00FF00
00FF00
00FF00
00FF00
00FF00
00FF00
00FF00
00FF00
00FF00
00FF00
00FF00
00FF00
00FF00
00FF00
00FF00
00FF00
00FF00
00FF00
00FF00
00FF00
00FF00
00FF00
00FF00
00FF00
00FF00
00FF00
00FF00
00FF00
00FF00
00FF00
00FF00
00FF00
00FF00
ENDCHAR
STARTCHAR 00D0
ENCODING 208
SWIDTH 829 0
DWIDTH 68 0
BBX 64 57 1 0
BITMAP
007FFFFFFF800000
007FFFFFFFF80000
007FFFFFFFFE0000
007FFFFFFFFFC000
007FFFFFFFFFE000
007FFFFFFFFFF800
007FFFFFFFFFFC00
007F800001FFFE00
007F8000001FFF00
007F80000007FF80
007F80000003FFC0
007F80000000FFE0
007F800000007FE0
007F800000003FF0
007F800000001FF8
007F800000000FF8
007F800000000FFC
007F8000000007FC
007F8000000003FC
007F8000000003FE
007F8000000003FE
007F8000000001FE
007F8000000001FE
007F8000000001FE
007F8000000001FF
FFFFFFFF800001FF
FFFFFFFF800000FF
FFFFFFFF800000FF
FFFFFFFF800000FF
FFFFFFFF800000FF
FFFFFFFF800001FF
007F8000000001FF
007F8000000001FF
007F8000000001FE
007F8000000001FE
007F8000000003FE
007F8000000003FE
007F8000000003FC
007F8000000007FC
007F8000000007FC
007F800000000FF8
007F800000001FF8
007F800000001FF0
007F800000003FF0
007F800000007FE0
007F80000001FFC0
007F80000003FFC0
007F8000000FFF80
007F8000007FFF00
007F800007FFFE00
007FFFFFFFFFFC00
007FFFFFFFFFF000
007FFFFFFFFFE000
007FFFFFFFFF8000
007FFFFFFFFE0000
007FFFFFFFF00000
007FFFFFFE000000
ENDCHAR
STARTCHAR 00D1
ENCODING 209
SWIDTH 817 0
DWIDTH 67 0
BBX 49 72 9 0
BITMAP
0001FE003C0000
0003FF003C0000
0007FF807C0000
000FFFC07C0000
000FEFF0FC0000
001F83FFF80000
001F01FFF80000
001F00FFF00000
001E003FE00000
001E000F800000
00000000000000
00000000000000
00000000000000
00000000000000
00000000000000
FE000000007F80
FF000000007F80
FF800000007F80
FF800000007F80
FFC00000007F80
FFE00000007F80
FFF00000007F80
FFF80000007F80
FFFC0000007F80
FFFC0000007F80
FFFE0000007F80
FFFF0000007F80
FFFF8000007F80
FFFFC000007F80
FFFFC000007F80
FF7FE000007F80
FF3FF000007F80
FF3FF800007F80
FF1FFC00007F80
FF0FFC00007F80
FF07FE00007F80
FF03FF00007F80
FF03FF80007F80
FF01FFC0007F80
FF00FFC0007F80
FF007FE0007F80
FF003FF0007F80
FF003FF8007F80
FF001FFC007F80
FF000FFC007F80
FF0007FE007F80
FF0003FF007F80
FF0001FF807F80
FF0001FFC07F80
FF0000FFC07F80
FF00007FE07F80
FF00003FF07F80
FF00001FF87F80
FF00001FFC7F80
FF00000FFC7F80
FF000007FE7F80
FF000003FF7F80
FF000001FFFF80
FF000001FFFF80
FF000000FFFF80
FF0000007FFF80
FF0000003FFF80
FF0000001FFF80
FF0000001FFF80
FF0000000FFF80
FF00000007FF80
FF00000003FF80
FF00000001FF80
FF00000001FF80
FF00000000FF80
FF000000007F80
FF000000003F80
ENDCHAR
STARTCHAR 00D2
ENCODING 210
SWIDTH 841 0
DWIDTH 69 0
BBX 61 73 4 -1
BITMAP
0000FFE000000000
00003FF000000000
00001FF800000000
000007FC00000000
000003FE00000000
000001FF00000000
0000007F80000000
0000003FC0000000
0000001FE0000000
0000000FF0000000
0000000008000000
0000000000000000
0000000000000000
0000000000000000
000000FFF8000000
00000FFFFF800000
00007FFFFFE00000
0001FFFFFFFC0000
0003FFFFFFFE0000
000FFFFFFFFF8000
001FFFFFFFFFC000
003FFFF07FFFE000
00FFFE0003FFF800
01FFF000007FF800
01FFC000001FFC00
03FF8000000FFE00
07FF00000007FF00
0FFE00000003FF80
0FFC00000001FF80
1FF800000000FFC0
1FF0000000007FC0
3FE0000000007FE0
3FE0000000003FE0
7FC0000000001FE0
7FC0000000001FF0
7F80000000001FF0
7F80000000000FF0
FF80000000000FF0
FF80000000000FF8
FF00000000000FF8
FF000000000007F8
FF000000000007F8
FF000000000007F8
FF000000000007F8
FF000000000007F8
FF000000000007F8
FF000000000007F8
FF00000000000FF8
FF80000000000FF8
7F80000000000FF0
7F80000000000FF0
7FC0000000001FF0
7FC0000000001FF0
3FC0000000003FE0
3FE0000000003FE0
3FF0000000007FC0
1FF0000000007FC0
1FF800000000FFC0
0FFC00000001FF80
07FE00000003FF00
07FF00000007FF00
03FF8000001FFE00
01FFE000003FFC00
00FFF80000FFF800
007FFF0007FFF000
003FFFFFFFFFE000
001FFFFFFFFFC000
0007FFFFFFFF0000
0003FFFFFFFE0000
0000FFFFFFF80000
00003FFFFFE00000
000007FFFF000000
0000001FC0000000
ENDCHAR
STARTCHAR 00D3
ENCODING 211
SWIDTH 841 0
DWIDTH 69 0
BBX 61 73 4 -1
BITMAP
000000001FFC0000
000000003FE00000
000000007FC00000
00000001FF800000
00000003FE000000
00000007FC000000
0000000FF8000000
0000001FE0000000
0000003FC0000000
0000007F80000000
0000008000000000
0000000000000000
0000000000000000
0000000000000000
000000FFF8000000
00000FFFFF800000
00007FFFFFE00000
0001FFFFFFFC0000
0003FFFFFFFE0000
000FFFFFFFFF8000
001FFFFFFFFFC000
003FFFF07FFFE000
00FFFE0003FFF800
01FFF000007FF800
01FFC000001FFC00
03FF8000000FFE00
07FF00000007FF00
0FFE00000003FF80
0FFC00000001FF80
1FF800000000FFC0
1FF0000000007FC0
3FE0000000007FE0
3FE0000000003FE0
7FC0000000001FE0
7FC0000000001FF0
7F80000000001FF0
7F80000000000FF0
FF80000000000FF0
FF80000000000FF8
FF00000000000FF8
FF000000000007F8
FF000000000007F8
FF000000000007F8
FF000000000007F8
FF000000000007F8
FF000000000007F8
FF000000000007F8
FF00000000000FF8
FF80000000000FF8
7F80000000000FF0
7F80000000000FF0
7FC0000000001FF0
7FC0000000001FF0
3FC0000000003FE0
3FE0000000003FE0
3FF0000000007FC0
1FF0000000007FC0
1FF800000000FFC0
0FFC00000001FF80
07FE00000003FF00
07FF00000007FF00
03FF8000001FFE00
01FFE000003FFC00
00FFF80000FFF800
007FFF0007FFF000
003FFFFFFFFFE000
001FFFFFFFFFC000
0007FFFFFFFF0000
0003FFFFFFFE0000
0000FFFFFFF80000
00003FFFFFE00000
000007FFFF000000
0000001FC0000000
ENDCHAR
STARTCHAR 00D4
ENCODING 212
SWIDTH 841 0
DWIDTH 69 0
BBX 61 73 4 -1
BITMAP
0000003FE0000000
0000007FF0000000
000000FFF8000000
000001FFFC000000
000003FDFE000000
000007F8FF000000
00000FF03F800000
00001FC01FC00000
00003F800FF00000
0000FF0007F80000
0000000000000000
0000000000000000
0000000000000000
0000000000000000
000000FFF8000000
00000FFFFF800000
00007FFFFFE00000
0001FFFFFFFC0000
0003FFFFFFFE0000
000FFFFFFFFF8000
001FFFFFFFFFC000
003FFFF07FFFE000
00FFFE0003FFF800
01FFF000007FF800
01FFC000001FFC00
03FF8000000FFE00
07FF00000007FF00
0FFE00000003FF80
0FFC00000001FF80
1FF800000000FFC0
1FF0000000007FC0
3FE0000000007FE0
3FE0000000003FE0
7FC0000000001FE0
7FC0000000001FF0
7F80000000001FF0
7F80000000000FF0
FF80000000000FF0
FF80000000000FF8
FF00000000000FF8
FF000000000007F8
FF000000000007F8
FF000000000007F8
FF000000000007F8
FF000000000007F8
FF000000000007F8
FF000000000007F8
FF00000000000FF8
FF80000000000FF8
7F80000000000FF0
7F80000000000FF0
7FC0000000001FF0
7FC0000000001FF0
3FC0000000003FE0
3FE0000000003FE0
3FF0000000007FC0
1FF0000000007FC0
1FF800000000FFC0
0FFC00000001FF80
07FE00000003FF00
07FF00000007FF00
03FF8000001FFE00
01FFE000003FFC00
00FFF80000FFF800
007FFF0007FFF000
003FFFFFFFFFE000
001FFFFFFFFFC000
0007FFFFFFFF0000
0003FFFFFFFE0000
0000FFFFFFF80000
00003FFFFFE00000
000007FFFF000000
0000001FC0000000
ENDCHAR
STARTCHAR 00D5
ENCODING 213
SWIDTH 841 0
DWIDTH 69 0
BBX 61 73 4 -1
BITMAP
000007F800F00000
00000FFC00F00000
00001FFE01F00000
00003FFF01F00000
00003FBFC3F00000
00007E0FFFE00000
00007C07FFE00000
00007C03FFC00000
00007800FF800000
000078003E000000
0000000000000000
0000000000000000
0000000000000000
0000000000000000
000000FFF8000000
00000FFFFF800000
00007FFFFFE00000
0001FFFFFFFC0000
0003FFFFFFFE0000
000FFFFFFFFF8000
001FFFFFFFFFC000
003FFFF07FFFE000
00FFFE0003FFF800
01FFF000007FF800
01FFC000001FFC00
03FF8000000FFE00
07FF00000007FF00
0FFE00000003FF80
0FFC00000001FF80
1FF800000000FFC0
1FF0000000007FC0
3FE0000000007FE0
3FE0000000003FE0
7FC0000000001FE0
7FC0000000001FF0
7F80000000001FF0
7F80000000000FF0
FF80000000000FF0
FF80000000000FF8
FF00000000000FF8
FF000000000007F8
FF000000000007F8
FF000000000007F8
FF000000000007F8
FF000000000007F8
FF000000000007F8
FF000000000007F8
FF00000000000FF8
FF80000000000FF8
7F80000000000FF0
7F80000000000FF0
7FC0000000001FF0
7FC0000000001FF0
3FC0000000003FE0
3FE0000000003FE0
3FF0000000007FC0
1FF0000000007FC0
1FF800000000FFC0
0FFC00000001FF80
07FE00000003FF00
07FF00000007FF00
03FF8000001FFE00
01FFE000003FFC00
00FFF80000FFF800
007FFF0007FFF000
003FFFFFFFFFE000
001FFFFFFFFFC000
0007FFFFFFFF0000
0003FFFFFFFE0000
0000FFFFFFF80000
00003FFFFFE00000
000007FFFF000000
0000001FC0000000
ENDCHAR
STARTCHAR 00D6
ENCODING 214
SWIDTH 841 0
DWIDTH 69 0
BBX 61 73 4 -1
BITMAP
0000030002000000
00000FC01F800000
00001FE01FC00000
00001FE03FC00000
00001FE03FC00000
00001FE03FC00000
00001FE03FC00000
00000FC01F800000
0000078007000000
0000000000000000
0000000000000000
0000000000000000
0000000000000000
0000000000000000
000000FFF8000000
00000FFFFF800000
00007FFFFFE00000
0001FFFFFFFC0000
0003FFFFFFFE0000
000FFFFFFFFF8000
001FFFFFFFFFC000
003FFFF07FFFE000
00FFFE0003FFF800
01FFF000007FF800
01FFC000001FFC00
03FF8000000FFE00
07FF00000007FF00
0FFE00000003FF80
0FFC00000001FF80
1FF800000000FFC0
1FF0000000007FC0
3FE0000000007FE0
3FE0000000003FE0
7FC0000000001FE0
7FC0000000001FF0
7F80000000001FF0
7F80000000000FF0
FF80000000000FF0
FF80000000000FF8
FF00000000000FF8
FF000000000007F8
FF000000000007F8
FF000000000007F8
FF000000000007F8
FF000000000007F8
FF000000000007F8
FF000000000007F8
FF00000000000FF8
FF80000000000FF8
7F80000000000FF0
7F80000000000FF0
7FC0000000001FF0
7FC0000000001FF0
3FC0000000003FE0
3FE0000000003FE0
3FF0000000007FC0
1FF0000000007FC0
1FF800000000FFC0
0FFC00000001FF80
07FE00000003FF00
07FF00000007FF00
03FF8000001FFE00
01FFE000003FFC00
00FFF80000FFF800
007FFF0007FFF000
003FFFFFFFFFE000
001FFFFFFFFFC000
0007FFFFFFFF0000
0003FFFFFFFE0000
0000FFFFFFF80000
00003FFFFFE00000
000007FFFF000000
0000001FC0000000
ENDCHAR
STARTCHAR 00D7
ENCODING 215
SWIDTH 585 0
DWIDTH 48 0
BBX 30 31 9 13
BITMAP
08000040
1C0000E0
3E0001F0
7F0003F8
FF8007FC
7FC00FF8
3FE01FF0
1FF03FE0
0FF87FC0
07FCFF80
03FFFF00
01FFFE00
00FFFC00
007FF800
003FF000
003FF000
007FF800
00FFFC00
01FFFE00
03FFFF00
07FDFF80
0FF8FFC0
1FF07FE0
3FE03FF0
7FC01FF8
FF800FFC
FF0007FC
7E0003F8
3C0001F0
180000E0
08000040
ENDCHAR
STARTCHAR 00D8
ENCODING 216
SWIDTH 841 0
DWIDTH 69 0
BBX 61 69 4 -6
BITMAP
0000000000001FC0
0000000000001F80
0000000000003F00
0000000000007F00
000000000000FE00
000000FFF800FC00
00000FFFFF81F800
00007FFFFFE3F800
0001FFFFFFFFF000
0003FFFFFFFFE000
000FFFFFFFFFC000
001FFFFFFFFFC000
003FFFF07FFFE000
00FFFE0003FFF800
01FFF000007FF800
01FFC00000FFFC00
03FF800000FFFE00
07FF000001FFFF00
0FFE000003FBFF80
0FFC000003F1FF80
1FF8000007E0FFC0
1FF000000FE07FC0
3FE000001FC07FE0
3FE000001F803FE0
7FC000003F001FE0
7FC000007F001FF0
7F8000007E001FF0
7F800000FC000FF0
FF800001FC000FF0
FF800003F8000FF8
FF000003F0000FF8
FF000007E00007F8
FF00000FE00007F8
FF00000FC00007F8
FF00001F800007F8
FF00003F800007F8
FF00007F000007F8
FF00007E000007F8
FF0000FC00000FF8
FF8001FC00000FF8
7F8001F800000FF0
7F8003F000000FF0
7FC007F000001FF0
7FC00FE000001FF0
3FC00FC000003FE0
3FE01F8000003FE0
3FF03F8000007FC0
1FF03F0000007FC0
1FF87E000000FFC0
0FFCFE000001FF80
07FFFC000003FF00
07FFF8000007FF00
03FFF000001FFE00
01FFF000003FFC00
00FFF80000FFF800
007FFF0007FFF000
003FFFFFFFFFE000
003FFFFFFFFFC000
003FFFFFFFFF0000
007FFFFFFFFE0000
00FEFFFFFFF80000
00FC3FFFFFE00000
01F807FFFF000000
03F0001FC0000000
07F0000000000000
07E0000000000000
0FC0000000000000
1FC0000000000000
3F80000000000000
ENDCHAR
STARTCHAR 00D9
ENCODING 217
SWIDTH 792 0
DWIDTH 65 0
BBX 49 73 8 -1
BITMAP
003FF800000000
000FFC00000000
0007FE00000000
0001FF00000000
0000FF80000000
00007FC0000000
00001FE0000000
00000FF0000000
000007F8000000
000003FC000000
00000002000000
00000000000000
00000000000000
00000000000000
00000000000000
FF000000007F80
FF000000007F80
FF000000007F80
FF000000007F80
FF000000007F80
FF000000007F80
FF000000007F80
FF000000007F80
FF000000007F80
FF000000007F80
FF000000007F80
FF000000007F80
FF000000007F80
FF000000007F80
FF000000007F80
FF000000007F80
FF000000007F80
FF000000007F80
FF000000007F80
FF000000007F80
FF000000007F80
FF000000007F80
FF000000007F80
FF000000007F80
FF000000007F80
FF000000007F80
FF000000007F80
FF000000007F80
FF000000007F80
FF000000007F80
FF000000007F80
FF000000007F80
FF000000007F80
FF000000007F80
FF000000007F80
FF000000007F80
FF80000000FF00
FF80000000FF00
7F80000000FF00
7F80000000FF00
7F80000000FF00
7FC0000001FF00
7FC0000001FE00
3FE0000003FE00
3FE0000003FE00
1FF0000007FC00
1FF800000FFC00
0FFC00001FF800
0FFF00007FF000
07FFC001FFF000
03FFFFFFFFE000
01FFFFFFFFC000
00FFFFFFFF8000
007FFFFFFE0000
001FFFFFFC0000
0007FFFFF00000
0000FFFF800000
000003E0000000
ENDCHAR
STARTCHAR 00DA
ENCODING 218
SWIDTH 792 0
DWIDTH 65 0
BBX 49 73 8 -1
BITMAP
00000007FF0000
0000000FF80000
0000001FF00000
0000007FE00000
000000FF800000
000001FF000000
000003FE000000
000007F8000000
00000FF0000000
00001FE0000000
00002000000000
00000000000000
00000000000000
00000000000000
00000000000000
FF000000007F80
FF000000007F80
FF000000007F80
FF000000007F80
FF000000007F80
FF000000007F80
FF000000007F80
FF000000007F80
FF000000007F80
FF000000007F80
FF000000007F80
FF000000007F80
FF000000007F80
FF000000007F80
FF000000007F80
FF000000007F80
FF000000007F80
FF000000007F80
FF000000007F80
FF000000007F80
FF000000007F80
FF000000007F80
FF000000007F80
FF000000007F80
FF000000007F80
FF000000007F80
FF000000007F80
FF000000007F80
FF000000007F80
FF000000007F80
FF000000007F80
FF000000007F80
FF000000007F80
FF000000007F80
FF000000007F80
FF000000007F80
FF80000000FF00
FF80000000FF00
7F80000000FF00
7F80000000FF00
7F80000000FF00
7FC0000001FF00
7FC0000001FE00
3FE0000003FE00
3FE0000003FE00
1FF0000007FC00
1FF800000FFC00
0FFC00001FF800
0FFF00007FF000
07FFC001FFF000
03FFFFFFFFE000
01FFFFFFFFC000
00FFFFFFFF8000
007FFFFFFE0000
001FFFFFFC0000
0007FFFFF00000
0000FFFF800000
000003E0000000
ENDCHAR
STARTCHAR 00DB
ENCODING 219
SWIDTH 792 0
DWIDTH 65 0
BBX 49 73 8 -1
BITMAP
00000FF8000000
00001FFC000000
00003FFE000000
00007FFF000000
0000FF7F800000
0001FE3FC00000
0003FC0FE00000
0007F007F00000
000FE003FC0000
003FC001FE0000
00000000000000
00000000000000
00000000000000
00000000000000
00000000000000
FF000000007F80
FF000000007F80
FF000000007F80
FF000000007F80
FF000000007F80
FF000000007F80
FF000000007F80
FF000000007F80
FF000000007F80
FF000000007F80
FF000000007F80
FF000000007F80
FF000000007F80
FF000000007F80
FF000000007F80
FF000000007F80
FF000000007F80
FF000000007F80
FF000000007F80
FF000000007F80
FF000000007F80
FF000000007F80
FF000000007F80
FF000000007F80
FF000000007F80
FF000000007F80
FF000000007F80
FF000000007F80
FF000000007F80
FF000000007F80
FF000000007F80
FF000000007F80
FF000000007F80
FF000000007F80
FF000000007F80
FF000000007F80
FF80000000FF00
FF80000000FF00
7F80000000FF00
7F80000000FF00
7F80000000FF00
7FC0000001FF00
7FC0000001FE00
3FE0000003FE00
3FE0000003FE00
1FF0000007FC00
1FF800000FFC00
0FFC00001FF800
0FFF00007FF000
07FFC001FFF000
03FFFFFFFFE000
01FFFFFFFFC000
00FFFFFFFF8000
007FFFFFFE0000
001FFFFFFC0000
0007FFFFF00000
0000FFFF800000
000003E0000000
ENDCHAR
STARTCHAR 00DC
ENCODING 220
SWIDTH 792 0
DWIDTH 65 0
BBX 49 73 8 -1
BITMAP
0000C000800000
0003F007E00000
0007F807F00000
0007F80FF00000
0007F80FF00000
0007F80FF00000
0007F80FF00000
0003F007E00000
0001E001C00000
00000000000000
00000000000000
00000000000000
00000000000000
00000000000000
00000000000000
FF000000007F80
FF000000007F80
FF000000007F80
FF000000007F80
FF000000007F80
FF000000007F80
FF000000007F80
FF000000007F80
FF000000007F80
FF000000007F80
FF000000007F80
FF000000007F80
FF000000007F80
FF000000007F80
FF000000007F80
FF000000007F80
FF000000007F80
FF000000007F80
FF000000007F80
FF000000007F80
FF000000007F80
FF000000007F80
FF000000007F80
FF000000007F80
FF000000007F80
FF000000007F80
FF000000007F80
FF000000007F80
FF000000007F80
FF000000007F80
FF000000007F80
FF000000007F80
FF000000007F80
FF000000007F80
FF000000007F80
FF000000007F80
FF80000000FF00
FF80000000FF00
7F80000000FF00
7F80000000FF00
7F80000000FF00
7FC0000001FF00
7FC0000001FE00
3FE0000003FE00
3FE0000003FE00
1FF0000007FC00
1FF800000FFC00
0FFC00001FF800
0FFF00007FF000
07FFC001FFF000
03FFFFFFFFE000
01FFFFFFFFC000
00FFFFFFFF8000
007FFFFFFE0000
001FFFFFFC0000
0007FFFFF00000
0000FFFF800000
000003E0000000
ENDCHAR
STARTCHAR 00DD
ENCODING 221
SWIDTH 646 0
DWIDTH 53 0
BBX 53 72 0 0
BITMAP
00000001FFC000
00000003FE0000
00000007FC0000
0000001FF80000
0000003FE00000
0000007FC00000
000000FF800000
000001FE000000
000003FC000000
000007F8000000
00000800000000
00000000000000
00000000000000
00000000000000
00000000000000
FF8000000007F8
7FC00000000FF0
7FC00000001FF0
3FE00000001FE0
1FE00000003FC0
1FF00000003FC0
0FF80000007F80
0FF8000000FF80
07FC000000FF00
03FC000001FE00
03FE000001FE00
01FF000003FC00
00FF000007FC00
00FF800007F800
007F80000FF000
007FC0000FF000
003FE0001FE000
001FE0003FE000
001FF0003FC000
000FF8007F8000
000FF8007F8000
0007FC00FF0000
0003FC01FE0000
0003FE01FE0000
0001FF03FC0000
0001FF07FC0000
0000FF87F80000
00007F8FF00000
00007FCFF00000
00003FFFE00000
00001FFFE00000
00001FFFC00000
00000FFF800000
00000FFF800000
000007FF000000
000003FF000000
000003FE000000
000003FE000000
000003FE000000
000003FE000000
000003FE000000
000003FE000000
000003FE000000
000003FE000000
000003FE000000
000003FE000000
000003FE000000
000003FE000000
000003FE000000
000003FE000000
000003FE000000
000003FE000000
000003FE000000
000003FE000000
000003FE000000
000003FE000000
000003FE000000
ENDCHAR
STARTCHAR 00DE
ENCODING 222
SWIDTH 719 0
DWIDTH 59 0
BBX 46 57 9 0
BITMAP
FF0000000000
FF0000000000
FF0000000000
FF0000000000
FF0000000000
FF0000000000
FF0000000000
FFFFFFFC0000
FFFFFFFF8000
FFFFFFFFF000
FFFFFFFFF800
FFFFFFFFFE00
FFFFFFFFFF00
FFFFFFFFFF80
FF00000FFFC0
FF000001FFE0
FF0000007FE0
FF0000003FF0
FF0000001FF0
FF0000000FF8
FF0000000FF8
FF00000007F8
FF00000007FC
FF00000007FC
FF00000003FC
FF00000003FC
FF00000003FC
FF00000003FC
FF00000003FC
FF00000007FC
FF00000007FC
FF00000007F8
FF00000007F8
FF0000000FF8
FF0000001FF8
FF0000001FF0
FF0000007FF0
FF000000FFE0
FF000003FFC0
FF00007FFFC0
FFFFFFFFFF80
FFFFFFFFFF00
FFFFFFFFFC00
FFFFFFFFF800
FFFFFFFFE000
FFFFFFFF0000
FFFFFFC00000
FF0000000000
FF0000000000
FF0000000000
FF0000000000
FF0000000000
FF0000000000
FF0000000000
FF0000000000
FF0000000000
FF0000000000
ENDCHAR
STARTCHAR 00DF
ENCODING 223
SWIDTH 670 0
DWIDTH 55 0
BBX 45 61 7 0
BITMAP
0003FFF00000
000FFFFE0000
003FFFFF0000
00FFFFFFC000
01FFFFFFE000
03FFFFFFF000
07FFFFFFF800
0FFF001FFC00
1FFC0007FC00
1FF00003FE00
3FE00001FE00
3FC00001FE00
3FC00000FF00
7F800000FF00
7F800000FF00
7F800000FF00
7F800000FF00
7F000000FF00
FF000000FF00
FF000000FF00
FF000000FE00
FF000001FE00
FF000001FE00
FF000003FC00
FF000007F800
FF00001FF800
FF00007FF000
FF001FFFE000
FF001FFFC000
FF001FFFC000
FF001FFFF000
FF001FFFFC00
FF001FFFFF00
FF001FFFFF80
FF000007FFC0
FF000001FFC0
FF0000007FE0
FF0000003FE0
FF0000001FF0
FF0000000FF0
FF0000000FF0
FF00000007F8
FF00000007F8
FF00000007F8
FF00000007F8
FF00000007F8
FF00000007F8
FF00000007F8
FF0000000FF8
FF0000000FF0
FF0000001FF0
FF0000003FF0
FF0000007FE0
FF000001FFC0
FF007E3FFFC0
FF007FFFFF80
FF00FFFFFF00
FF00FFFFFE00
FF00FFFFF800
FF00FFFFE000
FF007FFF8000
ENDCHAR
STARTCHAR 00E0
ENCODING 224
SWIDTH 597 0
DWIDTH 49 0
BBX 38 60 4 0
BITMAP
07FF000000
01FF800000
00FFC00000
003FE00000
001FF00000
000FF80000
0003FC0000
0001FE0000
0000FF0000
00007F8000
0000004000
0000000000
0000000000
0000000000
0000000000
0000000000
0003FF0000
003FFFF000
01FFFFFC00
07FFFFFF00
1FFFFFFF80
7FFFFFFFC0
3FFFFFFFE0
3FF801FFE0
1FC0007FF0
1F00001FF0
0C00000FF8
08000007F8
00000007F8
00000007FC
00000003FC
00000003FC
00000003FC
00000003FC
00000003FC
001FFFFFFC
00FFFFFFFC
03FFFFFFFC
0FFFFFFFFC
1FFFFFFFFC
3FFFFFFFFC
3FF00003FC
7FC00003FC
7F800003FC
FF800003FC
FF000003FC
FF000003FC
FF000003FC
FF000007FC
FF00000FFC
FF80000FFC
7F80001FFC
7FC0007FFC
3FF001FFFC
3FFFFFFFFC
1FFFFFFFFC
0FFFFFFBFC
07FFFFE3FC
01FFFFC3FC
007FFE03FC
ENDCHAR
STARTCHAR 00E1
ENCODING 225
SWIDTH 597 0
DWIDTH 49 0
BBX 38 60 4 0
BITMAP
000000FFE0
000001FF00
000003FE00
00000FFC00
00001FF000
00003FE000
00007FC000
0000FF0000
0001FE0000
0003FC0000
0004000000
0000000000
0000000000
0000000000
0000000000
0000000000
0003FF0000
003FFFF000
01FFFFFC00
07FFFFFF00
1FFFFFFF80
7FFFFFFFC0
3FFFFFFFE0
3FF801FFE0
1FC0007FF0
1F00001FF0
0C00000FF8
08000007F8
00000007F8
00000007FC
00000003FC
00000003FC
00000003FC
00000003FC
00000003FC
001FFFFFFC
00FFFFFFFC
03FFFFFFFC
0FFFFFFFFC
1FFFFFFFFC
3FFFFFFFFC
3FF00003FC
7FC00003FC
7F800003FC
FF800003FC
FF000003FC
FF000003FC
FF000003FC
FF000007FC
FF00000FFC
FF80000FFC
7F80001FFC
7FC0007FFC
3FF001FFFC
3FFFFFFFFC
1FFFFFFFFC
0FFFFFFBFC
07FFFFE3FC
01FFFFC3FC
007FFE03FC
ENDCHAR
STARTCHAR 00E2
ENCODING 226
SWIDTH 597 0
DWIDTH 49 0
BBX 38 60 4 0
BITMAP
0001FF0000
0003FF8000
0007FFC000
000FFFE000
001FEFF000
003FC7F800
007F81FC00
00FE00FE00
01FC007F80
07F8003FC0
0000000000
0000000000
0000000000
0000000000
0000000000
0000000000
0003FF0000
003FFFF000
01FFFFFC00
07FFFFFF00
1FFFFFFF80
7FFFFFFFC0
3FFFFFFFE0
3FF801FFE0
1FC0007FF0
1F00001FF0
0C00000FF8
08000007F8
00000007F8
00000007FC
00000003FC
00000003FC
00000003FC
00000003FC
00000003FC
001FFFFFFC
00FFFFFFFC
03FFFFFFFC
0FFFFFFFFC
1FFFFFFFFC
3FFFFFFFFC
3FF00003FC
7FC00003FC
7F800003FC
FF800003FC
FF000003FC
FF000003FC
FF000003FC
FF000007FC
FF00000FFC
FF80000FFC
7F80001FFC
7FC0007FFC
3FF001FFFC
3FFFFFFFFC
1FFFFFFFFC
0FFFFFFBFC
07FFFFE3FC
01FFFFC3FC
007FFE03FC
ENDCHAR
STARTCHAR 00E3
ENCODING 227
SWIDTH 597 0
DWIDTH 49 0
BBX 38 60 4 0
BITMAP
003FC00780
007FE00780
00FFF00F80
01FFF80F80
01FDFE1F80
03F07FFF00
03E03FFF00
03E01FFE00
03C007FC00
03C001F000
0000000000
0000000000
0000000000
0000000000
0000000000
0000000000
0003FF0000
003FFFF000
01FFFFFC00
07FFFFFF00
1FFFFFFF80
7FFFFFFFC0
3FFFFFFFE0
3FF801FFE0
1FC0007FF0
1F00001FF0
0C00000FF8
08000007F8
00000007F8
00000007FC
00000003FC
00000003FC
00000003FC
00000003FC
00000003FC
001FFFFFFC
00FFFFFFFC
03FFFFFFFC
0FFFFFFFFC
1FFFFFFFFC
3FFFFFFFFC
3FF00003FC
7FC00003FC
7F800003FC
FF800003FC
FF000003FC
FF000003FC
FF000003FC
FF000007FC
FF00000FFC
FF80000FFC
7F80001FFC
7FC0007FFC
3FF001FFFC
3FFFFFFFFC
1FFFFFFFFC
0FFFFFFBFC
07FFFFE3FC
01FFFFC3FC
007FFE03FC
ENDCHAR
STARTCHAR 00E4
ENCODING 228
SWIDTH 597 0
DWIDTH 49 0
BBX 38 60 4 0
BITMAP
0018001000
007E00FC00
00FF00FE00
00FF01FE00
00FF01FE00
00FF01FE00
00FF01FE00
007E00FC00
003C003800
0000000000
0000000000
0000000000
0000000000
0000000000
0000000000
0000000000
0003FF0000
003FFFF000
01FFFFFC00
07FFFFFF00
1FFFFFFF80
7FFFFFFFC0
3FFFFFFFE0
3FF801FFE0
1FC0007FF0
1F00001FF0
0C00000FF8
08000007F8
00000007F8
00000007FC
00000003FC
00000003FC
00000003FC
00000003FC
00000003FC
001FFFFFFC
00FFFFFFFC
03FFFFFFFC
0FFFFFFFFC
1FFFFFFFFC
3FFFFFFFFC
3FF00003FC
7FC00003FC
7F800003FC
FF800003FC
FF000003FC
FF000003FC
FF000003FC
FF000007FC
FF00000FFC
FF80000FFC
7F80001FFC
7FC0007FFC
3FF001FFFC
3FFFFFFFFC
1FFFFFFFFC
0FFFFFFBFC
07FFFFE3FC
01FFFFC3FC
007FFE03FC
ENDCHAR
STARTCHAR 00E5
ENCODING 229
SWIDTH 597 0
DWIDTH 49 0
BBX 38 67 4 0
BITMAP
0000100000
0001FF0000
0003FF8000
0007FFC000
000F83E000
001F01F000
001E00F000
001C007000
001C007800
003C007800
001C007800
001E007000
001E00F000
001F01F000
000FC7E000
0007FFC000
0003FF8000
0000FE0000
0000000000
0000000000
0000000000
0000000000
0000000000
0003FF0000
003FFFF000
01FFFFFC00
07FFFFFF00
1FFFFFFF80
7FFFFFFFC0
3FFFFFFFE0
3FF801FFE0
1FC0007FF0
1F00001FF0
0C00000FF8
08000007F8
00000007F8
00000007FC
00000003FC
00000003FC
00000003FC
00000003FC
00000003FC
001FFFFFFC
00FFFFFFFC
03FFFFFFFC
0FFFFFFFFC
1FFFFFFFFC
3FFFFFFFFC
3FF00003FC
7FC00003FC
7F800003FC
FF800003FC
FF000003FC
FF000003FC
FF000003FC
FF000007FC
FF00000FFC
FF80000FFC
7F80001FFC
7FC0007FFC
3FF001FFFC
3FFFFFFFFC
1FFFFFFFFC
0FFFFFFBFC
07FFFFE3FC
01FFFFC3FC
007FFE03FC
ENDCHAR
STARTCHAR 00E6
ENCODING 230
SWIDTH 987 0
DWIDTH 81 0
BBX 74 44 4 0
BITMAP
0003FF000000FF000000
003FFFF0000FFFF00000
01FFFFFC003FFFFC0000
07FFFFFF00FFFFFF0000
1FFFFFFF81FFFFFF8000
7FFFFFFFC7FFFFFFE000
3FFFFFFFEFFFFFFFF000
3FFC01FFEFFE007FF800
1FC0007FFFF8001FF800
1F00001FFFE0000FFC00
0C00000FFFC00003FE00
08000007FF800001FE00
00000007FF800001FF00
00000007FF000000FF00
00000003FE0000007F00
00000003FE0000007F80
00000003FE0000007F80
00000003FC0000003F80
00000003FC0000003F80
000FFFFFFFFFFFFFFFC0
00FFFFFFFFFFFFFFFFC0
03FFFFFFFFFFFFFFFFC0
0FFFFFFFFFFFFFFFFFC0
1FFFFFFFFFFFFFFFFFC0
3FFFFFFFFFFFFFFFFF80
3FF00003FC0000000000
7FC00003FC0000000000
7F800003FE0000000000
FF800003FE0000000000
FF000003FE0000000000
FF000003FF0000000000
FF000007FF8000000000
FF000007FF8000002000
FF00000FFFC000006000
FF80000FFFE00000F000
7F80001FFFF80003F800
7FC0007FDFFE000FFC00
3FF001FF8FFFF9FFFE00
3FFFFFFF07FFFFFFFC00
1FFFFFFE03FFFFFFF800
0FFFFFFC01FFFFFFE000
07FFFFF8007FFFFFC000
01FFFFE0001FFFFF0000
003FFF000003FFF80000
ENDCHAR
STARTCHAR 00E7
ENCODING 231
SWIDTH 573 0
DWIDTH 47 0
BBX 41 62 3 -18
BITMAP
00001FF00000
0001FFFF0000
000FFFFFC000
001FFFFFF000
007FFFFFF800
00FFFFFFFC00
01FFFFFFFE00
03FFE01FFF00
07FF0003FF80
0FFE0000FF80
0FF800007E00
1FF000003C00
3FF000001000
3FE000000000
3FC000000000
7FC000000000
7F8000000000
7F8000000000
7F8000000000
7F8000000000
FF0000000000
FF0000000000
FF0000000000
FF0000000000
7F0000000000
7F8000000000
7F8000000000
7F8000000000
7F8000000000
7FC000000000
3FC000000000
3FE000001000
1FF000003800
1FF800007E00
0FFC0000FF00
07FE0001FF80
07FF8007FF00
03FFFCFFFF00
01FFFFFFFE00
00FFFFFFFC00
003FFFFFF000
001FFFFFE000
0007FFFF8000
0000FFFC0000
00001F000000
00001E000000
00001E000000
00003E000000
00003F800000
00003FE00000
00007FF00000
00000FF80000
000001F80000
000000FC0000
000000FC0000
000000FC0000
000000FC0000
000303F80000
0007FFF80000
0007FFF00000
000FFFE00000
0003FF800000
ENDCHAR
STARTCHAR 00E8
ENCODING 232
SWIDTH 609 0
DWIDTH 50 0
BBX 44 60 3 0
BITMAP
00FFE0000000
003FF0000000
001FF8000000
0007FC000000
0003FE000000
0001FF000000
00007F800000
00003FC00000
00001FE00000
00000FF00000
000000080000
000000000000
000000000000
000000000000
000000000000
000000000000
00003FE00000
0003FFFC0000
000FFFFF8000
003FFFFFC000
007FFFFFF000
00FFFFFFF800
03FFFFFFFC00
03FFC01FFE00
07FE0007FF00
0FFC0001FF00
1FF00000FF80
1FF000007F80
3FE000003FC0
3FC000003FC0
3FC000001FE0
7F8000001FE0
7F8000000FE0
7F8000000FE0
7F0000000FE0
7FFFFFFFFFF0
FFFFFFFFFFF0
FFFFFFFFFFF0
FFFFFFFFFFF0
FFFFFFFFFFF0
7FFFFFFFFFF0
7F0000000000
7F8000000000
7F8000000000
7F8000000000
7FC000000000
3FC000000000
3FE000000000
1FF000000800
1FF800001C00
0FFC00003C00
0FFE00007E00
07FF8001FF00
03FFFE7FFF80
01FFFFFFFF00
00FFFFFFFE00
003FFFFFFC00
001FFFFFF000
0007FFFFC000
0000FFFE0000
ENDCHAR
STARTCHAR 00E9
ENCODING 233
SWIDTH 609 0
DWIDTH 50 0
BBX 44 60 3 0
BITMAP
0000001FFC00
0000003FE000
0000007FC000
000001FF8000
000003FE0000
000007FC0000
00000FF80000
00001FE00000
00003FC00000
00007F800000
000080000000
000000000000
000000000000
000000000000
000000000000
000000000000
00003FE00000
0003FFFC0000
000FFFFF8000
003FFFFFC000
007FFFFFF000
00FFFFFFF800
03FFFFFFFC00
03FFC01FFE00
07FE0007FF00
0FFC0001FF00
1FF00000FF80
1FF000007F80
3FE000003FC0
3FC000003FC0
3FC000001FE0
7F8000001FE0
7F8000000FE0
7F8000000FE0
7F0000000FE0
7FFFFFFFFFF0
FFFFFFFFFFF0
FFFFFFFFFFF0
FFFFFFFFFFF0
FFFFFFFFFFF0
7FFFFFFFFFF0
7F0000000000
7F8000000000
7F8000000000
7F8000000000
7FC000000000
3FC000000000
3FE000000000
1FF000000800
1FF800001C00
0FFC00003C00
0FFE00007E00
07FF8001FF00
03FFFE7FFF80
01FFFFFFFF00
00FFFFFFFE00
003FFFFFFC00
001FFFFFF000
0007FFFFC000
0000FFFE0000
ENDCHAR
STARTCHAR 00EA
ENCODING 234
SWIDTH 609 0
DWIDTH 50 0
BBX 44 60 3 0
BITMAP
00003FE00000
00007FF00000
0000FFF80000
0001FFFC0000
0003FDFE0000
0007F8FF0000
000FF03F8000
001FC01FC000
003F800FF000
00FF0007F800
000000000000
000000000000
000000000000
000000000000
000000000000
000000000000
00003FE00000
0003FFFC0000
000FFFFF8000
003FFFFFC000
007FFFFFF000
00FFFFFFF800
03FFFFFFFC00
03FFC01FFE00
07FE0007FF00
0FFC0001FF00
1FF00000FF80
1FF000007F80
3FE000003FC0
3FC000003FC0
3FC000001FE0
7F8000001FE0
7F8000000FE0
7F8000000FE0
7F0000000FE0
7FFFFFFFFFF0
FFFFFFFFFFF0
FFFFFFFFFFF0
FFFFFFFFFFF0
FFFFFFFFFFF0
7FFFFFFFFFF0
7F0000000000
7F8000000000
7F8000000000
7F8000000000
7FC000000000
3FC000000000
3FE000000000
1FF000000800
1FF800001C00
0FFC00003C00
0FFE00007E00
07FF8001FF00
03FFFE7FFF80
01FFFFFFFF00
00FFFFFFFE00
003FFFFFFC00
001FFFFFF000
0007FFFFC000
0000FFFE0000
ENDCHAR
STARTCHAR 00EB
ENCODING 235
SWIDTH 609 0
DWIDTH 50 0
BBX 44 60 3 0
BITMAP
000300020000
000FC01F8000
001FE01FC000
001FE03FC000
001FE03FC000
001FE03FC000
001FE03FC000
000FC01F8000
000780070000
000000000000
000000000000
000000000000
000000000000
000000000000
000000000000
000000000000
00003FE00000
0003FFFC0000
000FFFFF8000
003FFFFFC000
007FFFFFF000
00FFFFFFF800
03FFFFFFFC00
03FFC01FFE00
07FE0007FF00
0FFC0001FF00
1FF00000FF80
1FF000007F80
3FE000003FC0
3FC000003FC0
3FC000001FE0
7F8000001FE0
7F8000000FE0
7F8000000FE0
7F0000000FE0
7FFFFFFFFFF0
FFFFFFFFFFF0
FFFFFFFFFFF0
FFFFFFFFFFF0
FFFFFFFFFFF0
7FFFFFFFFFF0
7F0000000000
7F8000000000
7F8000000000
7F8000000000
7FC000000000
3FC000000000
3FE000000000
1FF000000800
1FF800001C00
0FFC00003C00
0FFE00007E00
07FF8001FF00
03FFFE7FFF80
01FFFFFFFF00
00FFFFFFFE00
003FFFFFFC00
001FFFFFF000
0007FFFFC000
0000FFFE0000
ENDCHAR
STARTCHAR 00EC
ENCODING 236
SWIDTH 280 0
DWIDTH 23 0
BBX 21 60 -3 0
BITMAP
FFE000
3FF000
1FF800
07FC00
03FE00
01FF00
007F80
003FC0
001FE0
000FF0
000008
000000
000000
000000
000000
000000
000000
003FC0
003FC0
003FC0
003FC0
003FC0
003FC0
003FC0
003FC0
003FC0
003FC0
003FC0
003FC0
003FC0
003FC0
003FC0
003FC0
003FC0
003FC0
003FC0
003FC0
003FC0
003FC0
003FC0
003FC0
003FC0
003FC0
003FC0
003FC0
003FC0
003FC0
003FC0
003FC0
003FC0
003FC0
003FC0
003FC0
003FC0
003FC0
003FC0
003FC0
003FC0
003FC0
003FC0
ENDCHAR
STARTCHAR 00ED
ENCODING 237
SWIDTH 280 0
DWIDTH 23 0
BBX 22 60 5 0
BITMAP
001FFC
003FE0
007FC0
01FF80
03FE00
07FC00
0FF800
1FE000
3FC000
7F8000
800000
000000
000000
000000
000000
000000
000000
3FC000
3FC000
3FC000
3FC000
3FC000
3FC000
3FC000
3FC000
3FC000
3FC000
3FC000
3FC000
3FC000
3FC000
3FC000
3FC000
3FC000
3FC000
3FC000
3FC000
3FC000
3FC000
3FC000
3FC000
3FC000
3FC000
3FC000
3FC000
3FC000
3FC000
3FC000
3FC000
3FC000
3FC000
3FC000
3FC000
3FC000
3FC000
3FC000
3FC000
3FC000
3FC000
3FC000
ENDCHAR
STARTCHAR 00EE
ENCODING 238
SWIDTH 280 0
DWIDTH 23 0
BBX 25 60 -1 0
BITMAP
00FF8000
01FFC000
03FFE000
03FFF000
07F7F000
0FE3F800
1FC1FC00
3F80FE00
7F007F00
FE003F80
00000000
00000000
00000000
00000000
00000000
00000000
00000000
00FF0000
00FF0000
00FF0000
00FF0000
00FF0000
00FF0000
00FF0000
00FF0000
00FF0000
00FF0000
00FF0000
00FF0000
00FF0000
00FF0000
00FF0000
00FF0000
00FF0000
00FF0000
00FF0000
00FF0000
00FF0000
00FF0000
00FF0000
00FF0000
00FF0000
00FF0000
00FF0000
00FF0000
00FF0000
00FF0000
00FF0000
00FF0000
00FF0000
00FF0000
00FF0000
00FF0000
00FF0000
00FF0000
00FF0000
00FF0000
00FF0000
00FF0000
00FF0000
ENDCHAR
STARTCHAR 00EF
ENCODING 239
SWIDTH 280 0
DWIDTH 23 0
BBX 20 60 2 0
BITMAP
100100
7C07C0
FE0FE0
FF0FE0
FF1FF0
FF1FE0
FE0FE0
7E0FC0
380380
000000
000000
000000
000000
000000
000000
000000
000000
07F800
07F800
07F800
07F800
07F800
07F800
07F800
07F800
07F800
07F800
07F800
07F800
07F800
07F800
07F800
07F800
07F800
07F800
07F800
07F800
07F800
07F800
07F800
07F800
07F800
07F800
07F800
07F800
07F800
07F800
07F800
07F800
07F800
07F800
07F800
07F800
07F800
07F800
07F800
07F800
07F800
07F800
07F800
ENDCHAR
STARTCHAR 00F0
ENCODING 240
SWIDTH 634 0
DWIDTH 52 0
BBX 46 61 3 -1
BITMAP
000040000000
01FFFFC00000
0FFFFFF80080
07FFFFFF07C0
07FFFFFF9FC0
07FFFFFFFFE0
07FFFFFFFFE0
07F003FFFFC0
0200007FFF00
000003FFFE00
00000FFFFF00
00007FFFFF80
0001FFFCFF80
000FFFE07FC0
003FFF803FC0
01FFFC001FE0
00FFF0001FE0
00FF80000FF0
007E00000FF0
007000000FF0
0040000007F8
0000000007F8
0000000007F8
0000000003F8
0000FFC003FC
000FFFF803FC
003FFFFF03FC
00FFFFFF83FC
01FFFFFFC3FC
03FFFFFFF3FC
07FFFFFFF3FC
0FFF000FFBFC
1FFC0003FFFC
1FF80001FFFC
3FE00000FFFC
3FE000007FFC
7FC000003FFC
7F8000001FFC
7F8000001FFC
7F8000001FF8
FF8000000FF8
FF0000000FF8
FF0000000FF8
FF0000000FF0
7F8000000FF0
7F8000001FF0
7F8000001FE0
7FC000003FE0
7FC000003FC0
3FE000007FC0
3FF00000FF80
1FF80001FF80
1FFE0007FF00
0FFF803FFE00
07FFFFFFFC00
03FFFFFFF800
01FFFFFFF000
007FFFFFC000
001FFFFF0000
0007FFF80000
00003F000000
ENDCHAR
STARTCHAR 00F1
ENCODING 241
SWIDTH 682 0
DWIDTH 56 0
BBX 42 60 7 0
BITMAP
000FF001E000
001FF801E000
003FFC03E000
007FFE03E000
007F7F87E000
00FC1FFFC000
00F80FFFC000
00F807FF8000
00F001FF0000
00F0007C0000
000000000000
000000000000
000000000000
000000000000
000000000000
000000000000
00001FF00000
FF00FFFE0000
FF07FFFFC000
FF0FFFFFE000
FF3FFFFFF000
FF7FFFFFF800
FFFFFFFFFC00
FFFFE07FFE00
FFFF000FFE00
FFFC0003FF00
FFF00001FF00
FFE00000FF80
FFE00000FF80
FFC000007F80
FFC000007F80
FF8000007F80
FF8000003FC0
FF8000003FC0
FF8000003FC0
FF0000003FC0
FF0000003FC0
FF0000003FC0
FF0000003FC0
FF0000003FC0
FF0000003FC0
FF0000003FC0
FF0000003FC0
FF0000003FC0
FF0000003FC0
FF0000003FC0
FF0000003FC0
FF0000003FC0
FF0000003FC0
FF0000003FC0
FF0000003FC0
FF0000003FC0
FF0000003FC0
FF0000003FC0
FF0000003FC0
FF0000003FC0
FF0000003FC0
FF0000003FC0
FF0000003FC0
FF0000003FC0
ENDCHAR
STARTCHAR 00F2
ENCODING 242
SWIDTH 634 0
DWIDTH 52 0
BBX 46 60 3 0
BITMAP
00FFE0000000
003FF0000000
001FF8000000
0007FC000000
0003FE000000
0001FF000000
00007F800000
00003FC00000
00001FE00000
00000FF00000
000000080000
000000000000
000000000000
000000000000
000000000000
000000000000
00001FE00000
0001FFFE0000
000FFFFFC000
003FFFFFF000
007FFFFFF800
00FFFFFFFC00
01FFFFFFFE00
03FFE01FFF00
07FF0003FF80
0FFE0001FFC0
0FF800007FE0
1FF000003FE0
3FF000001FF0
3FE000001FF0
3FC000000FF0
7FC000000FF8
7F80000007F8
7F80000007F8
7F80000007F8
7F80000007F8
FF00000003FC
FF00000003FC
FF00000003FC
FF00000003FC
7F80000003FC
7F80000007F8
7F80000007F8
7F80000007F8
7F80000007F8
7FC000000FF8
3FC000000FF0
3FE000001FF0
1FF000003FE0
1FF800007FE0
0FFC0000FFC0
07FE0001FFC0
07FF8007FF80
03FFFCFFFF00
01FFFFFFFE00
00FFFFFFFC00
003FFFFFF000
001FFFFFE000
0007FFFF8000
0000FFFC0000
ENDCHAR
STARTCHAR 00F3
ENCODING 243
SWIDTH 634 0
DWIDTH 52 0
BBX 46 60 3 0
BITMAP
0000001FFC00
0000003FE000
0000007FC000
000001FF8000
000003FE0000
000007FC0000
00000FF80000
00001FE00000
00003FC00000
00007F800000
000080000000
000000000000
000000000000
000000000000
000000000000
000000000000
00001FE00000
0001FFFE0000
000FFFFFC000
003FFFFFF000
007FFFFFF800
00FFFFFFFC00
01FFFFFFFE00
03FFE01FFF00
07FF0003FF80
0FFE0001FFC0
0FF800007FE0
1FF000003FE0
3FF000001FF0
3FE000001FF0
3FC000000FF0
7FC000000FF8
7F80000007F8
7F80000007F8
7F80000007F8
7F80000007F8
FF00000003FC
FF00000003FC
FF00000003FC
FF00000003FC
7F80000003FC
7F80000007F8
7F80000007F8
7F80000007F8
7F80000007F8
7FC000000FF8
3FC000000FF0
3FE000001FF0
1FF000003FE0
1FF800007FE0
0FFC0000FFC0
07FE0001FFC0
07FF8007FF80
03FFFCFFFF00
01FFFFFFFE00
00FFFFFFFC00
003FFFFFF000
001FFFFFE000
0007FFFF8000
0000FFFC0000
ENDCHAR
STARTCHAR 00F4
ENCODING 244
SWIDTH 634 0
DWIDTH 52 0
BBX 46 60 3 0
BITMAP
00003FE00000
00007FF00000
0000FFF80000
0001FFFC0000
0003FDFE0000
0007F8FF0000
000FF03F8000
001FC01FC000
003F800FF000
00FF0007F800
000000000000
000000000000
000000000000
000000000000
000000000000
000000000000
00001FE00000
0001FFFE0000
000FFFFFC000
003FFFFFF000
007FFFFFF800
00FFFFFFFC00
01FFFFFFFE00
03FFE01FFF00
07FF0003FF80
0FFE0001FFC0
0FF800007FE0
1FF000003FE0
3FF000001FF0
3FE000001FF0
3FC000000FF0
7FC000000FF8
7F80000007F8
7F80000007F8
7F80000007F8
7F80000007F8
FF00000003FC
FF00000003FC
FF00000003FC
FF00000003FC
7F80000003FC
7F80000007F8
7F80000007F8
7F80000007F8
7F80000007F8
7FC000000FF8
3FC000000FF0
3FE000001FF0
1FF000003FE0
1FF800007FE0
0FFC0000FFC0
07FE0001FFC0
07FF8007FF80
03FFFCFFFF00
01FFFFFFFE00
00FFFFFFFC00
003FFFFFF000
001FFFFFE000
0007FFFF8000
0000FFFC0000
ENDCHAR
STARTCHAR 00F5
ENCODING 245
SWIDTH 634 0
DWIDTH 52 0
BBX 46 60 3 0
BITMAP
0007F800F000
000FFC00F000
001FFE01F000
003FFF01F000
003FBFC3F000
007E0FFFE000
007C07FFE000
007C03FFC000
007800FF8000
0078003E0000
000000000000
000000000000
000000000000
000000000000
000000000000
000000000000
00001FE00000
0001FFFE0000
000FFFFFC000
003FFFFFF000
007FFFFFF800
00FFFFFFFC00
01FFFFFFFE00
03FFE01FFF00
07FF0003FF80
0FFE0001FFC0
0FF800007FE0
1FF000003FE0
3FF000001FF0
3FE000001FF0
3FC000000FF0
7FC000000FF8
7F80000007F8
7F80000007F8
7F80000007F8
7F80000007F8
FF00000003FC
FF00000003FC
FF00000003FC
FF00000003FC
7F80000003FC
7F80000007F8
7F80000007F8
7F80000007F8
7F80000007F8
7FC000000FF8
3FC000000FF0
3FE000001FF0
1FF000003FE0
1FF800007FE0
0FFC0000FFC0
07FE0001FFC0
07FF8007FF80
03FFFCFFFF00
01FFFFFFFE00
00FFFFFFFC00
003FFFFFF000
001FFFFFE000
0007FFFF8000
0000FFFC0000
ENDCHAR
STARTCHAR 00F6
ENCODING 246
SWIDTH 634 0
DWIDTH 52 0
BBX 46 60 3 0
BITMAP
000300020000
000FC01F8000
001FE01FC000
001FE03FC000
001FE03FC000
001FE03FC000
001FE03FC000
000FC01F8000
000780070000
000000000000
000000000000
000000000000
000000000000
000000000000
000000000000
000000000000
00001FE00000
0001FFFE0000
000FFFFFC000
003FFFFFF000
007FFFFFF800
00FFFFFFFC00
01FFFFFFFE00
03FFE01FFF00
07FF0003FF80
0FFE0001FFC0
0FF800007FE0
1FF000003FE0
3FF000001FF0
3FE000001FF0
3FC000000FF0
7FC000000FF8
7F80000007F8
7F80000007F8
7F80000007F8
7F80000007F8
FF00000003FC
FF00000003FC
FF00000003FC
FF00000003FC
7F80000003FC
7F80000007F8
7F80000007F8
7F80000007F8
7F80000007F8
7FC000000FF8
3FC000000FF0
3FE000001FF0
1FF000003FE0
1FF800007FE0
0FFC0000FFC0
07FE0001FFC0
07FF8007FF80
03FFFCFFFF00
01FFFFFFFE00
00FFFFFFFC00
003FFFFFF000
001FFFFFE000
0007FFFF8000
0000FFFC0000
ENDCHAR
STARTCHAR 00F7
ENCODING 247
SWIDTH 585 0
DWIDTH 48 0
BBX 36 42 6 8
BITMAP
0000E00000
0001F80000
0003FC0000
0007FC0000
0007FE0000
0007FE0000
0007FC0000
0003FC0000
0003F80000
0000F00000
0000000000
0000000000
0000000000
0000000000
0000000000
0000000000
0000000000
0000000000
FFFFFFFFF0
FFFFFFFFF0
FFFFFFFFF0
FFFFFFFFF0
FFFFFFFFF0
FFFFFFFFF0
FFFFFFFFF0
0000000000
0000000000
0000000000
0000000000
0000000000
0000000000
0000000000
0000000000
0001F80000
0003FC0000
0007FC0000
0007FE0000
0007FE0000
0007FE0000
0003FC0000
0003FC0000
0001F80000
ENDCHAR
STARTCHAR 00F8
ENCODING 248
SWIDTH 634 0
DWIDTH 52 0
BBX 46 55 3 -6
BITMAP
0000000003E0
0000000007C0
000000000F80
000000000F80
000000001F00
00001FE03E00
0001FFFE3E00
000FFFFFFC00
003FFFFFF800
007FFFFFF800
00FFFFFFFC00
01FFFFFFFE00
03FFE01FFF00
07FF0007FF80
0FFE0007FFC0
0FF8000FFFE0
1FF0001F3FE0
3FF0001E1FF0
3FE0003E1FF0
3FC0007C0FF0
7FC000780FF8
7F8000F807F8
7F8001F007F8
7F8001E007F8
7F8003E007F8
FF0007C003FC
FF0007C003FC
FF000F8003FC
FF001F0003FC
7F801F0003FC
7F803E0007F8
7F807C0007F8
7F807C0007F8
7F80F80007F8
7FC1F0000FF8
3FC1F0000FF0
3FE3E0001FF0
1FF7C0003FE0
1FFFC0007FE0
0FFF8000FFC0
07FF0001FFC0
07FF8007FF80
03FFFCFFFF00
01FFFFFFFE00
00FFFFFFFC00
00FFFFFFF000
01FFFFFFE000
01F7FFFF8000
03E0FFFC0000
07C000000000
07C000000000
0F8000000000
1F0000000000
1F0000000000
3E0000000000
ENDCHAR
STARTCHAR 00F9
ENCODING 249
SWIDTH 682 0
DWIDTH 56 0
BBX 41 60 7 0
BITMAP
03FF80000000
00FFC0000000
007FE0000000
001FF0000000
000FF8000000
0007FC000000
0001FE000000
0000FF000000
00007F800000
00003FC00000
000000200000
000000000000
000000000000
000000000000
000000000000
000000000000
000000000000
FF0000007F80
FF0000007F80
FF0000007F80
FF0000007F80
FF0000007F80
FF0000007F80
FF0000007F80
FF0000007F80
FF0000007F80
FF0000007F80
FF0000007F80
FF0000007F80
FF0000007F80
FF0000007F80
FF0000007F80
FF0000007F80
FF0000007F80
FF0000007F80
FF0000007F80
FF0000007F80
FF0000007F80
FF0000007F80
FF0000007F80
FF0000007F80
FF0000007F80
FF0000007F80
FF0000007F80
FF000000FF80
FF000000FF80
FF800000FF80
7F800001FF80
7FC00003FF80
7FC00003FF80
3FE00007FF80
3FF0001FFF80
1FFC007FFF80
1FFFFFFFFF80
0FFFFFFFBF80
07FFFFFF3F80
03FFFFFE3F80
01FFFFF83F80
007FFFF03F80
000FFF803F80
ENDCHAR
STARTCHAR 00FA
ENCODING 250
SWIDTH 682 0
DWIDTH 56 0
BBX 41 60 7 0
BITMAP
0000007FF000
000000FF8000
000001FF0000
000007FE0000
00000FF80000
00001FF00000
00003FE00000
00007F800000
0000FF000000
0001FE000000
000200000000
000000000000
000000000000
000000000000
000000000000
000000000000
000000000000
FF0000007F80
FF0000007F80
FF0000007F80
FF0000007F80
FF0000007F80
FF0000007F80
FF0000007F80
FF0000007F80
FF0000007F80
FF0000007F80
FF0000007F80
FF0000007F80
FF0000007F80
FF0000007F80
FF0000007F80
FF0000007F80
FF0000007F80
FF0000007F80
FF0000007F80
FF0000007F80
FF0000007F80
FF0000007F80
FF0000007F80
FF0000007F80
FF0000007F80
FF0000007F80
FF0000007F80
FF000000FF80
FF000000FF80
FF800000FF80
7F800001FF80
7FC00003FF80
7FC00003FF80
3FE00007FF80
3FF0001FFF80
1FFC007FFF80
1FFFFFFFFF80
0FFFFFFFBF80
07FFFFFF3F80
03FFFFFE3F80
01FFFFF83F80
007FFFF03F80
000FFF803F80
ENDCHAR
STARTCHAR 00FB
ENCODING 251
SWIDTH 682 0
DWIDTH 56 0
BBX 41 60 7 0
BITMAP
0000FF800000
0001FFC00000
0003FFE00000
0007FFF00000
000FF7F80000
001FE3FC0000
003FC0FE0000
007F007F0000
00FE003FC000
03FC001FE000
000000000000
000000000000
000000000000
000000000000
000000000000
000000000000
000000000000
FF0000007F80
FF0000007F80
FF0000007F80
FF0000007F80
FF0000007F80
FF0000007F80
FF0000007F80
FF0000007F80
FF0000007F80
FF0000007F80
FF0000007F80
FF0000007F80
FF0000007F80
FF0000007F80
FF0000007F80
FF0000007F80
FF0000007F80
FF0000007F80
FF0000007F80
FF0000007F80
FF0000007F80
FF0000007F80
FF0000007F80
FF0000007F80
FF0000007F80
FF0000007F80
FF0000007F80
FF000000FF80
FF000000FF80
FF800000FF80
7F800001FF80
7FC00003FF80
7FC00003FF80
3FE00007FF80
3FF0001FFF80
1FFC007FFF80
1FFFFFFFFF80
0FFFFFFFBF80
07FFFFFF3F80
03FFFFFE3F80
01FFFFF83F80
007FFFF03F80
000FFF803F80
ENDCHAR
STARTCHAR 00FC
ENCODING 252
SWIDTH 682 0
DWIDTH 56 0
BBX 41 60 7 0
BITMAP
000C00080000
003F007E0000
007F807F0000
007F80FF0000
007F80FF0000
007F80FF0000
007F80FF0000
003F007E0000
001E001C0000
000000000000
000000000000
000000000000
000000000000
000000000000
000000000000
000000000000
000000000000
FF0000007F80
FF0000007F80
FF0000007F80
FF0000007F80
FF0000007F80
FF0000007F80
FF0000007F80
FF0000007F80
FF0000007F80
FF0000007F80
FF0000007F80
FF0000007F80
FF0000007F80
FF0000007F80
FF0000007F80
FF0000007F80
FF0000007F80
FF0000007F80
FF0000007F80
FF0000007F80
FF0000007F80
FF0000007F80
FF0000007F80
FF0000007F80
FF0000007F80
FF0000007F80
FF0000007F80
FF000000FF80
FF000000FF80
FF800000FF80
7F800001FF80
7FC00003FF80
7FC00003FF80
3FE00007FF80
3FF0001FFF80
1FFC007FFF80
1FFFFFFFFF80
0FFFFFFFBF80
07FFFFFF3F80
03FFFFFE3F80
01FFFFF83F80
007FFFF03F80
000FFF803F80
ENDCHAR
STARTCHAR 00FD
ENCODING 253
SWIDTH 560 0
DWIDTH 46 0
BBX 48 76 -2 -16
BITMAP
0000000FFE00
0000001FF000
0000003FE000
000000FFC000
000001FF0000
000003FE0000
000007FC0000
00000FF00000
00001FE00000
00003FC00000
000040000000
000000000000
000000000000
000000000000
000000000000
000000000000
000000000000
3FC0000000FF
1FE0000001FE
1FE0000001FE
0FF0000003FC
0FF0000003FC
0FF8000003F8
07F8000007F8
07FC000007F0
03FC00000FF0
03FC00000FF0
01FE00001FE0
01FE00001FE0
00FF00001FC0
00FF00003FC0
00FF80003F80
007F80007F80
007F80007F00
003FC000FF00
003FC000FF00
001FE000FE00
001FE001FE00
000FF001FC00
000FF003FC00
000FF003F800
0007F807F800
0007F807F000
0003FC07F000
0003FC0FF000
0001FE0FE000
0001FE1FE000
0000FF1FC000
0000FF3FC000
0000FF3F8000
00007FBF8000
00007FFF8000
00003FFF0000
00003FFF0000
00001FFE0000
00001FFE0000
00000FFC0000
00000FFC0000
00000FF80000
000007F80000
000007F80000
00000FF00000
00000FF00000
00001FE00000
00001FE00000
00003FC00000
10003FC00000
18007F800000
3C00FF800000
3FC7FF000000
7FFFFE000000
7FFFFE000000
FFFFFC000000
3FFFF8000000
1FFFE0000000
03FF80000000
ENDCHAR
STARTCHAR 00FE
ENCODING 254
SWIDTH 682 0
DWIDTH 56 0
BBX 45 77 7 -16
BITMAP
FF0000000000
FF0000000000
FF0000000000
FF0000000000
FF0000000000
FF0000000000
FF0000000000
FF0000000000
FF0000000000
FF0000000000
FF0000000000
FF0000000000
FF0000000000
FF0000000000
FF0000000000
FF0000000000
FF0000000000
FF000FF00000
FF00FFFF0000
FF03FFFFC000
FF0FFFFFF000
FF1FFFFFF800
FF3FFFFFFC00
FF7FFFFFFE00
FFFFE01FFF00
FFFF0003FF80
FFFE0001FFC0
FFF800007FC0
FFF000003FE0
FFE000003FF0
FFE000001FF0
FFC000000FF0
FFC000000FF8
FF80000007F8
FF80000007F8
FF80000007F8
FF00000007F8
FF00000007F8
FF00000003F8
FF00000003F8
FF00000007F8
FF00000007F8
FF00000007F8
FF80000007F8
FF80000007F8
FF8000000FF8
FFC000000FF0
FFC000001FF0
FFE000001FF0
FFF000003FE0
FFF800007FE0
FFFC0000FFC0
FFFE0001FFC0
FFFF8007FF80
FFFFFCFFFF00
FF7FFFFFFE00
FF3FFFFFFC00
FF1FFFFFF800
FF07FFFFE000
FF01FFFF8000
FF007FFE0000
FF0000000000
FF0000000000
FF0000000000
FF0000000000
FF0000000000
FF0000000000
FF0000000000
FF0000000000
FF0000000000
FF0000000000
FF0000000000
FF0000000000
FF0000000000
FF0000000000
FF0000000000
FF0000000000
ENDCHAR
STARTCHAR 00FF
ENCODING 255
SWIDTH 560 0
DWIDTH 46 0
BBX 48 76 -2 -16
BITMAP
000180010000
0007E00FC000
000FF00FE000
000FF01FE000
000FF01FE000
000FF01FE000
000FF01FE000
0007E00FC000
0003C0038000
000000000000
000000000000
000000000000
000000000000
000000000000
000000000000
000000000000
000000000000
3FC0000000FF
1FE0000001FE
1FE0000001FE
0FF0000003FC
0FF0000003FC
0FF8000003F8
07F8000007F8
07FC000007F0
03FC00000FF0
03FC00000FF0
01FE00001FE0
01FE00001FE0
00FF00001FC0
00FF00003FC0
00FF80003F80
007F80007F80
007F80007F00
003FC000FF00
003FC000FF00
001FE000FE00
001FE001FE00
000FF001FC00
000FF003FC00
000FF003F800
0007F807F800
0007F807F000
0003FC07F000
0003FC0FF000
0001FE0FE000
0001FE1FE000
0000FF1FC000
0000FF3FC000
0000FF3F8000
00007FBF8000
00007FFF8000
00003FFF0000
00003FFF0000
00001FFE0000
00001FFE0000
00000FFC0000
00000FFC0000
00000FF80000
000007F80000
000007F80000
00000FF00000
00000FF00000
00001FE00000
00001FE00000
00003FC00000
10003FC00000
18007F800000
3C00FF800000
3FC7FF000000
7FFFFE000000
7FFFFE000000
FFFFFC000000
3FFFF8000000
1FFFE0000000
03FF80000000
ENDCHAR
STARTCHAR 0100
ENCODING 256
SWIDTH 731 0
DWIDTH 60 0
BBX 60 70 0 0
BITMAP
0000FFFFFFE00000
0000FFFFFFE00000
0000FFFFFFE00000
0000FFFFFFE00000
0000FFFFFFE00000
0000000000000000
0000000000000000
0000000000000000
0000000000000000
0000000000000000
0000000000000000
0000000000000000
0000000000000000
0000007FC0000000
0000007FE0000000
0000007FE0000000
000000FFF0000000
000000FFF0000000
000001FFF8000000
000001FFF8000000
000003FFFC000000
000003FFFC000000
000007F9FE000000
000007F9FE000000
00000FF0FE000000
00000FF0FF000000
00000FE0FF000000
00001FE07F800000
00001FE07F800000
00003FC03FC00000
00003FC03FC00000
00007F801FE00000
00007F801FE00000
0000FF001FF00000
0000FF000FF00000
0000FF000FF00000
0001FE0007F80000
0001FE0007F80000
0003FC0003FC0000
0003FC0003FC0000
0007F80001FE0000
0007F80001FE0000
000FF00001FF0000
000FF00000FF0000
001FF00000FF8000
001FE000007F8000
001FE000007F8000
003FC000003FC000
003FC000003FC000
007FFFFFFFFFE000
007FFFFFFFFFE000
00FFFFFFFFFFF000
00FFFFFFFFFFF000
01FFFFFFFFFFF800
01FFFFFFFFFFF800
03FFFFFFFFFFFC00
03FC00000003FC00
03FC00000003FC00
07F800000003FE00
07F800000001FE00
0FF800000001FF00
0FF000000000FF00
1FF000000000FF80
1FE0000000007F80
3FE0000000007FC0
3FC0000000003FC0
7FC0000000003FE0
7F80000000003FE0
7F80000000001FE0
FF80000000001FF0
ENDCHAR
STARTCHAR 0101
ENCODING 257
SWIDTH 597 0
DWIDTH 49 0
BBX 38 58 4 0
BITMAP
03FFFFFF80
03FFFFFF80
03FFFFFF80
03FFFFFF80
03FFFFFF80
0000000000
0000000000
0000000000
0000000000
0000000000
0000000000
0000000000
0000000000
0000000000
0003FF0000
003FFFF000
01FFFFFC00
07FFFFFF00
1FFFFFFF80
7FFFFFFFC0
3FFFFFFFE0
3FF801FFE0
1FC0007FF0
1F00001FF0
0C00000FF8
08000007F8
00000007F8
00000007FC
00000003FC
00000003FC
00000003FC
00000003FC
00000003FC
001FFFFFFC
00FFFFFFFC
03FFFFFFFC
0FFFFFFFFC
1FFFFFFFFC
3FFFFFFFFC
3FF00003FC
7FC00003FC
7F800003FC
FF800003FC
FF000003FC
FF000003FC
FF000003FC
FF000007FC
FF00000FFC
FF80000FFC
7F80001FFC
7FC0007FFC
3FF001FFFC
3FFFFFFFFC
1FFFFFFFFC
0FFFFFFBFC
07FFFFE3FC
01FFFFC3FC
007FFE03FC
ENDCHAR
STARTCHAR 0102
ENCODING 258
SWIDTH 731 0
DWIDTH 60 0
BBX 60 72 0 0
BITMAP
0000FC0007E00000
0000FC0007E00000
00007C0007C00000
00007E000FC00000
00007F001FC00000
00003FC07F800000
00001FFFFF000000
00000FFFFE000000
000007FFFC000000
000001FFF0000000
0000001F80000000
0000000000000000
0000000000000000
0000000000000000
0000000000000000
0000007FC0000000
0000007FE0000000
0000007FE0000000
000000FFF0000000
000000FFF0000000
000001FFF8000000
000001FFF8000000
000003FFFC000000
000003FFFC000000
000007F9FE000000
000007F9FE000000
00000FF0FE000000
00000FF0FF000000
00000FE0FF000000
00001FE07F800000
00001FE07F800000
00003FC03FC00000
00003FC03FC00000
00007F801FE00000
00007F801FE00000
0000FF001FF00000
0000FF000FF00000
0000FF000FF00000
0001FE0007F80000
0001FE0007F80000
0003FC0003FC0000
0003FC0003FC0000
0007F80001FE0000
0007F80001FE0000
000FF00001FF0000
000FF00000FF0000
001FF00000FF8000
001FE000007F8000
001FE000007F8000
003FC000003FC000
003FC000003FC000
007FFFFFFFFFE000
007FFFFFFFFFE000
00FFFFFFFFFFF000
00FFFFFFFFFFF000
01FFFFFFFFFFF800
01FFFFFFFFFFF800
03FFFFFFFFFFFC00
03FC00000003FC00
03FC00000003FC00
07F800000003FE00
07F800000001FE00
0FF800000001FF00
0FF000000000FF00
1FF000000000FF80
1FE0000000007F80
3FE0000000007FC0
3FC0000000003FC0
7FC0000000003FE0
7F80000000003FE0
7F80000000001FE0
FF80000000001FF0
ENDCHAR
STARTCHAR 0103
ENCODING 259
SWIDTH 597 0
DWIDTH 49 0
BBX 38 60 4 0
BITMAP
03F0001F80
03F0001F80
01F0001F00
01F8003F00
01FC007F00
00FF01FE00
007FFFFC00
003FFFF800
001FFFF000
0007FFC000
00007E0000
0000000000
0000000000
0000000000
0000000000
0000000000
0003FF0000
003FFFF000
01FFFFFC00
07FFFFFF00
1FFFFFFF80
7FFFFFFFC0
3FFFFFFFE0
3FF801FFE0
1FC0007FF0
1F00001FF0
0C00000FF8
08000007F8
00000007F8
00000007FC
00000003FC
00000003FC
00000003FC
00000003FC
00000003FC
001FFFFFFC
00FFFFFFFC
03FFFFFFFC
0FFFFFFFFC
1FFFFFFFFC
3FFFFFFFFC
3FF00003FC
7FC00003FC
7F800003FC
FF800003FC
FF000003FC
FF000003FC
FF000003FC
FF000007FC
FF00000FFC
FF80000FFC
7F80001FFC
7FC0007FFC
3FF001FFFC
3FFFFFFFFC
1FFFFFFFFC
0FFFFFFBFC
07FFFFE3FC
01FFFFC3FC
007FFE03FC
ENDCHAR
STARTCHAR 0104
ENCODING 260
SWIDTH 731 0
DWIDTH 60 0
BBX 61 75 0 -18
BITMAP
0000007FC0000000
0000007FE0000000
0000007FE0000000
000000FFF0000000
000000FFF0000000
000001FFF8000000
000001FFF8000000
000003FFFC000000
000003FFFC000000
000007F9FE000000
000007F9FE000000
00000FF0FE000000
00000FF0FF000000
00000FE0FF000000
00001FE07F800000
00001FE07F800000
00003FC03FC00000
00003FC03FC00000
00007F801FE00000
00007F801FE00000
0000FF001FF00000
0000FF000FF00000
0000FF000FF00000
0001FE0007F80000
0001FE0007F80000
0003FC0003FC0000
0003FC0003FC0000
0007F80001FE0000
0007F80001FE0000
000FF00001FF0000
000FF00000FF0000
001FF00000FF8000
001FE000007F8000
001FE000007F8000
003FC000003FC000
003FC000003FC000
007FFFFFFFFFE000
007FFFFFFFFFE000
00FFFFFFFFFFF000
00FFFFFFFFFFF000
01FFFFFFFFFFF800
01FFFFFFFFFFF800
03FFFFFFFFFFFC00
03FC00000003FC00
03FC00000003FC00
07F800000003FE00
07F800000001FE00
0FF800000001FF00
0FF000000000FF00
1FF000000000FF80
1FE0000000007F80
3FE0000000007FC0
3FC0000000003FC0
7FC0000000003FE0
7F80000000003FE0
7F80000000001FE0
FF80000000001FF0
0000000000003FE0
0000000000007F80
000000000000FE00
000000000001FC00
000000000003F000
000000000007E000
000000000007E000
000000000007C000
00000000000FC000
00000000000FC000
00000000000FC000
00000000000FC000
000000000007E010
000000000007F870
000000000007FFF8
000000000003FFF8
000000000001FFF8
0000000000007FE0
ENDCHAR
STARTCHAR 0105
ENCODING 261
SWIDTH 597 0
DWIDTH 49 0
BBX 39 62 4 -18
BITMAP
0003FF0000
003FFFF000
01FFFFFC00
07FFFFFF00
1FFFFFFF80
7FFFFFFFC0
3FFFFFFFE0
3FF801FFE0
1FC0007FF0
1F00001FF0
0C00000FF8
08000007F8
00000007F8
00000007FC
00000003FC
00000003FC
00000003FC
00000003FC
00000003FC
001FFFFFFC
00FFFFFFFC
03FFFFFFFC
0FFFFFFFFC
1FFFFFFFFC
3FFFFFFFFC
3FF00003FC
7FC00003FC
7F800003FC
FF800003FC
FF000003FC
FF000003FC
FF000003FC
FF000007FC
FF00000FFC
FF80000FFC
7F80001FFC
7FC0007FFC
3FF001FFFC
3FFFFFFFFC
1FFFFFFFFC
0FFFFFFBFC
07FFFFE3FC
01FFFFC3FC
007FFE03FC
0000000FF8
0000001FE0
0000003F80
0000007F00
000000FC00
000001F800
000001F800
000001F000
000003F000
000003F000
000003F000
000003F000
000001F804
000001FE1C
000001FFFE
000000FFFE
0000007FFE
0000001FF8
ENDCHAR
STARTCHAR 0106
ENCODING 262
SWIDTH 719 0
DWIDTH 59 0
BBX 52 73 4 -1
BITMAP
000000003FF800
000000007FC000
00000000FF8000
00000003FF0000
00000007FC0000
0000000FF80000
0000001FF00000
0000003FC00000
0000007F800000
000000FF000000
00000100000000
00000000000000
00000000000000
00000000000000
000000FFF80000
00000FFFFF8000
00007FFFFFE000
0001FFFFFFF800
0003FFFFFFFE00
000FFFFFFFFF00
001FFFFFFFFFC0
007FFFF03FFFE0
00FFFE0003FFF0
01FFF000007FF0
01FFC000003FE0
03FF8000000F80
07FF0000000700
0FFE0000000200
0FFC0000000000
1FF80000000000
1FF00000000000
3FE00000000000
3FE00000000000
7FC00000000000
7FC00000000000
7F800000000000
7F800000000000
FF800000000000
FF800000000000
FF000000000000
FF000000000000
FF000000000000
FF000000000000
FF000000000000
FF000000000000
FF000000000000
FF000000000000
FF000000000000
FF800000000000
7F800000000000
7F800000000000
7FC00000000000
7FC00000000000
3FC00000000000
3FE00000000000
3FF00000000000
1FF00000000000
1FF80000000000
0FFC0000000200
07FE0000000300
07FF0000000780
03FF8000001FC0
01FFE000003FE0
00FFF80000FFF0
007FFF0007FFE0
003FFFFFFFFFC0
001FFFFFFFFF80
000FFFFFFFFF00
0003FFFFFFFC00
0000FFFFFFF800
00003FFFFFC000
000007FFFE0000
0000001FC00000
ENDCHAR
STARTCHAR 0107
ENCODING 263
SWIDTH 573 0
DWIDTH 47 0
BBX 41 60 3 0
BITMAP
0000003FF800
0000007FC000
000000FF8000
000003FF0000
000007FC0000
00000FF80000
00001FF00000
00003FC00000
00007F800000
0000FF000000
000100000000
000000000000
000000000000
000000000000
000000000000
000000000000
00001FF00000
0001FFFF0000
000FFFFFC000
001FFFFFF000
007FFFFFF800
00FFFFFFFC00
01FFFFFFFE00
03FFE01FFF00
07FF0003FF80
0FFE0000FF80
0FF800007E00
1FF000003C00
3FF000001000
3FE000000000
3FC000000000
7FC000000000
7F8000000000
7F8000000000
7F8000000000
7F8000000000
FF0000000000
FF0000000000
FF0000000000
FF0000000000
7F0000000000
7F8000000000
7F8000000000
7F8000000000
7F8000000000
7FC000000000
3FC000000000
3FE000001000
1FF000003800
1FF800007E00
0FFC0000FF00
07FE0001FF80
07FF8007FF00
03FFFCFFFF00
01FFFFFFFE00
00FFFFFFFC00
003FFFFFF000
001FFFFFE000
0007FFFF8000
0000FFFC0000
ENDCHAR
STARTCHAR 0108
ENCODING 264
SWIDTH 719 0
DWIDTH 59 0
BBX 52 73 4 -1
BITMAP
0000007FC00000
000000FFE00000
000001FFF00000
000003FFF80000
000007FBFC0000
00000FF1FE0000
00001FE07F0000
00003F803F8000
00007F001FE000
0001FE000FF000
00000000000000
00000000000000
00000000000000
00000000000000
000000FFF80000
00000FFFFF8000
00007FFFFFE000
0001FFFFFFF800
0003FFFFFFFE00
000FFFFFFFFF00
001FFFFFFFFFC0
007FFFF03FFFE0
00FFFE0003FFF0
01FFF000007FF0
01FFC000003FE0
03FF8000000F80
07FF0000000700
0FFE0000000200
0FFC0000000000
1FF80000000000
1FF00000000000
3FE00000000000
3FE00000000000
7FC00000000000
7FC00000000000
7F800000000000
7F800000000000
FF800000000000
FF800000000000
FF000000000000
FF000000000000
FF000000000000
FF000000000000
FF000000000000
FF000000000000
FF000000000000
FF000000000000
FF000000000000
FF800000000000
7F800000000000
7F800000000000
7FC00000000000
7FC00000000000
3FC00000000000
3FE00000000000
3FF00000000000
1FF00000000000
1FF80000000000
0FFC0000000200
07FE0000000300
07FF0000000780
03FF8000001FC0
01FFE000003FE0
00FFF80000FFF0
007FFF0007FFE0
003FFFFFFFFFC0
001FFFFFFFFF80
000FFFFFFFFF00
0003FFFFFFFC00
0000FFFFFFF800
00003FFFFFC000
000007FFFE0000
0000001FC00000
ENDCHAR
STARTCHAR 0109
ENCODING 265
SWIDTH 573 0
DWIDTH 47 0
BBX 41 60 3 0
BITMAP
00007FC00000
0000FFE00000
0001FFF00000
0003FFF80000
0007FBFC0000
000FF1FE0000
001FE07F0000
003F803F8000
007F001FE000
01FE000FF000
000000000000
000000000000
000000000000
000000000000
000000000000
000000000000
00001FF00000
0001FFFF0000
000FFFFFC000
001FFFFFF000
007FFFFFF800
00FFFFFFFC00
01FFFFFFFE00
03FFE01FFF00
07FF0003FF80
0FFE0000FF80
0FF800007E00
1FF000003C00
3FF000001000
3FE000000000
3FC000000000
7FC000000000
7F8000000000
7F8000000000
7F8000000000
7F8000000000
FF0000000000
FF0000000000
FF0000000000
FF0000000000
7F0000000000
7F8000000000
7F8000000000
7F8000000000
7F8000000000
7FC000000000
3FC000000000
3FE000001000
1FF000003800
1FF800007E00
0FFC0000FF00
07FE0001FF80
07FF8007FF00
03FFFCFFFF00
01FFFFFFFE00
00FFFFFFFC00
003FFFFFF000
001FFFFFE000
0007FFFF8000
0000FFFC0000
ENDCHAR
STARTCHAR 010A
ENCODING 266
SWIDTH 719 0
DWIDTH 59 0
BBX 52 74 4 -1
BITMAP
0000000F000000
0000003F800000
0000007FC00000
0000007FC00000
0000007FC00000
0000007FC00000
0000007FC00000
0000007FC00000
0000003F800000
0000000E000000
00000000000000
00000000000000
00000000000000
00000000000000
00000000000000
000000FFF80000
00000FFFFF8000
00007FFFFFE000
0001FFFFFFF800
0003FFFFFFFE00
000FFFFFFFFF00
001FFFFFFFFFC0
007FFFF03FFFE0
00FFFE0003FFF0
01FFF000007FF0
01FFC000003FE0
03FF8000000F80
07FF0000000700
0FFE0000000200
0FFC0000000000
1FF80000000000
1FF00000000000
3FE00000000000
3FE00000000000
7FC00000000000
7FC00000000000
7F800000000000
7F800000000000
FF800000000000
FF800000000000
FF000000000000
FF000000000000
FF000000000000
FF000000000000
FF000000000000
FF000000000000
FF000000000000
FF000000000000
FF000000000000
FF800000000000
7F800000000000
7F800000000000
7FC00000000000
7FC00000000000
3FC00000000000
3FE00000000000
3FF00000000000
1FF00000000000
1FF80000000000
0FFC0000000200
07FE0000000300
07FF0000000780
03FF8000001FC0
01FFE000003FE0
00FFF80000FFF0
007FFF0007FFE0
003FFFFFFFFFC0
001FFFFFFFFF80
000FFFFFFFFF00
0003FFFFFFFC00
0000FFFFFFF800
00003FFFFFC000
000007FFFE0000
0000001FC00000
ENDCHAR
STARTCHAR 010B
ENCODING 267
SWIDTH 573 0
DWIDTH 47 0
BBX 41 61 3 0
BITMAP
00000F000000
00003F800000
00007FC00000
00007FC00000
00007FC00000
00007FC00000
00007FC00000
00007FC00000
00003F800000
00000E000000
000000000000
000000000000
000000000000
000000000000
000000000000
000000000000
000000000000
00001FF00000
0001FFFF0000
000FFFFFC000
001FFFFFF000
007FFFFFF800
00FFFFFFFC00
01FFFFFFFE00
03FFE01FFF00
07FF0003FF80
0FFE0000FF80
0FF800007E00
1FF000003C00
3FF000001000
3FE000000000
3FC000000000
7FC000000000
7F8000000000
7F8000000000
7F8000000000
7F8000000000
FF0000000000
FF0000000000
FF0000000000
FF0000000000
7F0000000000
7F8000000000
7F8000000000
7F8000000000
7F8000000000
7FC000000000
3FC000000000
3FE000001000
1FF000003800
1FF800007E00
0FFC0000FF00
07FE0001FF80
07FF8007FF00
03FFFCFFFF00
01FFFFFFFE00
00FFFFFFFC00
003FFFFFF000
001FFFFFE000
0007FFFF8000
0000FFFC0000
ENDCHAR
STARTCHAR 010C
ENCODING 268
SWIDTH 719 0
DWIDTH 59 0
BBX 52 73 4 -1
BITMAP
0001FE000FF000
00007F001FC000
00003FC03F8000
00001FE0FF0000
00000FF1FE0000
000007FBFC0000
000003FFF80000
000001FFF00000
000000FFE00000
0000007FC00000
00000000000000
00000000000000
00000000000000
00000000000000
000000FFF80000
00000FFFFF8000
00007FFFFFE000
0001FFFFFFF800
0003FFFFFFFE00
000FFFFFFFFF00
001FFFFFFFFFC0
007FFFF03FFFE0
00FFFE0003FFF0
01FFF000007FF0
01FFC000003FE0
03FF8000000F80
07FF0000000700
0FFE0000000200
0FFC0000000000
1FF80000000000
1FF00000000000
3FE00000000000
3FE00000000000
7FC00000000000
7FC00000000000
7F800000000000
7F800000000000
FF800000000000
FF800000000000
FF000000000000
FF000000000000
FF000000000000
FF000000000000
FF000000000000
FF000000000000
FF000000000000
FF000000000000
FF000000000000
FF800000000000
7F800000000000
7F800000000000
7FC00000000000
7FC00000000000
3FC00000000000
3FE00000000000
3FF00000000000
1FF00000000000
1FF80000000000
0FFC0000000200
07FE0000000300
07FF0000000780
03FF8000001FC0
01FFE000003FE0
00FFF80000FFF0
007FFF0007FFE0
003FFFFFFFFFC0
001FFFFFFFFF80
000FFFFFFFFF00
0003FFFFFFFC00
0000FFFFFFF800
00003FFFFFC000
000007FFFE0000
0000001FC00000
ENDCHAR
STARTCHAR 010D
ENCODING 269
SWIDTH 573 0
DWIDTH 47 0
BBX 41 60 3 0
BITMAP
01FE000FF000
007F001FC000
003FC03F8000
001FE0FF0000
000FF1FE0000
0007FBFC0000
0003FFF80000
0001FFF00000
0000FFE00000
00007FC00000
000000000000
000000000000
000000000000
000000000000
000000000000
000000000000
00001FF00000
0001FFFF0000
000FFFFFC000
001FFFFFF000
007FFFFFF800
00FFFFFFFC00
01FFFFFFFE00
03FFE01FFF00
07FF0003FF80
0FFE0000FF80
0FF800007E00
1FF000003C00
3FF000001000
3FE000000000
3FC000000000
7FC000000000
7F8000000000
7F8000000000
7F8000000000
7F8000000000
FF0000000000
FF0000000000
FF0000000000
FF0000000000
7F0000000000
7F8000000000
7F8000000000
7F8000000000
7F8000000000
7FC000000000
3FC000000000
3FE000001000
1FF000003800
1FF800007E00
0FFC0000FF00
07FE0001FF80
07FF8007FF00
03FFFCFFFF00
01FFFFFFFE00
00FFFFFFFC00
003FFFFFF000
001FFFFFE000
0007FFFF8000
0000FFFC0000
ENDCHAR
STARTCHAR 010E
ENCODING 270
SWIDTH 829 0
DWIDTH 68 0
BBX 55 72 9 0
BITMAP
01FE000FF00000
007F001FC00000
003FC03F800000
001FE0FF000000
000FF1FE000000
0007FBFC000000
0003FFF8000000
0001FFF0000000
0000FFE0000000
00007FC0000000
00000000000000
00000000000000
00000000000000
00000000000000
00000000000000
FFFFFFFF000000
FFFFFFFFF00000
FFFFFFFFFC0000
FFFFFFFFFF8000
FFFFFFFFFFC000
FFFFFFFFFFF000
FFFFFFFFFFF800
FF000003FFFC00
FF0000003FFE00
FF0000000FFF00
FF00000007FF80
FF00000001FFC0
FF00000000FFC0
FF000000007FE0
FF000000003FF0
FF000000001FF0
FF000000001FF8
FF000000000FF8
FF0000000007F8
FF0000000007FC
FF0000000007FC
FF0000000003FC
FF0000000003FC
FF0000000003FC
FF0000000003FE
FF0000000003FE
FF0000000001FE
FF0000000001FE
FF0000000001FE
FF0000000001FE
FF0000000003FE
FF0000000003FE
FF0000000003FE
FF0000000003FC
FF0000000003FC
FF0000000007FC
FF0000000007FC
FF0000000007F8
FF000000000FF8
FF000000000FF8
FF000000001FF0
FF000000003FF0
FF000000003FE0
FF000000007FE0
FF00000000FFC0
FF00000003FF80
FF00000007FF80
FF0000001FFF00
FF000000FFFE00
FF00000FFFFC00
FFFFFFFFFFF800
FFFFFFFFFFE000
FFFFFFFFFFC000
FFFFFFFFFF0000
FFFFFFFFFC0000
FFFFFFFFE00000
FFFFFFFC000000
ENDCHAR
STARTCHAR 010F
ENCODING 271
SWIDTH 682 0
DWIDTH 56 0
BBX 59 63 3 0
BITMAP
00000000000007E0
00000000000007E0
0000000003F807E0
0000000003F807E0
0000000003F807E0
0000000003F807E0
0000000003F807E0
0000000003F807E0
0000000003F807E0
0000000003F807E0
0000000003F807C0
0000000003F807C0
0000000003F807C0
0000000003F807C0
0000000003F807C0
0000000003F807C0
0000000003F80000
0000000003F80000
0000000003F80000
00003FC003F80000
0003FFFC03F80000
000FFFFF03F80000
003FFFFFC3F80000
007FFFFFE3F80000
01FFFFFFF3F80000
03FFFFFFFBF80000
03FFE01FFFF80000
07FF0003FFF80000
0FFE0001FFF80000
1FF800007FF80000
1FF000003FF80000
3FF000001FF80000
3FE000001FF80000
3FC000000FF80000
7FC000000FF80000
7F80000007F80000
7F80000007F80000
7F80000007F80000
7F80000007F80000
FF00000003F80000
FF00000003F80000
FF00000003F80000
FF00000003F80000
7F80000003F80000
7F80000007F80000
7F80000007F80000
7F80000007F80000
7F80000007F80000
7FC000000FF80000
3FC000000FF80000
3FE000001FF80000
1FF000003FF80000
1FF800007FF80000
0FFC0000FFF80000
0FFE0001FFF80000
07FF8007FFF80000
03FFFCFFFFF80000
01FFFFFFFBF80000
00FFFFFFF3F80000
007FFFFFE3F80000
001FFFFF83F80000
0007FFFF03F80000
0001FFF803F80000
ENDCHAR
STARTCHAR 0110
ENCODING 272
SWIDTH 829 0
DWIDTH 68 0
BBX 64 57 1 0
BITMAP
007FFFFFFF800000
007FFFFFFFF80000
007FFFFFFFFE0000
007FFFFFFFFFC000
007FFFFFFFFFE000
007FFFFFFFFFF800
007FFFFFFFFFFC00
007F800001FFFE00
007F8000001FFF00
007F80000007FF80
007F80000003FFC0
007F80000000FFE0
007F800000007FE0
007F800000003FF0
007F800000001FF8
007F800000000FF8
007F800000000FFC
007F8000000007FC
007F8000000003FC
007F8000000003FE
007F8000000003FE
007F8000000001FE
007F8000000001FE
007F8000000001FE
007F8000000001FF
FFFFFFFF800001FF
FFFFFFFF800000FF
FFFFFFFF800000FF
FFFFFFFF800000FF
FFFFFFFF800000FF
FFFFFFFF800001FF
007F8000000001FF
007F8000000001FF
007F8000000001FE
007F8000000001FE
007F8000000003FE
007F8000000003FE
007F8000000003FC
007F8000000007FC
007F8000000007FC
007F800000000FF8
007F800000001FF8
007F800000001FF0
007F800000003FF0
007F800000007FE0
007F80000001FFC0
007F80000003FFC0
007F8000000FFF80
007F8000007FFF00
007F800007FFFE00
007FFFFFFFFFFC00
007FFFFFFFFFF000
007FFFFFFFFFE000
007FFFFFFFFF8000
007FFFFFFFFE0000
007FFFFFFFF00000
007FFFFFFE000000
ENDCHAR
STARTCHAR 0111
ENCODING 273
SWIDTH 682 0
DWIDTH 56 0
BBX 53 61 3 0
BITMAP
0000000003F800
0000000003F800
0000000003F800
0000000003F800
0000000003F800
0000000003F800
00000FFFFFFFF8
00000FFFFFFFF8
00000FFFFFFFF8
00000FFFFFFFF8
00000FFFFFFFF8
00000FFFFFFFF8
0000000003F800
0000000003F800
0000000003F800
0000000003F800
0000000003F800
00003FC003F800
0003FFFC03F800
000FFFFF03F800
003FFFFFC3F800
007FFFFFE3F800
01FFFFFFF3F800
03FFFFFFFBF800
03FFE01FFFF800
07FF0003FFF800
0FFE0001FFF800
1FF800007FF800
1FF000003FF800
3FF000001FF800
3FE000001FF800
3FC000000FF800
7FC000000FF800
7F80000007F800
7F80000007F800
7F80000007F800
7F80000007F800
FF00000003F800
FF00000003F800
FF00000003F800
FF00000003F800
7F80000003F800
7F80000007F800
7F80000007F800
7F80000007F800
7F80000007F800
7FC000000FF800
3FC000000FF800
3FE000001FF800
1FF000003FF800
1FF800007FF800
0FFC0000FFF800
0FFE0001FFF800
07FF8007FFF800
03FFFCFFFFF800
01FFFFFFFBF800
00FFFFFFF3F800
007FFFFFE3F800
001FFFFF83F800
0007FFFF03F800
0001FFF803F800
ENDCHAR
STARTCHAR 0112
ENCODING 274
SWIDTH 670 0
DWIDTH 55 0
BBX 41 70 9 0
BITMAP
03FFFFFF8000
03FFFFFF8000
03FFFFFF8000
03FFFFFF8000
03FFFFFF8000
000000000000
000000000000
000000000000
000000000000
000000000000
000000000000
000000000000
000000000000
FFFFFFFFFF00
FFFFFFFFFF00
FFFFFFFFFF00
FFFFFFFFFF00
FFFFFFFFFF00
FFFFFFFFFF00
FFFFFFFFFF00
FF0000000000
FF0000000000
FF0000000000
FF0000000000
FF0000000000
FF0000000000
FF0000000000
FF0000000000
FF0000000000
FF0000000000
FF0000000000
FF0000000000
FF0000000000
FF0000000000
FF0000000000
FF0000000000
FF0000000000
FFFFFFFFF800
FFFFFFFFF800
FFFFFFFFF800
FFFFFFFFF800
FFFFFFFFF800
FFFFFFFFF800
FFFFFFFFF800
FF0000000000
FF0000000000
FF0000000000
FF0000000000
FF0000000000
FF0000000000
FF0000000000
FF0000000000
FF0000000000
FF0000000000
FF0000000000
FF0000000000
FF0000000000
FF0000000000
FF0000000000
FF0000000000
FF0000000000
FF0000000000
FF0000000000
FFFFFFFFFF80
FFFFFFFFFF80
FFFFFFFFFF80
FFFFFFFFFF80
FFFFFFFFFF80
FFFFFFFFFF80
FFFFFFFFFF80
ENDCHAR
STARTCHAR 0113
ENCODING 275
SWIDTH 609 0
DWIDTH 50 0
BBX 44 58 3 0
BITMAP
007FFFFFF000
007FFFFFF000
007FFFFFF000
007FFFFFF000
007FFFFFF000
000000000000
000000000000
000000000000
000000000000
000000000000
000000000000
000000000000
000000000000
000000000000
00003FE00000
0003FFFC0000
000FFFFF8000
003FFFFFC000
007FFFFFF000
00FFFFFFF800
03FFFFFFFC00
03FFC01FFE00
07FE0007FF00
0FFC0001FF00
1FF00000FF80
1FF000007F80
3FE000003FC0
3FC000003FC0
3FC000001FE0
7F8000001FE0
7F8000000FE0
7F8000000FE0
7F0000000FE0
7FFFFFFFFFF0
FFFFFFFFFFF0
FFFFFFFFFFF0
FFFFFFFFFFF0
FFFFFFFFFFF0
7FFFFFFFFFF0
7F0000000000
7F8000000000
7F8000000000
7F8000000000
7FC000000000
3FC000000000
3FE000000000
1FF000000800
1FF800001C00
0FFC00003C00
0FFE00007E00
07FF8001FF00
03FFFE7FFF80
01FFFFFFFF00
00FFFFFFFE00
003FFFFFFC00
001FFFFFF000
0007FFFFC000
0000FFFE0000
ENDCHAR
STARTCHAR 0114
ENCODING 276
SWIDTH 670 0
DWIDTH 55 0
BBX 41 72 9 0
BITMAP
03F0001F8000
03F0001F8000
01F0001F0000
01F8003F0000
01FC007F0000
00FF01FE0000
007FFFFC0000
003FFFF80000
001FFFF00000
0007FFC00000
00007E000000
000000000000
000000000000
000000000000
000000000000
FFFFFFFFFF00
FFFFFFFFFF00
FFFFFFFFFF00
FFFFFFFFFF00
FFFFFFFFFF00
FFFFFFFFFF00
FFFFFFFFFF00
FF0000000000
FF0000000000
FF0000000000
FF0000000000
FF0000000000
FF0000000000
FF0000000000
FF0000000000
FF0000000000
FF0000000000
FF0000000000
FF0000000000
FF0000000000
FF0000000000
FF0000000000
FF0000000000
FF0000000000
FFFFFFFFF800
FFFFFFFFF800
FFFFFFFFF800
FFFFFFFFF800
FFFFFFFFF800
FFFFFFFFF800
FFFFFFFFF800
FF0000000000
FF0000000000
FF0000000000
FF0000000000
FF0000000000
FF0000000000
FF0000000000
FF0000000000
FF0000000000
FF0000000000
FF0000000000
FF0000000000
FF0000000000
FF0000000000
FF0000000000
FF0000000000
FF0000000000
FF0000000000
FF0000000000
FFFFFFFFFF80
FFFFFFFFFF80
FFFFFFFFFF80
FFFFFFFFFF80
FFFFFFFFFF80
FFFFFFFFFF80
FFFFFFFFFF80
ENDCHAR
STARTCHAR 0115
ENCODING 277
SWIDTH 609 0
DWIDTH 50 0
BBX 44 60 3 0
BITMAP
007E0003F000
007E0003F000
003E0003E000
003F0007E000
003F800FE000
001FE03FC000
000FFFFF8000
0007FFFF0000
0003FFFE0000
0000FFF80000
00000FC00000
000000000000
000000000000
000000000000
000000000000
000000000000
00003FE00000
0003FFFC0000
000FFFFF8000
003FFFFFC000
007FFFFFF000
00FFFFFFF800
03FFFFFFFC00
03FFC01FFE00
07FE0007FF00
0FFC0001FF00
1FF00000FF80
1FF000007F80
3FE000003FC0
3FC000003FC0
3FC000001FE0
7F8000001FE0
7F8000000FE0
7F8000000FE0
7F0000000FE0
7FFFFFFFFFF0
FFFFFFFFFFF0
FFFFFFFFFFF0
FFFFFFFFFFF0
FFFFFFFFFFF0
7FFFFFFFFFF0
7F0000000000
7F8000000000
7F8000000000
7F8000000000
7FC000000000
3FC000000000
3FE000000000
1FF000000800
1FF800001C00
0FFC00003C00
0FFE00007E00
07FF8001FF00
03FFFE7FFF80
01FFFFFFFF00
00FFFFFFFE00
003FFFFFFC00
001FFFFFF000
0007FFFFC000
0000FFFE0000
ENDCHAR
STARTCHAR 0116
ENCODING 278
SWIDTH 670 0
DWIDTH 55 0
BBX 41 73 9 0
BITMAP
00003C000000
0000FE000000
0001FF000000
0001FF000000
0001FF000000
0001FF000000
0001FF000000
0001FF000000
0000FE000000
000038000000
000000000000
000000000000
000000000000
000000000000
000000000000
000000000000
FFFFFFFFFF00
FFFFFFFFFF00
FFFFFFFFFF00
FFFFFFFFFF00
FFFFFFFFFF00
FFFFFFFFFF00
FFFFFFFFFF00
FF0000000000
FF0000000000
FF0000000000
FF0000000000
FF0000000000
FF0000000000
FF0000000000
FF0000000000
FF0000000000
FF0000000000
FF0000000000
FF0000000000
FF0000000000
FF0000000000
FF0000000000
FF0000000000
FF0000000000
FFFFFFFFF800
FFFFFFFFF800
FFFFFFFFF800
FFFFFFFFF800
FFFFFFFFF800
FFFFFFFFF800
FFFFFFFFF800
FF0000000000
FF0000000000
FF0000000000
FF0000000000
FF0000000000
FF0000000000
FF0000000000
FF0000000000
FF0000000000
FF0000000000
FF0000000000
FF0000000000
FF0000000000
FF0000000000
FF0000000000
FF0000000000
FF0000000000
FF0000000000
FF0000000000
FFFFFFFFFF80
FFFFFFFFFF80
FFFFFFFFFF80
FFFFFFFFFF80
FFFFFFFFFF80
FFFFFFFFFF80
FFFFFFFFFF80
ENDCHAR
STARTCHAR 0117
ENCODING 279
SWIDTH 609 0
DWIDTH 50 0
BBX 44 61 3 0
BITMAP
000007800000
00001FC00000
00003FE00000
00003FE00000
00003FE00000
00003FE00000
00003FE00000
00003FE00000
00001FC00000
000007000000
000000000000
000000000000
000000000000
000000000000
000000000000
000000000000
000000000000
00003FE00000
0003FFFC0000
000FFFFF8000
003FFFFFC000
007FFFFFF000
00FFFFFFF800
03FFFFFFFC00
03FFC01FFE00
07FE0007FF00
0FFC0001FF00
1FF00000FF80
1FF000007F80
3FE000003FC0
3FC000003FC0
3FC000001FE0
7F8000001FE0
7F8000000FE0
7F8000000FE0
7F0000000FE0
7FFFFFFFFFF0
FFFFFFFFFFF0
FFFFFFFFFFF0
FFFFFFFFFFF0
FFFFFFFFFFF0
7FFFFFFFFFF0
7F0000000000
7F8000000000
7F8000000000
7F8000000000
7FC000000000
3FC000000000
3FE000000000
1FF000000800
1FF800001C00
0FFC00003C00
0FFE00007E00
07FF8001FF00
03FFFE7FFF80
01FFFFFFFF00
00FFFFFFFE00
003FFFFFFC00
001FFFFFF000
0007FFFFC000
0000FFFE0000
ENDCHAR
STARTCHAR 0118
ENCODING 280
SWIDTH 670 0
DWIDTH 55 0
BBX 43 75 9 -18
BITMAP
FFFFFFFFFF00
FFFFFFFFFF00
FFFFFFFFFF00
FFFFFFFFFF00
FFFFFFFFFF00
FFFFFFFFFF00
FFFFFFFFFF00
FF0000000000
FF0000000000
FF0000000000
FF0000000000
FF0000000000
FF0000000000
FF0000000000
FF0000000000
FF0000000000
FF0000000000
FF0000000000
FF0000000000
FF0000000000
FF0000000000
FF0000000000
FF0000000000
FF0000000000
FFFFFFFFF800
FFFFFFFFF800
FFFFFFFFF800
FFFFFFFFF800
FFFFFFFFF800
FFFFFFFFF800
FFFFFFFFF800
FF0000000000
FF0000000000
FF0000000000
FF0000000000
FF0000000000
FF0000000000
FF0000000000
FF0000000000
FF0000000000
FF0000000000
FF0000000000
FF0000000000
FF0000000000
FF0000000000
FF0000000000
FF0000000000
FF0000000000
FF0000000000
FF0000000000
FFFFFFFFFF80
FFFFFFFFFF80
FFFFFFFFFF80
FFFFFFFFFF80
FFFFFFFFFF80
FFFFFFFFFF80
FFFFFFFFFFC0
00000000FF80
00000001FE00
00000003F800
00000007F000
0000000FC000
0000001F8000
0000001F8000
0000001F0000
0000003F0000
0000003F0000
0000003F0000
0000003F0000
0000001F8040
0000001FE1C0
0000001FFFE0
0000000FFFE0
00000007FFE0
00000001FF80
ENDCHAR
STARTCHAR 0119
ENCODING 281
SWIDTH 609 0
DWIDTH 50 0
BBX 44 62 3 -18
BITMAP
00003FE00000
0003FFFC0000
000FFFFF8000
003FFFFFC000
007FFFFFF000
00FFFFFFF800
03FFFFFFFC00
03FFC01FFE00
07FE0007FF00
0FFC0001FF00
1FF00000FF80
1FF000007F80
3FE000003FC0
3FC000003FC0
3FC000001FE0
7F8000001FE0
7F8000000FE0
7F8000000FE0
7F0000000FE0
7FFFFFFFFFF0
FFFFFFFFFFF0
FFFFFFFFFFF0
FFFFFFFFFFF0
FFFFFFFFFFF0
7FFFFFFFFFF0
7F0000000000
7F8000000000
7F8000000000
7F8000000000
7FC000000000
3FC000000000
3FE000000000
1FF000000800
1FF800001C00
0FFC00003C00
0FFE00007E00
07FF8001FF00
03FFFE7FFF80
01FFFFFFFF00
00FFFFFFFE00
003FFFFFFC00
001FFFFFF000
0007FFFFE000
0000FFFFC000
0000001F8000
0000003F0000
0000007E0000
0000007E0000
000000FC0000
000000F80000
000001F80000
000001F80000
000001F80000
000001F00000
000001F80000
000001F80000
000001FC0200
000000FF1E00
000000FFFE00
0000007FFF00
0000003FFF00
0000000FFC00
ENDCHAR
STARTCHAR 011A
ENCODING 282
SWIDTH 670 0
DWIDTH 55 0
BBX 41 72 9 0
BITMAP
07F8003FC000
01FC007F0000
00FF00FE0000
007F83FC0000
003FC7F80000
001FEFF00000
000FFFE00000
0007FFC00000
0003FF800000
0001FF000000
000000000000
000000000000
000000000000
000000000000
000000000000
FFFFFFFFFF00
FFFFFFFFFF00
FFFFFFFFFF00
FFFFFFFFFF00
FFFFFFFFFF00
FFFFFFFFFF00
FFFFFFFFFF00
FF0000000000
FF0000000000
FF0000000000
FF0000000000
FF0000000000
FF0000000000
FF0000000000
FF0000000000
FF0000000000
FF0000000000
FF0000000000
FF0000000000
FF0000000000
FF0000000000
FF0000000000
FF0000000000
FF0000000000
FFFFFFFFF800
FFFFFFFFF800
FFFFFFFFF800
FFFFFFFFF800
FFFFFFFFF800
FFFFFFFFF800
FFFFFFFFF800
FF0000000000
FF0000000000
FF0000000000
FF0000000000
FF0000000000
FF0000000000
FF0000000000
FF0000000000
FF0000000000
FF0000000000
FF0000000000
FF0000000000
FF0000000000
FF0000000000
FF0000000000
FF0000000000
FF0000000000
FF0000000000
FF0000000000
FFFFFFFFFF80
FFFFFFFFFF80
FFFFFFFFFF80
FFFFFFFFFF80
FFFFFFFFFF80
FFFFFFFFFF80
FFFFFFFFFF80
ENDCHAR
STARTCHAR 011B
ENCODING 283
SWIDTH 609 0
DWIDTH 50 0
BBX 44 60 3 0
BITMAP
00FF0007F800
003F800FE000
001FE01FC000
000FF07F8000
0007F8FF0000
0003FDFE0000
0001FFFC0000
0000FFF80000
00007FF00000
00003FE00000
000000000000
000000000000
000000000000
000000000000
000000000000
000000000000
00003FE00000
0003FFFC0000
000FFFFF8000
003FFFFFC000
007FFFFFF000
00FFFFFFF800
03FFFFFFFC00
03FFC01FFE00
07FE0007FF00
0FFC0001FF00
1FF00000FF80
1FF000007F80
3FE000003FC0
3FC000003FC0
3FC000001FE0
7F8000001FE0
7F8000000FE0
7F8000000FE0
7F0000000FE0
7FFFFFFFFFF0
FFFFFFFFFFF0
FFFFFFFFFFF0
FFFFFFFFFFF0
FFFFFFFFFFF0
7FFFFFFFFFF0
7F0000000000
7F8000000000
7F8000000000
7F8000000000
7FC000000000
3FC000000000
3FE000000000
1FF000000800
1FF800001C00
0FFC00003C00
0FFE00007E00
07FF8001FF00
03FFFE7FFF80
01FFFFFFFF00
00FFFFFFFE00
003FFFFFFC00
001FFFFFF000
0007FFFFC000
0000FFFE0000
ENDCHAR
STARTCHAR 011C
ENCODING 284
SWIDTH 768 0
DWIDTH 63 0
BBX 53 73 4 -1
BITMAP
0000007FC00000
000000FFE00000
000001FFF00000
000003FFF80000
000007FBFC0000
00000FF1FE0000
00001FE07F0000
00003F803F8000
00007F001FE000
0001FE000FF000
00000000000000
00000000000000
00000000000000
00000000000000
000000FFF80000
00000FFFFF8000
00007FFFFFF000
0001FFFFFFFC00
0003FFFFFFFF00
000FFFFFFFFF80
001FFFFFFFFFC0
003FFFF03FFFE0
00FFFE0001FFF8
01FFF000007FF0
01FFE000001FE0
03FF80000007C0
07FF0000000380
0FFE0000000100
0FFC0000000000
1FF80000000000
1FF00000000000
3FE00000000000
3FE00000000000
7FC00000000000
7FC00000000000
7F800000000000
7F800000000000
FF800000000000
FF800000000000
FF000000000000
FF000000000000
FF000000000000
FF000000000000
FF000000000FF0
FF000000000FF0
FF000000000FF0
FF000000000FF0
FF000000000FF0
FF800000000FF0
7F800000000FF0
7F800000000FF0
7FC00000000FF0
7FC00000000FF0
3FC00000000FF0
3FE00000000FF0
3FF00000000FF0
1FF00000000FF0
1FF80000000FF0
0FFC0000000FF0
07FE0000000FF0
07FF0000000FF0
03FFC000000FF0
01FFE000001FF0
00FFF800007FF0
007FFF0003FFF0
003FFFFFFFFFF0
001FFFFFFFFFE0
000FFFFFFFFF80
0003FFFFFFFF00
0000FFFFFFFC00
00003FFFFFE000
000007FFFF0000
0000001F800000
ENDCHAR
STARTCHAR 011D
ENCODING 285
SWIDTH 695 0
DWIDTH 57 0
BBX 46 76 3 -16
BITMAP
00001FF00000
00003FF80000
00007FFC0000
0000FFFE0000
0001FEFF0000
0003FC7F8000
0007F81FC000
000FE00FE000
001FC007F800
007F8003FC00
000000000000
000000000000
000000000000
000000000000
000000000000
000000000000
00003FE00000
0003FFFE01FC
000FFFFF81FC
003FFFFFE1FC
00FFFFFFF1FC
01FFFFFFF9FC
03FFFFFFFDFC
07FFE00FFFFC
0FFF0001FFFC
0FFC0000FFFC
1FF800003FFC
1FF000001FFC
3FE000000FFC
3FC000000FFC
7FC0000007FC
7F80000007FC
7F80000003FC
7F80000003FC
7F80000003FC
FF00000003FC
FF00000003FC
FF00000003FC
FF00000003FC
7F80000003FC
7F80000003FC
7F80000003FC
7F80000007FC
7FC0000007FC
3FC000000FFC
3FE000000FFC
3FF000001FFC
1FF800003FFC
0FFC00007FFC
0FFF0001FFFC
07FFC007FFFC
03FFFFFFFFFC
01FFFFFFFBFC
00FFFFFFF3FC
007FFFFFE3FC
001FFFFF83FC
0007FFFE03FC
0000FFF003FC
0000000003FC
0000000003FC
0000000007FC
0000000007F8
0000000007F8
000000000FF8
020000000FF0
078000001FF0
07C000003FF0
0FF80000FFE0
0FFF0003FFC0
1FFFFFFFFFC0
1FFFFFFFFF80
07FFFFFFFF00
03FFFFFFFC00
00FFFFFFF800
001FFFFFE000
0001FFFF0000
ENDCHAR
STARTCHAR 011E
ENCODING 286
SWIDTH 768 0
DWIDTH 63 0
BBX 53 73 4 -1
BITMAP
0000FC0007E000
0000FC0007E000
00007C0007C000
00007E000FC000
00007F001FC000
00003FC07F8000
00001FFFFF0000
00000FFFFE0000
000007FFFC0000
000001FFF00000
0000001F800000
00000000000000
00000000000000
00000000000000
000000FFF80000
00000FFFFF8000
00007FFFFFF000
0001FFFFFFFC00
0003FFFFFFFF00
000FFFFFFFFF80
001FFFFFFFFFC0
003FFFF03FFFE0
00FFFE0001FFF8
01FFF000007FF0
01FFE000001FE0
03FF80000007C0
07FF0000000380
0FFE0000000100
0FFC0000000000
1FF80000000000
1FF00000000000
3FE00000000000
3FE00000000000
7FC00000000000
7FC00000000000
7F800000000000
7F800000000000
FF800000000000
FF800000000000
FF000000000000
FF000000000000
FF000000000000
FF000000000000
FF000000000FF0
FF000000000FF0
FF000000000FF0
FF000000000FF0
FF000000000FF0
FF800000000FF0
7F800000000FF0
7F800000000FF0
7FC00000000FF0
7FC00000000FF0
3FC00000000FF0
3FE00000000FF0
3FF00000000FF0
1FF00000000FF0
1FF80000000FF0
0FFC0000000FF0
07FE0000000FF0
07FF0000000FF0
03FFC000000FF0
01FFE000001FF0
00FFF800007FF0
007FFF0003FFF0
003FFFFFFFFFF0
001FFFFFFFFFE0
000FFFFFFFFF80
0003FFFFFFFF00
0000FFFFFFFC00
00003FFFFFE000
000007FFFF0000
0000001F800000
ENDCHAR
STARTCHAR 011F
ENCODING 287
SWIDTH 695 0
DWIDTH 57 0
BBX 46 76 3 -16
BITMAP
003F0001F800
003F0001F800
001F0001F000
001F8003F000
001FC007F000
000FF01FE000
0007FFFFC000
0003FFFF8000
0001FFFF0000
00007FFC0000
000007E00000
000000000000
000000000000
000000000000
000000000000
000000000000
00003FE00000
0003FFFE01FC
000FFFFF81FC
003FFFFFE1FC
00FFFFFFF1FC
01FFFFFFF9FC
03FFFFFFFDFC
07FFE00FFFFC
0FFF0001FFFC
0FFC0000FFFC
1FF800003FFC
1FF000001FFC
3FE000000FFC
3FC000000FFC
7FC0000007FC
7F80000007FC
7F80000003FC
7F80000003FC
7F80000003FC
FF00000003FC
FF00000003FC
FF00000003FC
FF00000003FC
7F80000003FC
7F80000003FC
7F80000003FC
7F80000007FC
7FC0000007FC
3FC000000FFC
3FE000000FFC
3FF000001FFC
1FF800003FFC
0FFC00007FFC
0FFF0001FFFC
07FFC007FFFC
03FFFFFFFFFC
01FFFFFFFBFC
00FFFFFFF3FC
007FFFFFE3FC
001FFFFF83FC
0007FFFE03FC
0000FFF003FC
0000000003FC
0000000003FC
0000000007FC
0000000007F8
0000000007F8
000000000FF8
020000000FF0
078000001FF0
07C000003FF0
0FF80000FFE0
0FFF0003FFC0
1FFFFFFFFFC0
1FFFFFFFFF80
07FFFFFFFF00
03FFFFFFFC00
00FFFFFFF800
001FFFFFE000
0001FFFF0000
ENDCHAR
STARTCHAR 0120
ENCODING 288
SWIDTH 768 0
DWIDTH 63 0
BBX 53 74 4 -1
BITMAP
0000000F000000
0000003F800000
0000007FC00000
0000007FC00000
0000007FC00000
0000007FC00000
0000007FC00000
0000007FC00000
0000003F800000
0000000E000000
00000000000000
00000000000000
00000000000000
00000000000000
00000000000000
000000FFF80000
00000FFFFF8000
00007FFFFFF000
0001FFFFFFFC00
0003FFFFFFFF00
000FFFFFFFFF80
001FFFFFFFFFC0
003FFFF03FFFE0
00FFFE0001FFF8
01FFF000007FF0
01FFE000001FE0
03FF80000007C0
07FF0000000380
0FFE0000000100
0FFC0000000000
1FF80000000000
1FF00000000000
3FE00000000000
3FE00000000000
7FC00000000000
7FC00000000000
7F800000000000
7F800000000000
FF800000000000
FF800000000000
FF000000000000
FF000000000000
FF000000000000
FF000000000000
FF000000000FF0
FF000000000FF0
FF000000000FF0
FF000000000FF0
FF000000000FF0
FF800000000FF0
7F800000000FF0
7F800000000FF0
7FC00000000FF0
7FC00000000FF0
3FC00000000FF0
3FE00000000FF0
3FF00000000FF0
1FF00000000FF0
1FF80000000FF0
0FFC0000000FF0
07FE0000000FF0
07FF0000000FF0
03FFC000000FF0
01FFE000001FF0
00FFF800007FF0
007FFF0003FFF0
003FFFFFFFFFF0
001FFFFFFFFFE0
000FFFFFFFFF80
0003FFFFFFFF00
0000FFFFFFFC00
00003FFFFFE000
000007FFFF0000
0000001F800000
ENDCHAR
STARTCHAR 0121
ENCODING 289
SWIDTH 695 0
DWIDTH 57 0
BBX 46 77 3 -16
BITMAP
000003C00000
00000FE00000
00001FF00000
00001FF00000
00001FF00000
00001FF00000
00001FF00000
00001FF00000
00000FE00000
000003800000
000000000000
000000000000
000000000000
000000000000
000000000000
000000000000
000000000000
00003FE00000
0003FFFE01FC
000FFFFF81FC
003FFFFFE1FC
00FFFFFFF1FC
01FFFFFFF9FC
03FFFFFFFDFC
07FFE00FFFFC
0FFF0001FFFC
0FFC0000FFFC
1FF800003FFC
1FF000001FFC
3FE000000FFC
3FC000000FFC
7FC0000007FC
7F80000007FC
7F80000003FC
7F80000003FC
7F80000003FC
FF00000003FC
FF00000003FC
FF00000003FC
FF00000003FC
7F80000003FC
7F80000003FC
7F80000003FC
7F80000007FC
7FC0000007FC
3FC000000FFC
3FE000000FFC
3FF000001FFC
1FF800003FFC
0FFC00007FFC
0FFF0001FFFC
07FFC007FFFC
03FFFFFFFFFC
01FFFFFFFBFC
00FFFFFFF3FC
007FFFFFE3FC
001FFFFF83FC
0007FFFE03FC
0000FFF003FC
0000000003FC
0000000003FC
0000000007FC
0000000007F8
0000000007F8
000000000FF8
020000000FF0
078000001FF0
07C000003FF0
0FF80000FFE0
0FFF0003FFC0
1FFFFFFFFFC0
1FFFFFFFFF80
07FFFFFFFF00
03FFFFFFFC00
00FFFFFFF800
001FFFFFE000
0001FFFF0000
ENDCHAR
STARTCHAR 0122
ENCODING 290
SWIDTH 768 0
DWIDTH 63 0
BBX 53 80 4 -22
BITMAP
000000FFF80000
00000FFFFF8000
00007FFFFFF000
0001FFFFFFFC00
0003FFFFFFFF00
000FFFFFFFFF80
001FFFFFFFFFC0
003FFFF03FFFE0
00FFFE0001FFF8
01FFF000007FF0
01FFE000001FE0
03FF80000007C0
07FF0000000380
0FFE0000000100
0FFC0000000000
1FF80000000000
1FF00000000000
3FE00000000000
3FE00000000000
7FC00000000000
7FC00000000000
7F800000000000
7F800000000000
FF800000000000
FF800000000000
FF000000000000
FF000000000000
FF000000000000
FF000000000000
FF000000000FF0
FF000000000FF0
FF000000000FF0
FF000000000FF0
FF000000000FF0
FF800000000FF0
7F800000000FF0
7F800000000FF0
7FC00000000FF0
7FC00000000FF0
3FC00000000FF0
3FE00000000FF0
3FF00000000FF0
1FF00000000FF0
1FF80000000FF0
0FFC0000000FF0
07FE0000000FF0
07FF0000000FF0
03FFC000000FF0
01FFE000001FF0
00FFF800007FF0
007FFF0003FFF0
003FFFFFFFFFF0
001FFFFFFFFFE0
000FFFFFFFFF80
0003FFFFFFFF00
0000FFFFFFFC00
00003FFFFFE000
000007FFFF0000
0000001F800000
00000000000000
00000000000000
00000000000000
00000000000000
00000000000000
00000000000000
00000000000000
0000001F000000
0000003F800000
0000003FC00000
0000007FC00000
0000003FC00000
0000003FC00000
0000001F800000
0000000F800000
0000000F000000
0000001F000000
0000001F000000
0000001E000000
0000003E000000
0000003C000000
ENDCHAR
STARTCHAR 0123
ENCODING 291
SWIDTH 695 0
DWIDTH 57 0
BBX 46 81 3 -16
BITMAP
000001F00000
000001E00000
000003E00000
000003E00000
000003E00000
000007C00000
000007C00000
00000FC00000
00000FC00000
00001FE00000
00001FF00000
00001FF00000
00001FF00000
00001FF00000
00000FE00000
000003800000
000000000000
000000000000
000000000000
000000000000
000000000000
00003FE00000
0003FFFE01FC
000FFFFF81FC
003FFFFFE1FC
00FFFFFFF1FC
01FFFFFFF9FC
03FFFFFFFDFC
07FFE00FFFFC
0FFF0001FFFC
0FFC0000FFFC
1FF800003FFC
1FF000001FFC
3FE000000FFC
3FC000000FFC
7FC0000007FC
7F80000007FC
7F80000003FC
7F80000003FC
7F80000003FC
FF00000003FC
FF00000003FC
FF00000003FC
FF00000003FC
7F80000003FC
7F80000003FC
7F80000003FC
7F80000007FC
7FC0000007FC
3FC000000FFC
3FE000000FFC
3FF000001FFC
1FF800003FFC
0FFC00007FFC
0FFF0001FFFC
07FFC007FFFC
03FFFFFFFFFC
01FFFFFFFBFC
00FFFFFFF3FC
007FFFFFE3FC
001FFFFF83FC
0007FFFE03FC
0000FFF003FC
0000000003FC
0000000003FC
0000000007FC
0000000007F8
0000000007F8
000000000FF8
020000000FF0
078000001FF0
07C000003FF0
0FF80000FFE0
0FFF0003FFC0
1FFFFFFFFFC0
1FFFFFFFFF80
07FFFFFFFF00
03FFFFFFFC00
00FFFFFFF800
001FFFFFE000
0001FFFF0000
ENDCHAR
STARTCHAR 0124
ENCODING 292
SWIDTH 817 0
DWIDTH 67 0
BBX 49 72 9 0
BITMAP
00000FF8000000
00001FFC000000
00003FFE000000
00007FFF000000
0000FF7F800000
0001FE3FC00000
0003FC0FE00000
0007F007F00000
000FE003FC0000
003FC001FE0000
00000000000000
00000000000000
00000000000000
00000000000000
00000000000000
FF000000007F80
FF000000007F80
FF000000007F80
FF000000007F80
FF000000007F80
FF000000007F80
FF000000007F80
FF000000007F80
FF000000007F80
FF000000007F80
FF000000007F80
FF000000007F80
FF000000007F80
FF000000007F80
FF000000007F80
FF000000007F80
FF000000007F80
FF000000007F80
FF000000007F80
FF000000007F80
FF000000007F80
FF000000007F80
FF000000007F80
FF000000007F80
FFFFFFFFFFFF80
FFFFFFFFFFFF80
FFFFFFFFFFFF80
FFFFFFFFFFFF80
FFFFFFFFFFFF80
FFFFFFFFFFFF80
FFFFFFFFFFFF80
FF000000007F80
FF000000007F80
FF000000007F80
FF000000007F80
FF000000007F80
FF000000007F80
FF000000007F80
FF000000007F80
FF000000007F80
FF000000007F80
FF000000007F80
FF000000007F80
FF000000007F80
FF000000007F80
FF000000007F80
FF000000007F80
FF000000007F80
FF000000007F80
FF000000007F80
FF000000007F80
FF000000007F80
FF000000007F80
FF000000007F80
FF000000007F80
FF000000007F80
FF000000007F80
ENDCHAR
STARTCHAR 0125
ENCODING 293
SWIDTH 682 0
DWIDTH 56 0
BBX 52 75 -3 0
BITMAP
003FE000000000
007FF000000000
00FFF800000000
01FFFC00000000
03FDFE00000000
07F8FF00000000
0FF03F80000000
1FC01FC0000000
3F800FF0000000
FF0007F8000000
00000000000000
00000000000000
00000000000000
00000000000000
003FC000000000
003FC000000000
003FC000000000
003FC000000000
003FC000000000
003FC000000000
003FC000000000
003FC000000000
003FC000000000
003FC000000000
003FC000000000
003FC000000000
003FC000000000
003FC000000000
003FC000000000
003FC000000000
003FC000000000
003FC007FC0000
003FC03FFF8000
003FC1FFFFF000
003FC3FFFFF800
003FCFFFFFFC00
003FDFFFFFFE00
003FFFFFFFFF00
003FFFF81FFF80
003FFFC003FF80
003FFF0000FFC0
003FFC00007FC0
003FF800003FE0
003FF800003FE0
003FF000001FE0
003FF000001FE0
003FE000001FE0
003FE000000FF0
003FE000000FF0
003FE000000FF0
003FC000000FF0
003FC000000FF0
003FC000000FF0
003FC000000FF0
003FC000000FF0
003FC000000FF0
003FC000000FF0
003FC000000FF0
003FC000000FF0
003FC000000FF0
003FC000000FF0
003FC000000FF0
003FC000000FF0
003FC000000FF0
003FC000000FF0
003FC000000FF0
003FC000000FF0
003FC000000FF0
003FC000000FF0
003FC000000FF0
003FC000000FF0
003FC000000FF0
003FC000000FF0
003FC000000FF0
003FC000000FF0
ENDCHAR
STARTCHAR 0126
ENCODING 294
SWIDTH 817 0
DWIDTH 67 0
BBX 66 57 1 0
BITMAP
007F800000003FC000
007F800000003FC000
007F800000003FC000
007F800000003FC000
007F800000003FC000
007F800000003FC000
007F800000003FC000
007F800000003FC000
FFFFFFFFFFFFFFFFC0
FFFFFFFFFFFFFFFFC0
FFFFFFFFFFFFFFFFC0
FFFFFFFFFFFFFFFFC0
FFFFFFFFFFFFFFFFC0
FFFFFFFFFFFFFFFFC0
007F800000003FC000
007F800000003FC000
007F800000003FC000
007F800000003FC000
007F800000003FC000
007F800000003FC000
007F800000003FC000
007F800000003FC000
007F800000003FC000
007F800000003FC000
007FFFFFFFFFFFC000
007FFFFFFFFFFFC000
007FFFFFFFFFFFC000
007FFFFFFFFFFFC000
007FFFFFFFFFFFC000
007FFFFFFFFFFFC000
007FFFFFFFFFFFC000
007F800000003FC000
007F800000003FC000
007F800000003FC000
007F800000003FC000
007F800000003FC000
007F800000003FC000
007F800000003FC000
007F800000003FC000
007F800000003FC000
007F800000003FC000
007F800000003FC000
007F800000003FC000
007F800000003FC000
007F800000003FC000
007F800000003FC000
007F800000003FC000
007F800000003FC000
007F800000003FC000
007F800000003FC000
007F800000003FC000
007F800000003FC000
007F800000003FC000
007F800000003FC000
007F800000003FC000
007F800000003FC000
007F800000003FC000
ENDCHAR
STARTCHAR 0127
ENCODING 295
SWIDTH 682 0
DWIDTH 56 0
BBX 49 61 0 0
BITMAP
01FE0000000000
01FE0000000000
01FE0000000000
01FE0000000000
01FE0000000000
01FE0000000000
FFFFFFFF800000
FFFFFFFF800000
FFFFFFFF800000
FFFFFFFF800000
FFFFFFFF800000
FFFFFFFF800000
01FE0000000000
01FE0000000000
01FE0000000000
01FE0000000000
01FE0000000000
01FE003FE00000
01FE01FFFC0000
01FE0FFFFF8000
01FE1FFFFFC000
01FE7FFFFFE000
01FEFFFFFFF000
01FFFFFFFFF800
01FFFFC0FFFC00
01FFFE001FFC00
01FFF80007FE00
01FFE00003FE00
01FFC00001FF00
01FFC00001FF00
01FF800000FF00
01FF800000FF00
01FF000000FF00
01FF0000007F80
01FF0000007F80
01FF0000007F80
01FE0000007F80
01FE0000007F80
01FE0000007F80
01FE0000007F80
01FE0000007F80
01FE0000007F80
01FE0000007F80
01FE0000007F80
01FE0000007F80
01FE0000007F80
01FE0000007F80
01FE0000007F80
01FE0000007F80
01FE0000007F80
01FE0000007F80
01FE0000007F80
01FE0000007F80
01FE0000007F80
01FE0000007F80
01FE0000007F80
01FE0000007F80
01FE0000007F80
01FE0000007F80
01FE0000007F80
01FE0000007F80
ENDCHAR
STARTCHAR 0128
ENCODING 296
SWIDTH 304 0
DWIDTH 25 0
BBX 27 72 -1 0
BITMAP
0FF001E0
1FF801E0
3FFC03E0
7FFE03E0
7F7F87E0
FC1FFFC0
F80FFFC0
F807FF80
F001FF00
F0007C00
00000000
00000000
00000000
00000000
00000000
003FC000
003FC000
003FC000
003FC000
003FC000
003FC000
003FC000
003FC000
003FC000
003FC000
003FC000
003FC000
003FC000
003FC000
003FC000
003FC000
003FC000
003FC000
003FC000
003FC000
003FC000
003FC000
003FC000
003FC000
003FC000
003FC000
003FC000
003FC000
003FC000
003FC000
003FC000
003FC000
003FC000
003FC000
003FC000
003FC000
003FC000
003FC000
003FC000
003FC000
003FC000
003FC000
003FC000
003FC000
003FC000
003FC000
003FC000
003FC000
003FC000
003FC000
003FC000
003FC000
003FC000
003FC000
003FC000
003FC000
003FC000
ENDCHAR
STARTCHAR 0129
ENCODING 297
SWIDTH 280 0
DWIDTH 23 0
BBX 23 60 0 0
BITMAP
1FC01E
3FE01E
7FF01E
7FF83E
7FFE3E
F87FFE
F83FFC
F01FF8
F00FF8
F003E0
000000
000000
000000
000000
000000
000000
000000
01FE00
01FE00
01FE00
01FE00
01FE00
01FE00
01FE00
01FE00
01FE00
01FE00
01FE00
01FE00
01FE00
01FE00
01FE00
01FE00
01FE00
01FE00
01FE00
01FE00
01FE00
01FE00
01FE00
01FE00
01FE00
01FE00
01FE00
01FE00
01FE00
01FE00
01FE00
01FE00
01FE00
01FE00
01FE00
01FE00
01FE00
01FE00
01FE00
01FE00
01FE00
01FE00
01FE00
ENDCHAR
STARTCHAR 012A
ENCODING 298
SWIDTH 304 0
DWIDTH 25 0
BBX 22 70 2 0
BITMAP
FFFFFC
FFFFFC
FFFFFC
FFFFFC
FFFFFC
000000
000000
000000
000000
000000
000000
000000
000000
01FE00
01FE00
01FE00
01FE00
01FE00
01FE00
01FE00
01FE00
01FE00
01FE00
01FE00
01FE00
01FE00
01FE00
01FE00
01FE00
01FE00
01FE00
01FE00
01FE00
01FE00
01FE00
01FE00
01FE00
01FE00
01FE00
01FE00
01FE00
01FE00
01FE00
01FE00
01FE00
01FE00
01FE00
01FE00
01FE00
01FE00
01FE00
01FE00
01FE00
01FE00
01FE00
01FE00
01FE00
01FE00
01FE00
01FE00
01FE00
01FE00
01FE00
01FE00
01FE00
01FE00
01FE00
01FE00
01FE00
01FE00
ENDCHAR
STARTCHAR 012B
ENCODING 299
SWIDTH 280 0
DWIDTH 23 0
BBX 22 58 1 0
BITMAP
FFFFFC
FFFFFC
FFFFFC
FFFFFC
FFFFFC
000000
000000
000000
000000
000000
000000
000000
000000
000000
000000
03FC00
03FC00
03FC00
03FC00
03FC00
03FC00
03FC00
03FC00
03FC00
03FC00
03FC00
03FC00
03FC00
03FC00
03FC00
03FC00
03FC00
03FC00
03FC00
03FC00
03FC00
03FC00
03FC00
03FC00
03FC00
03FC00
03FC00
03FC00
03FC00
03FC00
03FC00
03FC00
03FC00
03FC00
03FC00
03FC00
03FC00
03FC00
03FC00
03FC00
03FC00
03FC00
03FC00
ENDCHAR
STARTCHAR 012C
ENCODING 300
SWIDTH 304 0
DWIDTH 25 0
BBX 27 72 -1 0
BITMAP
FC0007E0
7C0007E0
7C0007C0
7E000FC0
7F001FC0
3FC07F80
1FFFFF00
0FFFFE00
07FFFC00
01FFF000
001F8000
00000000
00000000
00000000
00000000
003FC000
003FC000
003FC000
003FC000
003FC000
003FC000
003FC000
003FC000
003FC000
003FC000
003FC000
003FC000
003FC000
003FC000
003FC000
003FC000
003FC000
003FC000
003FC000
003FC000
003FC000
003FC000
003FC000
003FC000
003FC000
003FC000
003FC000
003FC000
003FC000
003FC000
003FC000
003FC000
003FC000
003FC000
003FC000
003FC000
003FC000
003FC000
003FC000
003FC000
003FC000
003FC000
003FC000
003FC000
003FC000
003FC000
003FC000
003FC000
003FC000
003FC000
003FC000
003FC000
003FC000
003FC000
003FC000
003FC000
003FC000
ENDCHAR
STARTCHAR 012D
ENCODING 301
SWIDTH 280 0
DWIDTH 23 0
BBX 23 60 0 0
BITMAP
F8003E
FC003E
7C007E
7C007C
7E00FC
3F81F8
3FFFF8
1FFFF0
0FFFE0
03FF80
007C00
000000
000000
000000
000000
000000
000000
01FE00
01FE00
01FE00
01FE00
01FE00
01FE00
01FE00
01FE00
01FE00
01FE00
01FE00
01FE00
01FE00
01FE00
01FE00
01FE00
01FE00
01FE00
01FE00
01FE00
01FE00
01FE00
01FE00
01FE00
01FE00
01FE00
01FE00
01FE00
01FE00
01FE00
01FE00
01FE00
01FE00
01FE00
01FE00
01FE00
01FE00
01FE00
01FE00
01FE00
01FE00
01FE00
01FE00
ENDCHAR
STARTCHAR 012E
ENCODING 302
SWIDTH 304 0
DWIDTH 25 0
BBX 14 75 6 -18
BITMAP
1FE0
1FE0
1FE0
1FE0
1FE0
1FE0
1FE0
1FE0
1FE0
1FE0
1FE0
1FE0
1FE0
1FE0
1FE0
1FE0
1FE0
1FE0
1FE0
1FE0
1FE0
1FE0
1FE0
1FE0
1FE0
1FE0
1FE0
1FE0
1FE0
1FE0
1FE0
1FE0
1FE0
1FE0
1FE0
1FE0
1FE0
1FE0
1FE0
1FE0
1FE0
1FE0
1FE0
1FE0
1FE0
1FE0
1FE0
1FE0
1FE0
1FE0
1FE0
1FE0
1FE0
1FE0
1FE0
1FE0
1FE0
0FC0
0F80
1F00
3F00
3E00
7E00
7C00
7C00
FC00
FC00
FC00
FC00
FE00
7F10
7FF8
3FF8
1FFC
0FF0
ENDCHAR
STARTCHAR 012F
ENCODING 303
SWIDTH 280 0
DWIDTH 23 0
BBX 14 80 5 -18
BITMAP
0F80
1FE0
3FE0
7FF0
7FF0
7FF0
7FF0
3FE0
1FE0
0F80
0000
0000
0000
0000
0000
0000
0000
0000
0000
3FC0
3FC0
3FC0
3FC0
3FC0
3FC0
3FC0
3FC0
3FC0
3FC0
3FC0
3FC0
3FC0
3FC0
3FC0
3FC0
3FC0
3FC0
3FC0
3FC0
3FC0
3FC0
3FC0
3FC0
3FC0
3FC0
3FC0
3FC0
3FC0
3FC0
3FC0
3FC0
3FC0
3FC0
3FC0
3FC0
3FC0
3FC0
3FC0
3FC0
3FC0
3FC0
3FC0
0FE0
0F80
1F00
3F00
3E00
7E00
7C00
7C00
FC00
FC00
FC00
FC00
FE00
7F10
7FF8
3FF8
1FFC
0FF0
ENDCHAR
STARTCHAR 0130
ENCODING 304
SWIDTH 304 0
DWIDTH 25 0
BBX 9 73 8 0
BITMAP
1E00
7F00
FF80
FF80
FF80
FF80
FF80
FF80
7F00
1C00
0000
0000
0000
0000
0000
0000
7F80
7F80
7F80
7F80
7F80
7F80
7F80
7F80
7F80
7F80
7F80
7F80
7F80
7F80
7F80
7F80
7F80
7F80
7F80
7F80
7F80
7F80
7F80
7F80
7F80
7F80
7F80
7F80
7F80
7F80
7F80
7F80
7F80
7F80
7F80
7F80
7F80
7F80
7F80
7F80
7F80
7F80
7F80
7F80
7F80
7F80
7F80
7F80
7F80
7F80
7F80
7F80
7F80
7F80
7F80
7F80
7F80
ENDCHAR
STARTCHAR 0131
ENCODING 305
SWIDTH 280 0
DWIDTH 23 0
BBX 8 43 7 0
BITMAP
FF
FF
FF
FF
FF
FF
FF
FF
FF
FF
FF
FF
FF
FF
FF
FF
FF
FF
FF
FF
FF
FF
FF
FF
FF
FF
FF
FF
FF
FF
FF
FF
FF
FF
FF
FF
FF
FF
FF
FF
FF
FF
FF
ENDCHAR
STARTCHAR 0132
ENCODING 306
SWIDTH 719 0
DWIDTH 59 0
BBX 44 58 7 -1
BITMAP
7F8000000FF0
7F8000000FF0
7F8000000FF0
7F8000000FF0
7F8000000FF0
7F8000000FF0
7F8000000FF0
7F8000000FF0
7F8000000FF0
7F8000000FF0
7F8000000FF0
7F8000000FF0
7F8000000FF0
7F8000000FF0
7F8000000FF0
7F8000000FF0
7F8000000FF0
7F8000000FF0
7F8000000FF0
7F8000000FF0
7F8000000FF0
7F8000000FF0
7F8000000FF0
7F8000000FF0
7F8000000FF0
7F8000000FF0
7F8000000FF0
7F8000000FF0
7F8000000FF0
7F8000000FF0
7F8000000FF0
7F8000000FF0
000000000FF0
000000000FF0
000000000FF0
000000000FF0
000000001FF0
000000001FF0
000000001FE0
000000001FE0
000000001FE0
000000003FE0
000000003FC0
000000007FC0
000000007FC0
10000000FF80
18000001FF80
3E000003FF00
3FC0000FFE00
7FF8003FFE00
7FFFFFFFFC00
FFFFFFFFF800
7FFFFFFFF000
1FFFFFFFE000
07FFFFFF8000
01FFFFFE0000
003FFFF00000
00003E000000
ENDCHAR
STARTCHAR 0133
ENCODING 307
SWIDTH 560 0
DWIDTH 46 0
BBX 34 78 6 -16
BITMAP
1F00003E00
3FC0007F80
7FC000FF80
FFE001FFC0
FFE001FFC0
FFE001FFC0
FFE001FFC0
7FC000FF80
3FC0007F80
1F00003E00
0000000000
0000000000
0000000000
0000000000
0000000000
0000000000
0000000000
0000000000
0000000000
7F80007F80
7F80007F80
7F80007F80
7F80007F80
7F80007F80
7F80007F80
7F80007F80
7F80007F80
7F80007F80
7F80007F80
7F80007F80
7F80007F80
7F80007F80
7F80007F80
7F80007F80
7F80007F80
7F80007F80
7F80007F80
7F80007F80
7F80007F80
7F80007F80
7F80007F80
7F80007F80
7F80007F80
7F80007F80
7F80007F80
7F80007F80
7F80007F80
7F80007F80
7F80007F80
7F80007F80
7F80007F80
7F80007F80
7F80007F80
7F80007F80
7F80007F80
7F80007F80
7F80007F80
7F80007F80
7F80007F80
7F80007F80
7F80007F80
7F80007F80
0000007F80
0000007F80
0000007F80
0000007F80
0000007F80
000000FF00
000000FF00
000001FF00
000803FF00
001F0FFE00
001FFFFE00
003FFFFC00
003FFFF800
007FFFF000
001FFFE000
0007FF8000
ENDCHAR
STARTCHAR 0134
ENCODING 308
SWIDTH 512 0
DWIDTH 42 0
BBX 35 73 -1 -1
BITMAP
0000FF8000
0001FFC000
0003FFE000
0007FFF000
000FF7F800
001FE3FC00
003FC0FE00
007F007F00
00FE003FC0
03FC001FE0
0000000000
0000000000
0000000000
0000000000
0000000000
03FFFFFFE0
03FFFFFFE0
03FFFFFFE0
03FFFFFFE0
03FFFFFFE0
03FFFFFFE0
03FFFFFFE0
0000001FE0
0000001FE0
0000001FE0
0000001FE0
0000001FE0
0000001FE0
0000001FE0
0000001FE0
0000001FE0
0000001FE0
0000001FE0
0000001FE0
0000001FE0
0000001FE0
0000001FE0
0000001FE0
0000001FE0
0000001FE0
0000001FE0
0000001FE0
0000001FE0
0000001FE0
0000001FE0
0000001FE0
0000001FE0
0000001FE0
0000001FE0
0000001FE0
0000001FE0
0000001FE0
0000001FE0
0000001FE0
0000001FE0
0000001FE0
0000001FE0
0000001FE0
0000003FE0
0C00003FC0
0C00003FC0
1E00007FC0
3F00007FC0
7FC000FF80
FFF003FF80
7FFF3FFF00
3FFFFFFF00
1FFFFFFE00
0FFFFFFC00
03FFFFF800
01FFFFE000
003FFF8000
0003E00000
ENDCHAR
STARTCHAR 0135
ENCODING 309
SWIDTH 280 0
DWIDTH 23 0
BBX 32 76 -8 -16
BITMAP
0001FF00
0003FF80
0007FFC0
0007FFE0
000FEFE0
001FC7F0
003F83F8
007F01FC
00FE00FE
01FC007F
00000000
00000000
00000000
00000000
00000000
00000000
00000000
0000FF00
0000FF00
0000FF00
0000FF00
0000FF00
0000FF00
0000FF00
0000FF00
0000FF00
0000FF00
0000FF00
0000FF00
0000FF00
0000FF00
0000FF00
0000FF00
0000FF00
0000FF00
0000FF00
0000FF00
0000FF00
0000FF00
0000FF00
0000FF00
0000FF00
0000FF00
0000FF00
0000FF00
0000FF00
0000FF00
0000FF00
0000FF00
0000FF00
0000FF00
0000FF00
0000FF00
0000FF00
0000FF00
0000FF00
0000FF00
0000FF00
0000FF00
0000FF00
0000FF00
0000FF00
0000FF00
0000FF00
0000FF00
0001FE00
0001FE00
0003FE00
1007FE00
3E1FFC00
3FFFFC00
7FFFF800
7FFFF000
FFFFE000
3FFFC000
0FFF0000
ENDCHAR
ENDFONT
